<?xml version="1.0" encoding="utf-8"?>
<!-- Generator: Adobe Illustrator 22.1.0, SVG Export Plug-In . SVG Version: 6.00 Build 0)  -->
<svg version="1.1" id="图层_1" xmlns="http://www.w3.org/2000/svg" xmlns:xlink="http://www.w3.org/1999/xlink" x="0px" y="0px"
	 viewBox="0 0 16 16" style="enable-background:new 0 0 16 16;" xml:space="preserve">
<style type="text/css">
	.st0{fill:#9E9E9E;}
</style>
<path id="形状结合" class="st0" d="M7.3,11.8l-1.3,1.1c-0.3,0.3-0.8,0.2-1.1-0.1S4.6,12,5,11.7l2.3-1.9V8.9H6.3l-1.9,2.3
	c-0.3,0.3-0.8,0.4-1.1,0.1c-0.3-0.3-0.4-0.8-0.1-1.1l1.1-1.3H2.8c-0.4,0-0.8-0.4-0.8-0.8c0-0.4,0.4-0.8,0.8-0.8h1.5L3.3,6
	C3,5.7,3.1,5.2,3.4,4.9C3.7,4.6,4.2,4.7,4.5,5l1.9,2.3h0.9V6.4L5,4.6C4.6,4.3,4.6,3.8,4.8,3.5s0.8-0.4,1.1-0.1l1.3,1.1V2.9
	c0-0.4,0.4-0.8,0.8-0.8c0.4,0,0.8,0.4,0.8,0.8v1.5l1.3-1.1c0.3-0.3,0.8-0.2,1.1,0.1c0.3,0.3,0.2,0.8-0.1,1.1L8.8,6.4v0.9h0.9L11.6,5
	c0.3-0.3,0.8-0.4,1.1-0.1c0.3,0.3,0.4,0.8,0.1,1.1l-1.1,1.3h1.5c0.4,0,0.8,0.4,0.8,0.8c0,0.4-0.4,0.8-0.8,0.8h-1.5l1.1,1.3
	c0.3,0.3,0.2,0.8-0.1,1.1c-0.3,0.3-0.8,0.2-1.1-0.1L9.8,8.9H8.8v0.9l2.3,1.9c0.3,0.3,0.4,0.8,0.1,1.1c-0.3,0.3-0.8,0.4-1.1,0.1
	l-1.3-1.1v1.5c0,0.4-0.4,0.8-0.8,0.8c-0.4,0-0.8-0.4-0.8-0.8V11.8z"/>
</svg>
