<?xml version="1.0" encoding="UTF-8"?>
<svg width="21px" height="20px" viewBox="0 0 21 20" version="1.1" xmlns="http://www.w3.org/2000/svg" xmlns:xlink="http://www.w3.org/1999/xlink">
    <!-- Generator: Sketch 63.1 (92452) - https://sketch.com -->
    <title>icon/AC</title>
    <desc>Created with Sketch.</desc>
    <g id="页面-1" stroke="none" stroke-width="1" fill="none" fill-rule="evenodd">
        <g id="显示信息多情况" transform="translate(-867.000000, -255.000000)" fill="#222222" fill-rule="nonzero">
            <g id="编组-14备份" transform="translate(398.000000, 144.000000)">
                <g id="分销">
                    <g id="Group-13" transform="translate(244.000000, 110.000000)">
                        <g id="Group-29-Copy" transform="translate(224.600000, 0.000000)">
                            <g id="icon/xingli-copy">
                                <g id="icon" transform="translate(0.094444, 0.094444)">
                                    <path d="M10.9741231,3.56516992 C11.5144016,3.56516992 11.9523839,4.00315223 11.9523839,4.54343079 L11.9523839,4.54343079 L11.9521231,6.42016992 L13.6238779,5.08388522 C14.0133118,4.77233814 14.5678135,4.80665578 14.9162773,5.14560418 L14.998886,5.2366639 C15.3363954,5.65855057 15.267994,6.27416268 14.8461074,6.61167202 L14.8461074,6.61167202 L11.9521231,8.92616992 L11.9521231,10.0861699 L13.1121231,10.0861699 L15.427621,7.19318564 C15.7651303,6.77129896 16.3807424,6.70289762 16.8026291,7.04040696 C17.2245158,7.3779163 17.2929171,7.9935284 16.9554078,8.41541508 L15.6181231,10.0861699 L17.4958622,10.0869091 C17.9975494,10.0869091 18.4110323,10.4645571 18.4675416,10.951084 L18.4741231,11.0651699 C18.4741231,11.6054485 18.0361408,12.0434308 17.4958622,12.0434308 L17.4958622,12.0434308 L15.6181231,12.0431699 L16.9554078,13.7149248 C17.2669549,14.1043586 17.2326372,14.6588603 16.8936888,15.0073241 L16.8026291,15.0899329 C16.3807424,15.4274422 15.7651303,15.3590409 15.427621,14.9371542 L15.427621,14.9371542 L13.1121231,12.0431699 L11.9521231,12.0431699 L11.9521231,13.2031699 L14.8461074,15.5186678 C15.267994,15.8561772 15.3363954,16.4717893 14.998886,16.8936759 C14.6613767,17.3155626 14.0457646,17.383964 13.6238779,17.0464546 L11.9521231,15.7091699 L11.9523839,17.5869091 C11.9523839,18.0885963 11.5747359,18.5020791 11.088209,18.5585884 L10.9741231,18.5651699 C10.4338445,18.5651699 9.99586221,18.1271876 9.99586221,17.5869091 L9.99586221,17.5869091 L9.99512308,15.7091699 L8.32436823,17.0464546 C7.93493438,17.3580017 7.3804327,17.3236841 7.03196886,16.9847357 L6.94936011,16.8936759 C6.61185077,16.4717893 6.68025211,15.8561772 7.10213879,15.5186678 L7.10213879,15.5186678 L9.99512308,13.2031699 L9.99512308,12.0431699 L8.83512308,12.0431699 L6.52062517,14.9371542 C6.18311583,15.3590409 5.56750373,15.4274422 5.14561705,15.0899329 C4.72373038,14.7524235 4.65532903,14.1368114 4.99283837,13.7149248 L6.32912308,12.0431699 L4.45238395,12.0434308 C3.95069671,12.0434308 3.5372139,11.6657828 3.48070455,11.1792558 L3.47412308,11.0651699 C3.47412308,10.5248914 3.91210539,10.0869091 4.45238395,10.0869091 L4.45238395,10.0869091 L6.32912308,10.0861699 L4.99283837,8.41541508 C4.68129129,8.02598122 4.71560893,7.47147955 5.05455734,7.1230157 L5.14561705,7.04040696 C5.56750373,6.70289762 6.18311583,6.77129896 6.52062517,7.19318564 L6.52062517,7.19318564 L8.83512308,10.0861699 L9.99512308,10.0861699 L9.99512308,8.92616992 L7.10213879,6.61167202 C6.68025211,6.27416268 6.61185077,5.65855057 6.94936011,5.2366639 C7.28686945,4.81477722 7.90248156,4.74637588 8.32436823,5.08388522 L9.99512308,6.42016992 L9.99586221,4.54343079 C9.99586221,4.04174356 10.3735102,3.62826074 10.8600372,3.5717514 Z" id="形状结合" transform="translate(10.974123, 11.065170) rotate(-90.000000) translate(-10.974123, -11.065170) "></path>
                                </g>
                            </g>
                        </g>
                    </g>
                </g>
            </g>
        </g>
    </g>
</svg>