<?xml version="1.0" encoding="utf-8"?>
<!-- Generator: Adobe Illustrator 23.0.2, SVG Export Plug-In . SVG Version: 6.00 Build 0)  -->
<svg version="1.1" id="图层_1" xmlns="http://www.w3.org/2000/svg" xmlns:xlink="http://www.w3.org/1999/xlink" x="0px" y="0px"
	 viewBox="0 0 12 14" style="enable-background:new 0 0 12 14;" xml:space="preserve">
<style type="text/css">
	.st0{fill:#3570E6;}
</style>
<path id="phone" class="st0" d="M11.4,10.8c0.4,0.6,0.1,1.4-0.1,1.6c-0.2,0.1-0.2,0.2-1,0.8c-0.9,0.6-2.4-0.1-3.1-0.4
	c-0.7-0.3-2.5-1.8-4-3.7C1.6,7.2,1,5,0.7,3.8C0.5,2.6,0.8,2.2,1,1.8c0.2-0.4,0.5-0.7,1.3-1c0.8-0.3,1.1,0,1.2,0.2
	c0.2,0.1,1,1,1.2,1.7c0.2,0.8,0,1.2-0.2,1.4C4.2,4.2,4,4.4,3.8,4.5C3.6,4.6,3.5,4.8,3.5,5.2c0,0.4,1.1,2,1.4,2.3
	C5.1,7.8,6.6,9.8,7.2,10c0.6,0.2,0.8,0,0.9-0.1c0.1-0.1,0.4-0.4,0.7-0.6c0.3-0.2,1,0,1.2,0.1C10.1,9.6,11,10.2,11.4,10.8z"/>
</svg>
