<svg id="图层_1" data-name="图层 1" xmlns="http://www.w3.org/2000/svg" viewBox="0 0 51.87 48.16"><defs><style>.cls-1{fill:#245aa5;fill-rule:evenodd;}</style></defs><title>飞机</title><path class="cls-1" d="M6.36,43.15a1,1,0,0,1-.22-1.05l4.47-10.38L6.15,21.91A0.93,0.93,0,0,1,6.23,21a1,1,0,0,1,.85-0.44h4.44a1.07,1.07,0,0,1,.77.34l5.12,5.7H27.86L22.14,9.2a0.93,0.93,0,0,1,.13-0.88,1,1,0,0,1,.82-0.4H29a1,1,0,0,1,.84.42L42.52,26.85H52.77a5.18,5.18,0,0,1,5.17,4.94v0.38a4.8,4.8,0,0,1-1.51,3.49,5.26,5.26,0,0,1-3.66,1.45H42.62L30.27,55.65a1,1,0,0,1-.84.43h-6a1,1,0,0,1-.82-0.4,0.94,0.94,0,0,1-.15-0.86l5.26-17.23H17.51l-4.83,5.5a1,1,0,0,1-.77.34H7.07A1,1,0,0,1,6.36,43.15Z" transform="translate(-6.06 -7.92)"/></svg>