<?xml version="1.0" encoding="utf-8"?>
<!-- Generator: Adobe Illustrator 24.0.1, SVG Export Plug-In . SVG Version: 6.00 Build 0)  -->
<svg version="1.1" id="图层_1" xmlns="http://www.w3.org/2000/svg" xmlns:xlink="http://www.w3.org/1999/xlink" x="0px" y="0px"
	 viewBox="0 0 15 15" style="enable-background:new 0 0 15 15;" xml:space="preserve">
<style type="text/css">
	.st0{fill:#FF9900;}
</style>
<path id="形状结合" class="st0" d="M0.8,11.7c-0.2-0.2,0-0.4,0.2-0.3c2.3,1.4,6,3.7,11.9,1c0.2-0.1,0.4,0.1,0.2,0.4
	c-0.2,0.3-2.2,2.1-5.6,2.1C4.1,14.9,1.6,12.6,0.8,11.7z M13,11.3c0.5-0.1,1.3,0,1.5,0.2c0.1,0.2,0,0.9-0.2,1.4
	c-0.2,0.5-0.5,0.9-0.7,1c-0.2,0.1-0.3,0.1-0.2-0.1c0.1-0.2,0.6-1.5,0.4-1.7c-0.2-0.3-1.2-0.1-1.5-0.1c-0.3,0-0.4,0.1-0.5,0
	C11.8,11.7,12.5,11.4,13,11.3z M7.9,0.7c0.9,0,2.1,0.2,2.8,0.9c0.9,0.8,0.8,1.9,0.8,3l0,3.1c0,0.9,0.4,1.3,0.7,1.7
	c0.1,0.2,0.1,0.4,0,0.5c-0.4,0.3-1.1,0.9-1.4,1.2l0,0c-0.1,0.1-0.3,0.1-0.4,0c-0.6-0.5-0.7-0.8-1.1-1.3c-1,1.1-1.8,1.4-3.1,1.4
	c-1.6,0-2.8-1-2.8-2.9c0-1.5,0.8-2.6,2-3.1c1-0.4,2.5-0.5,3.5-0.7V4.6c0-0.4,0-1-0.2-1.4C8.4,2.9,8,2.7,7.6,2.7
	c-0.7,0-1.4,0.4-1.5,1.1c0,0.2-0.2,0.3-0.3,0.3L3.9,4C3.8,4,3.6,3.8,3.7,3.6C4.1,1.4,6.1,0.7,7.9,0.7z M8.9,6.3
	c-1.4,0-2.8,0.3-2.8,1.9c0,0.8,0.4,1.4,1.1,1.4c0.5,0,1-0.3,1.3-0.9c0.3-0.6,0.4-1.1,0.4-1.8L8.9,6.3z"/>
</svg>
