<svg id="图层_1" data-name="图层 1" xmlns="http://www.w3.org/2000/svg" viewBox="0 0 24 24"><defs><style>.cls-1{fill:#8d90a3;}</style></defs><title>app</title><path class="cls-1" d="M34.15,27.86h1.91a.32.32,0,1,0,0-.63H34.15a.32.32,0,1,0,0,.63Z" transform="translate(-23 -23)"/><rect class="cls-1" x="7.77" y="6.03" width="8.45" height="12.55"/><ellipse class="cls-1" cx="12.11" cy="20.39" rx="0.96" ry="0.95"/><path class="cls-1" d="M44.33,23H25.67A2.67,2.67,0,0,0,23,25.67V44.33A2.67,2.67,0,0,0,25.67,47H44.33A2.67,2.67,0,0,0,47,44.33V25.67A2.67,2.67,0,0,0,44.33,23ZM40,43.39A1.62,1.62,0,0,1,38.39,45H31.6A1.62,1.62,0,0,1,30,43.39V27.58A1.59,1.59,0,0,1,31.6,26h6.79A1.59,1.59,0,0,1,40,27.58Z" transform="translate(-23 -23)"/></svg>