<?xml version="1.0" encoding="utf-8"?>
<!-- Generator: Adobe Illustrator 23.0.2, SVG Export Plug-In . SVG Version: 6.00 Build 0)  -->
<svg version="1.1" id="图层_1" xmlns="http://www.w3.org/2000/svg" xmlns:xlink="http://www.w3.org/1999/xlink" x="0px" y="0px"
	 viewBox="0 0 24 24" style="enable-background:new 0 0 24 24;" xml:space="preserve">
<style type="text/css">
	.st0{fill:#3570E6;}
</style>
<path id="Shape" class="st0" d="M16.2,1.5H7.8c-1,0-1.8,0.9-1.8,2v17.1c0,1.1,0.8,2,1.8,2h8.4c1,0,1.8-0.9,1.8-2V3.5
	C18,2.4,17.2,1.5,16.2,1.5z M9.6,2.5h4.8v0.7H9.6V2.5z M12,21.2c-0.7,0-1.2-0.6-1.2-1.3c0-0.7,0.5-1.3,1.2-1.3
	c0.7,0,1.2,0.6,1.2,1.3C13.2,20.6,12.7,21.2,12,21.2L12,21.2z M16.8,17.2H7.2V4.1h9.6V17.2L16.8,17.2z"/>
</svg>
