<?xml version="1.0" encoding="UTF-8"?>
<svg width="20px" height="20px" viewBox="0 0 20 20" version="1.1" xmlns="http://www.w3.org/2000/svg" xmlns:xlink="http://www.w3.org/1999/xlink">
    <!-- Generator: Sketch 63.1 (92452) - https://sketch.com -->
    <title>icon/auto</title>
    <desc>Created with Sketch.</desc>
    <g id="页面-1" stroke="none" stroke-width="1" fill="none" fill-rule="evenodd">
        <g id="显示信息多情况" transform="translate(-792.000000, -255.000000)" fill="#222222" fill-rule="nonzero">
            <g id="编组-14备份" transform="translate(398.000000, 144.000000)">
                <g id="分销">
                    <g id="Group-13" transform="translate(244.000000, 110.000000)">
                        <g id="Group-28-Copy" transform="translate(150.000000, 1.000000)">
                            <g id="icon/auto">
                                <g id="Combined-Shape">
                                    <path d="M10,2.5 C14.1421356,2.5 17.5,5.85786438 17.5,10 C17.5,14.1421356 14.1421356,17.5 10,17.5 C5.85786438,17.5 2.5,14.1421356 2.5,10 C2.5,5.85786438 5.85786438,2.5 10,2.5 Z M10.8267254,5.85260565 L9.44557152,5.85260565 L6.61057152,13.267221 L7.90864844,13.267221 L8.58364844,11.4083749 L11.6886484,11.4083749 L12.3636484,13.267221 L13.6617254,13.267221 L10.8267254,5.85260565 Z M10.16211,7.16106719 L11.3251869,10.4114518 L8.94710998,10.4114518 L10.1205715,7.16106719 L10.16211,7.16106719 Z"></path>
                                </g>
                            </g>
                        </g>
                    </g>
                </g>
            </g>
        </g>
    </g>
</svg>