<?xml version="1.0" encoding="utf-8"?>
<!-- Generator: Adobe Illustrator 24.0.1, SVG Export Plug-In . SVG Version: 6.00 Build 0)  -->
<svg version="1.1" id="图层_1" xmlns="http://www.w3.org/2000/svg" xmlns:xlink="http://www.w3.org/1999/xlink" x="0px" y="0px"
	 viewBox="0 0 28 27" style="enable-background:new 0 0 28 27;" xml:space="preserve">
<style type="text/css">
	.st0{fill:#8C5200;}
</style>
<path id="形状结合" class="st0" d="M12.6,0.9c6.5,0,11.7,5.3,11.7,11.7c0,2.7-0.9,5.2-2.5,7.2c0.1,0,0.2,0.1,0.3,0.2l0.1,0.1
	l5,5c0.4,0.4,0.4,1.2,0,1.6c-0.4,0.4-1.1,0.4-1.5,0.1l-0.1-0.1l-5-5c-0.1-0.1-0.2-0.2-0.2-0.3c-2.1,1.9-4.8,3-7.8,3
	c-6.5,0-11.7-5.3-11.7-11.7S6.1,0.9,12.6,0.9z M12.6,3.1c-5.2,0-9.5,4.3-9.5,9.5s4.3,9.5,9.5,9.5s9.5-4.3,9.5-9.5S17.9,3.1,12.6,3.1
	z"/>
</svg>
