<svg id="图层_1" data-name="图层 1" xmlns="http://www.w3.org/2000/svg" viewBox="0 0 20 17.31"><defs><style>.cls-1{fill:#164ab0;fill-rule:evenodd;}</style></defs><title>booknow</title><path class="cls-1" d="M37,35V31.54a.66.66,0,0,0-1.32,0v4.15a.67.67,0,0,0,.2.47.64.64,0,0,0,.46.19h3.93a.66.66,0,0,0,0-1.32Zm-8.87-3A3.51,3.51,0,0,1,27,29.46,3.4,3.4,0,0,1,30.33,26a3.22,3.22,0,0,1,2,.66A9.62,9.62,0,0,0,28.12,32.05Zm13.59-5.39a3.22,3.22,0,0,1,2-.66A3.4,3.4,0,0,1,47,29.46a3.51,3.51,0,0,1-1.12,2.59A9.62,9.62,0,0,0,41.71,26.66Zm.11,15a7.74,7.74,0,0,1-9.68-.08L30.81,43a.66.66,0,0,1-.95-.91l1.32-1.38A8.48,8.48,0,0,1,29,35a8,8,0,1,1,16,0,8.5,8.5,0,0,1-2.25,5.79L44,42A.66.66,0,0,1,44,43a.65.65,0,0,1-.93,0Z" transform="translate(-27 -26)"/></svg>