<?xml version="1.0" encoding="utf-8"?>
<!-- Generator: Adobe Illustrator 23.0.2, SVG Export Plug-In . SVG Version: 6.00 Build 0)  -->
<svg version="1.1" id="图层_1" xmlns="http://www.w3.org/2000/svg" xmlns:xlink="http://www.w3.org/1999/xlink" x="0px" y="0px"
	 viewBox="0 0 14 15" style="enable-background:new 0 0 14 15;" xml:space="preserve">
<style type="text/css">
	.st0{fill-rule:evenodd;clip-rule:evenodd;fill:#FF9500;}
</style>
<path id="形状结合" class="st0" d="M9.1,10v1.5l-3.8,0V10C4.2,9.3,3.4,8.1,3.4,6.7c0-2.1,1.7-3.8,3.8-3.8S11,4.6,11,6.7
	C11,8.1,10.2,9.3,9.1,10z M5.3,12.4h3.8v1.9H5.3V12.4z M6.7,0h1v1.8h-1V0z M11.6,1.6l0.7,0.7L11,3.6l-0.7-0.7L11.6,1.6z M13.9,6.2v1
	h-1.8v-1H13.9z M0.6,7.2v-1h1.8v1H0.6z M2.2,2.3l0.7-0.7l1.3,1.3L3.4,3.6L2.2,2.3z"/>
</svg>
