<svg id="图层_1" data-name="图层 1" xmlns="http://www.w3.org/2000/svg" viewBox="0 0 14 12"><defs><style>.cls-1{fill:#3a3a3a;}</style></defs><title>商务出行</title><path class="cls-1" d="M38.55,35.09v-1c0-.31-.19-.41-.44-.41s-.45.1-.45.41v1c0,.32.19.41.45.41S38.55,35.42,38.55,35.09Zm-6.25,0v-1c0-.31-.19-.41-.44-.41a.39.39,0,0,0-.44.41v1c0,.32.19.41.44.41S32.3,35.42,32.3,35.09Zm9.35.07H39.57c-.31,0-.39,0-.39.31v.12a.59.59,0,0,1-.59.59h-1a.59.59,0,0,1-.58-.59v-.11c0-.25-.08-.32-.33-.32H33.36c-.33,0-.41.07-.41.35v.08a.59.59,0,0,1-.58.59h-1a.58.58,0,0,1-.58-.59v0c0-.35-.08-.39-.4-.39h-2c-.29,0-.4.06-.43.25v3.81A1.94,1.94,0,0,0,29.8,41H40.2A1.94,1.94,0,0,0,42,39.22V35.36C42,35.2,41.84,35.16,41.65,35.16Zm-8.32-4.8a.46.46,0,0,1,.46-.46h2.42a.46.46,0,0,1,.46.46v.49H33.33Zm7.14.53a1.36,1.36,0,0,0-.27,0H37.57v-.7A1.15,1.15,0,0,0,36.4,29H33.6a1.15,1.15,0,0,0-1.17,1.15v.7H29.8a1.1,1.1,0,0,0-.27,0A2,2,0,0,0,28,32.63v1.06c0,.19.16.23.44.23h1.94c.33,0,.41,0,.41-.35v-.08a.59.59,0,0,1,.58-.59h1a.58.58,0,0,1,.58.59v.08c0,.32.08.35.4.35H36.7c.3,0,.33,0,.33-.31v-.12a.59.59,0,0,1,.59-.59h1a.59.59,0,0,1,.58.59v.11c0,.29.1.34.38.34h2.07c.23,0,.33,0,.37-.2V32.63A1.92,1.92,0,0,0,40.47,30.89ZM33.34,34v0Z" transform="translate(-28 -29)"/></svg>