<?xml version="1.0" encoding="utf-8"?>
<!-- Generator: Adobe Illustrator 23.0.1, SVG Export Plug-In . SVG Version: 6.00 Build 0)  -->
<svg version="1.1" id="图层_1" xmlns="http://www.w3.org/2000/svg" xmlns:xlink="http://www.w3.org/1999/xlink" x="0px" y="0px"
	 viewBox="0 0 40 40" style="enable-background:new 0 0 40 40;" xml:space="preserve">
<style type="text/css">
	.st0{fill-rule:evenodd;clip-rule:evenodd;fill:#5E636B;}
</style>
<g id="Page-1">
	<g id="地标页备份" transform="translate(-67.000000, -1403.000000)">
		<g id="Business-Zone" transform="translate(51.000000, 1389.000000)">
			<g id="icon_Business-Zone" transform="translate(16.000000, 14.000000)">
				<path id="Fill-3" class="st0" d="M32.2,17.4c-1.3,0-1.9-0.5-2.4-1.3c-0.5,0.8-1.4,1.3-2.4,1.3c-1,0-1.9-0.5-2.4-1.3
					c-0.5,0.8-1.4,1.3-2.4,1.3c-1,0-1.9-0.5-2.4-1.3c-0.5,0.8-1.4,1.3-2.4,1.3s-1.9-0.5-2.4-1.3c-0.5,0.8-1.4,1.3-2.4,1.3
					c-1,0-1.9-0.5-2.4-1.3c-0.5,0.8-1.4,1.3-2.4,1.3c-1.7,0-3.6-1.5-3-3.2L7.4,7h25.2l2.6,7.2C35.8,15.9,33.5,17.4,32.2,17.4z
					 M32.6,18.2v11.7h1.3c1.1,0,2.1,0.9,2.1,2.1H4c0-1.2,0.9-2.1,2.1-2.1h1.3V18.2c0.1,0,0.3,0,0.4,0c0.9,0,1.8-0.3,2.4-0.9
					c0.7,0.6,1.5,0.9,2.4,0.9c0.9,0,1.8-0.3,2.4-0.9c0.7,0.6,1.5,0.9,2.4,0.9c0.9,0,1.8-0.3,2.4-0.9c0.7,0.6,1.5,0.9,2.4,0.9
					c0.9,0,1.8-0.3,2.4-0.9c0.7,0.6,1.5,0.9,2.4,0.9c0.9,0,1.7-0.3,2.4-0.9c0.7,0.7,1.5,0.9,2.5,0.9C32.3,18.2,32.5,18.2,32.6,18.2z
					 M23.8,29.3h4.7v-9.6h-4.7V29.3z M10.1,27.5h11.3v-7.6H10.1V27.5z"/>
			</g>
		</g>
	</g>
</g>
</svg>
