<svg id="图层_1" data-name="图层 1" xmlns="http://www.w3.org/2000/svg" viewBox="0 0 25 19"><defs><style>.cls-1{fill:#137fc4;}</style></defs><title>车</title><path class="cls-1" d="M39,38c-1.1,0-2-.67-2-1.5s.9-1.5,2-1.5,2,.67,2,1.5S40.1,38,39,38ZM25,38c-1.1,0-2-.67-2-1.5s.9-1.5,2-1.5,2,.67,2,1.5S26.1,38,25,38Zm-.72-9.38h0L25,26.77v0c.08-.37.24-.44.49-.73H37.47c.25.3.41.37.48.72l.77,1.9.28,1c-.06.75-1.06,1.35-1.88,1.35H25.88c-.83,0-1.82-.6-1.88-1.35Zm19.06,1H41a.66.66,0,0,0-.31.08l-1.06-3.07A3,3,0,0,0,36.47,24H26.55a3.07,3.07,0,0,0-3.18,2.59l-1.06,3.08a.66.66,0,0,0-.32-.09H19.65a.64.64,0,0,0-.65.63v.55a.64.64,0,0,0,.65.63l.89.15a3.85,3.85,0,0,0-.44,1.84L19.77,37a2.57,2.57,0,0,0,0,.32,1.1,1.1,0,0,0,0,.2v4.36A1.14,1.14,0,0,0,20.93,43h1.78a1.14,1.14,0,0,0,1.16-1.12v-1.4H39.15v1.4A1.14,1.14,0,0,0,40.31,43h1.78a1.14,1.14,0,0,0,1.16-1.12V37.52a1.09,1.09,0,0,0,0-.2,2.69,2.69,0,0,0,0-.32l-.33-3.62a3.85,3.85,0,0,0-.44-1.84l.87-.14a.64.64,0,0,0,.65-.63v-.55A.64.64,0,0,0,43.35,29.58Z" transform="translate(-19 -24)"/></svg>