<?xml version="1.0" encoding="utf-8"?>
<!-- Generator: Adobe Illustrator 25.0.0, SVG Export Plug-In . SVG Version: 6.00 Build 0)  -->
<svg version="1.1" id="图层_1" xmlns="http://www.w3.org/2000/svg" xmlns:xlink="http://www.w3.org/1999/xlink" x="0px" y="0px"
	 viewBox="0 0 14 10" style="enable-background:new 0 0 14 10;" xml:space="preserve">
<style type="text/css">
	.st0{fill-rule:evenodd;clip-rule:evenodd;fill:#FFFFFF;}
</style>
<path id="Shape" class="st0" d="M12.8,3.2L12.8,3.2h-1.1c-0.1,0-0.1,0-0.1,0L11,1.8C10.8,1,10.2,0.6,9.4,0.6H4.6
	C3.7,0.6,3.2,1.1,3,1.8L2.5,3.2c0,0-0.1,0-0.2,0H1.2C1,3.2,0.9,3.3,0.9,3.5v0.3C0.9,3.9,1,4,1.2,4l0.4,0.1C1.5,4.3,1.4,4.6,1.4,4.9
	L1.3,6.6c0,0,0,0.1,0,0.1c0,0,0,0.1,0,0.1v2c0,0.3,0.3,0.5,0.6,0.5h0.9c0.3,0,0.6-0.2,0.6-0.5V8.2h7.5v0.6c0,0.3,0.3,0.5,0.6,0.5
	h0.9c0.3,0,0.6-0.2,0.6-0.5v-2c0,0,0-0.1,0-0.1c0,0,0-0.1,0-0.1l-0.2-1.7c0-0.3-0.1-0.6-0.2-0.8L12.8,4c0.2,0,0.3-0.1,0.3-0.3V3.5
	C13.1,3.3,13,3.2,12.8,3.2z M3.5,2.8L3.5,2.8l0.4-0.9l0,0c0-0.2,0.1-0.2,0.2-0.3h5.8c0.1,0.1,0.2,0.2,0.2,0.3l0.4,0.9l0.1,0.5
	c0,0.3-0.5,0.6-0.9,0.6H4.2c-0.4,0-0.9-0.3-0.9-0.6L3.5,2.8z M3.8,7.1c-0.5,0-1-0.3-1-0.7c0-0.4,0.4-0.7,1-0.7s1,0.3,1,0.7
	C4.8,6.8,4.4,7.1,3.8,7.1z M10.7,7.1c-0.5,0-1-0.3-1-0.7c0-0.4,0.4-0.7,1-0.7c0.5,0,1,0.3,1,0.7C11.7,6.8,11.2,7.1,10.7,7.1z"/>
</svg>
