<?xml version="1.0" encoding="utf-8"?>
<!-- Generator: Adobe Illustrator 23.0.2, SVG Export Plug-In . SVG Version: 6.00 Build 0)  -->
<svg version="1.1" id="图层_1" xmlns="http://www.w3.org/2000/svg" xmlns:xlink="http://www.w3.org/1999/xlink" x="0px" y="0px"
	 viewBox="0 0 13 12" style="enable-background:new 0 0 13 12;" xml:space="preserve">
<style type="text/css">
	.st0{fill:#FFFFFF;}
</style>
<g>
	<path class="st0" d="M11.9,6.9L5.2,0.2C5,0,4.7,0,4.5,0.2L0.8,3.9C0.7,4,0.7,4.4,0.8,4.6L1,4.7L0.1,6.2C-0.1,6.4,0,6.7,0.2,6.8
		l7.2,4.3l0.1,0.1c0.1,0.1,0.2,0.1,0.3,0.1l0.2,0.1L8,11.4c0.1,0,0.2-0.1,0.3-0.1l3.6-3.6C12.1,7.5,12.1,7.1,11.9,6.9z M10.7,7.7
		l-0.6,0.6c-0.3-0.3-0.9-0.3-1.2,0c-0.3,0.3-0.3,0.9,0,1.2L8.3,10c-0.2,0.2-0.5,0.2-0.7,0L2.1,4.6C1.9,4.4,1.9,4,2.1,3.9l0.6-0.6
		c0.3,0.3,0.9,0.3,1.2,0s0.3-0.9,0-1.2l0.6-0.6c0.2-0.2,0.5-0.2,0.7,0l5.5,5.5C10.9,7.1,10.9,7.5,10.7,7.7z"/>
	<path class="st0" d="M5.1,4.5C4.5,5.2,4.5,6.3,5.1,7c0.7,0.7,1.8,0.7,2.5,0c0.7-0.7,0.7-1.8,0-2.5C6.9,3.8,5.8,3.8,5.1,4.5z"/>
</g>
</svg>
