<svg id="图层_1" data-name="图层 1" xmlns="http://www.w3.org/2000/svg" viewBox="0 0 22 18.96"><defs><style>.cls-1{fill:#020202;}</style></defs><title>客服</title><path class="cls-1" d="M11.31,19.51,13,17.75a.51.51,0,0,1,.41-.14h9.76a.59.59,0,0,0,.55-.54v-10a.49.49,0,0,0-.14-.41.51.51,0,0,0-.41-.14h-15a.5.5,0,0,0-.55.54V17.35a.29.29,0,0,0,.27.27h2.47a.59.59,0,0,1,.55.54v1.22C10.9,19.65,11,19.78,11.31,19.51ZM9.53,18.7H7.88A1.49,1.49,0,0,1,6.5,17.21V6.78A1.4,1.4,0,0,1,7.88,5.29H23.41a1.49,1.49,0,0,1,1.38,1.49V17.35a1.4,1.4,0,0,1-1.37,1.49H13.79c-.14,0-.28.14-.41.14l-3,3.25c-.27.27-.55.27-.55-.27V19A.29.29,0,0,0,9.53,18.7Z" transform="translate(-6.5 -5.29)"/><ellipse class="cls-1" cx="4.14" cy="6.85" rx="1.05" ry="1.07"/><ellipse class="cls-1" cx="9.14" cy="6.85" rx="1.05" ry="1.07"/><ellipse class="cls-1" cx="14.14" cy="6.85" rx="1.05" ry="1.07"/><path class="cls-1" d="M21.63,22.08c-.14-.14-.27-.14-.55-.14H15.44c-.14,0-.41-.14-.55-.14a.8.8,0,0,1-.14-.54v.14a.64.64,0,0,1,.69-.68h6.05a1.4,1.4,0,0,1,.41.14L23,21.95c.41.27.55.14.55-.27L23.41,21v-.14l.14-.14h3.58a.29.29,0,0,0,.27-.27V11.39a.29.29,0,0,0-.27-.27.59.59,0,0,1-.55-.54.49.49,0,0,1,.14-.41.51.51,0,0,1,.41-.14H28a.59.59,0,0,1,.55.54V21.14a.7.7,0,0,1-.27.54,1,1,0,0,1-.55.27H24.92c-.14,0-.14,0-.14.14s-.14.14,0,.14l.14,1.62c0,.41-.27.54-.55.27Z" transform="translate(-6.5 -5.29)"/></svg>