<?xml version="1.0" encoding="utf-8"?>
<!-- Generator: Adobe Illustrator 23.0.2, SVG Export Plug-In . SVG Version: 6.00 Build 0)  -->
<svg version="1.1" id="图层_1" xmlns="http://www.w3.org/2000/svg" xmlns:xlink="http://www.w3.org/1999/xlink" x="0px" y="0px"
	 viewBox="0 0 16 16" style="enable-background:new 0 0 16 16;" xml:space="preserve">
<style type="text/css">
	.st0{fill:#3570E6;}
</style>
<path class="st0" d="M7.9,2.3c-2.4,0-4.3,1.9-4.3,4.2c0,2.3,1.9,4.2,4.3,4.2c2.4,0,4.3-1.9,4.3-4.2C12.2,4.2,10.3,2.3,7.9,2.3
	L7.9,2.3L7.9,2.3z"/>
<path class="st0" d="M2.9,8.2V4.3c-0.1,0-0.1,0-0.2,0C3.6,2.3,5.6,1,7.9,1c2.3,0,4.3,1.3,5.2,3.3c-0.1,0-0.1,0-0.2,0v3.9
	c1.1,0,2-0.9,2-2c0-0.7-0.4-1.4-1-1.7c-0.9-2.4-3.2-4.2-6-4.2c-2.8,0-5.1,1.7-6,4.2c-0.6,0.3-1,1-1,1.7C0.9,7.3,1.8,8.2,2.9,8.2
	L2.9,8.2L2.9,8.2z"/>
<path class="st0" d="M12.2,10.4c-1.1,1-2.7,1.7-4.3,1.7c-1.7,0-3.2-0.6-4.3-1.7c-2,1-3.4,2.8-3.4,5.3h15.4
	C15.6,13.3,14.3,11.5,12.2,10.4L12.2,10.4L12.2,10.4z"/>
</svg>
