<svg id="图层_1" data-name="图层 1" xmlns="http://www.w3.org/2000/svg" viewBox="0 0 13 11"><defs><style>.cls-1{fill:#303030;}</style></defs><title>儿童</title><path class="cls-1" d="M38,35a1,1,0,1,1,1-1A1,1,0,0,1,38,35Zm-6-1a1,1,0,1,1,1,1A1,1,0,0,1,32,34Zm9.1-.53a5.52,5.52,0,0,0-4.15-5.32l-.31,1.37a2.39,2.39,0,0,1-2.5,1.58,2.46,2.46,0,0,1-.47,0V29.75a1.45,1.45,0,0,0,.47.08,1.38,1.38,0,0,0,1.39-1.37V28a5.53,5.53,0,0,0-5.57,5.5.92.92,0,1,0,0,1.83.76.76,0,0,0,.3,0,5.59,5.59,0,0,0,10.54,0,.76.76,0,0,0,.3,0,.92.92,0,1,0,0-1.83Z" transform="translate(-29 -28)"/></svg>