<?xml version="1.0" encoding="UTF-8"?>
<svg width="12px" height="13px" viewBox="0 0 12 13" version="1.1" xmlns="http://www.w3.org/2000/svg" xmlns:xlink="http://www.w3.org/1999/xlink">
    <!-- Generator: Sketch 55.1 (78136) - https://sketchapp.com -->
    <title>icon/clean</title>
    <desc>Created with Sketch.</desc>
    <g id="页面1" stroke="none" stroke-width="1" fill="none" fill-rule="evenodd">
        <g id="机场页-new" transform="translate(-891.000000, -855.000000)" fill="#3570E6">
            <g id="编组-20" transform="translate(365.000000, 710.000000)">
                <g id="编组-15" transform="translate(30.000000, 119.000000)">
                    <g id="Group-14" transform="translate(88.000000, 1.000000)">
                        <g id="icon_phone" transform="translate(285.000000, 24.000000)">
                            <g id="icon/clean" transform="translate(121.000000, 0.000000)">
                                <g id="形状">
                                    <path d="M13.8125947,14 L13.0254735,14 C13.0254735,14 13.0254735,12.4999444 11.320928,10.75 C11.7800189,11.8123889 12.0421402,13.1246667 12.1080492,14 L9.94365531,14 C9.68153409,13.5002222 9.3535038,12.9376111 8.76335227,12.375 C8.96032196,12.8747778 9.15729167,13.4373889 9.28835227,14 L2.07623105,14 C2.01183713,13.7501111 2.01183713,13.4373889 2.01183713,13.1875 C2.01183713,11.1248333 3.19214016,9.31277777 4.96183713,8.3125 L10.9936553,8.3125 C12.7633523,9.31277777 13.9436553,11.0627222 13.9436553,13.1875 C13.9436553,13.4373889 13.8777462,13.6872778 13.8125947,14 Z M9.68229167,7.5 L6.27320076,7.5 C5.81410985,7.5 5.42092804,7.12444444 5.42092804,6.6875 L5.42092804,5.875 C5.42092804,5.43733333 5.81486744,5.0625 6.27320076,5.0625 L7.12547349,5.0625 L7.12547349,1.8125 C7.12547349,1.37483333 7.51941289,1 7.97774622,1 C8.43683713,1 8.83001895,1.37555556 8.83001895,1.8125 L8.83001895,5.0625 L9.68229167,5.0625 C10.1413826,5.0625 10.5345644,5.43805556 10.5345644,5.875 L10.5345644,6.6875 C10.5345644,7.12516667 10.140625,7.5 9.68229167,7.5 L9.68229167,7.5 Z" fill-rule="nonzero"></path>
                                </g>
                            </g>
                        </g>
                    </g>
                </g>
            </g>
        </g>
    </g>
</svg>