<svg id="图层_1" data-name="图层 1" xmlns="http://www.w3.org/2000/svg" viewBox="0 0 20 20"><defs><style>.cls-1{fill:#137fc4;}</style></defs><title>评 论</title><path class="cls-1" d="M23.87,21.57a1.94,1.94,0,0,0-1.94,1.94V35.13a1.94,1.94,0,0,0,1.94,1.94H35.49a1.94,1.94,0,0,0,1.94-1.94V27.38l1.94-1.94V35.77A3.23,3.23,0,0,1,36.14,39H23.23A3.23,3.23,0,0,1,20,35.77V22.86a3.23,3.23,0,0,1,3.23-3.23H33.56l-1.94,1.94H23.87Zm7.22,9.36-4.33,1.23L28,27.85Zm.43-.43-3.1-3.08,6.81-6.77,3.1,3.08Zm8.21-8.16-.93.92-3.1-3.08.93-.92a.85.85,0,0,1,1.2,0l1.94,1.92A.84.84,0,0,1,39.73,22.34Z" transform="translate(-20 -19)"/></svg>