<?xml version="1.0" encoding="utf-8"?>
<!-- Generator: Adobe Illustrator 24.0.1, SVG Export Plug-In . SVG Version: 6.00 Build 0)  -->
<svg version="1.1" id="图层_1" xmlns="http://www.w3.org/2000/svg" xmlns:xlink="http://www.w3.org/1999/xlink" x="0px" y="0px"
	 viewBox="0 0 19 19" style="enable-background:new 0 0 19 19;" xml:space="preserve">
<style type="text/css">
	.st0{fill-rule:evenodd;clip-rule:evenodd;fill:#164AB0;}
	.st1{fill:#164AB0;}
</style>
<path id="Rectangle" class="st0" d="M5.5,14.2L5.5,14.2c-0.3-0.3-0.3-0.8,0-1.1l7.1-7.6c0.3-0.3,0.8-0.3,1.1,0l0,0
	c0.3,0.3,0.3,0.8,0,1.1l-7.1,7.6C6.3,14.5,5.8,14.5,5.5,14.2z"/>
<path id="Shape" class="st1" d="M11,13.6c0.3-0.3,0.8-0.3,1.1,0c0.3,0.3,0.3,0.8,0,1.1L10,17c-2.2,2.2-5.7,2.2-7.9,0S-0.1,11.2,2,9
	l2.2-2.2c0.3-0.3,0.8-0.3,1.1,0c0.3,0.3,0.3,0.8,0,1.1l-2.2,2.2c-1.6,1.6-1.6,4.1,0,5.7s4.1,1.6,5.7,0L11,13.6z M7.6,5.9
	c-0.3,0.3-0.8,0.3-1.1,0c-0.3-0.3-0.3-0.8,0-1.1l2-2.3c2.1-2.3,5.6-2.5,7.9-0.4s2.5,5.6,0.4,7.9l-2.1,2.3c-0.3,0.3-0.8,0.4-1.1,0.1
	c-0.3-0.3-0.4-0.8-0.1-1.1l2.1-2.3c1.5-1.6,1.3-4.2-0.3-5.6s-4.2-1.3-5.7,0.3L7.6,5.9z"/>
</svg>
