<svg id="图层_1" data-name="图层 1" xmlns="http://www.w3.org/2000/svg" viewBox="0 0 30.95 28.95"><defs><style>.cls-1{fill:#b71818;}</style></defs><title>套餐页标签</title><path class="cls-1" d="M49.69,38.35,32.94,22.56l-7,.19-2.19,2.06a25.64,25.64,0,0,1,1.71,2.1,2.92,2.92,0,0,1,1.31-.31A2.64,2.64,0,1,1,24,29.25a2.48,2.48,0,0,1,.17-.9,27.76,27.76,0,0,1-2.23-1.8l-1.7,1.6v6.79L36.94,50.68a.75.75,0,0,0,1.19,0l11.57-10.9S50.31,38.94,49.69,38.35Z" transform="translate(-19.02 -22.02)"/><path class="cls-1" d="M26.63,29.56a.13.13,0,0,0,.08,0c.44-.42-2.3-3.83-6-7.48a3.27,3.27,0,0,0-.55-.05,1.27,1.27,0,0,0-1,.32,1.22,1.22,0,0,0-.12,1.07C21.45,25.81,25.56,29.56,26.63,29.56Z" transform="translate(-19.02 -22.02)"/></svg>