<svg id="图层_1" data-name="图层 1" xmlns="http://www.w3.org/2000/svg" viewBox="0 0 19.91 18.94"><defs><style>.cls-1{fill:#ff5638;}</style></defs><title>sign up</title><path class="cls-1" d="M37,37.64a5.82,5.82,0,1,0-5.62-5.82A5.75,5.75,0,0,0,37,37.64Zm.13,1.52a7.58,7.58,0,0,1-4.88-1.9c-2.85,1.5-4.86,3.42-5.2,6.73h0a.86.86,0,0,0,.78.94h.12c3.85-.16,6.87-.24,9.05-.26s5.21.07,9.06.25h0a.87.87,0,0,0,.9-.81.53.53,0,0,0,0-.13h0c-.33-3.29-2.34-5.11-5.07-6.73A7,7,0,0,1,37.08,39.16Z" transform="translate(-27 -26)"/></svg>