<?xml version="1.0" encoding="utf-8"?>
<!-- Generator: Adobe Illustrator 23.0.2, SVG Export Plug-In . SVG Version: 6.00 Build 0)  -->
<svg version="1.1" id="图层_1" xmlns="http://www.w3.org/2000/svg" xmlns:xlink="http://www.w3.org/1999/xlink" x="0px" y="0px"
	 viewBox="0 0 78 67" style="enable-background:new 0 0 78 67;" xml:space="preserve">
<style type="text/css">
	.st0{fill:#333333;}
</style>
<path id="Oval" class="st0" d="M10.9,51.7l2-1.3c7.2,11,20.7,16.3,33.6,12.8c12.9-3.4,21.9-14.8,22.6-27.9l2.4,0.1
	c-0.8,14.1-10.5,26.3-24.4,30C33.2,69.2,18.6,63.5,10.9,51.7z M66.5,16l-2,1.3C57.3,6.1,43.7,0.6,30.6,4.1C17.6,7.6,8.4,19.2,8,32.6
	l-2.4-0.1C6.1,18.1,15.9,5.6,30,1.8C44.1-2,58.8,3.9,66.5,16z"/>
<path id="Oval-6" class="st0" d="M22,50.8c-0.2-0.2-0.2-0.6,0-0.8c0.2-0.2,0.6-0.2,0.8,0c5.7,5.5,13.9,7.7,21.8,5.6
	c7.8-2.1,13.9-8.1,16-15.8c0.1-0.3,0.4-0.5,0.7-0.4c0.3,0.1,0.5,0.4,0.4,0.7c-2.3,8.1-8.6,14.4-16.9,16.6C36.7,59,28.1,56.7,22,50.8
	z M55.5,16.4c0.2,0.2,0.2,0.6,0,0.8c-0.2,0.2-0.6,0.2-0.8,0c-5.7-5.6-14-7.8-21.8-5.7c-7.9,2.1-13.9,8.2-16,15.8
	c-0.1,0.3-0.4,0.5-0.7,0.4c-0.3-0.1-0.5-0.4-0.4-0.7c2.3-8.1,8.6-14.5,16.9-16.7C40.8,8.2,49.5,10.6,55.5,16.4z"/>
<path id="Rectangle" class="st0" d="M1.8,32.3L70.1,14c1.3-0.3,2.6,0.4,2.9,1.7l4.3,16.2c0.3,1.3-0.4,2.6-1.7,2.9L7.3,53.2
	c-1.3,0.3-2.6-0.4-2.9-1.7L0.1,35.3C-0.3,34,0.5,32.7,1.8,32.3z M2.4,34.7l4.3,16.2l68.4-18.3l-4.3-16.2L2.4,34.7z"/>
<path id="Cancelled" class="st0" d="M17.6,42.9c-2.1,0.6-3.8-0.5-4.5-2.9c-0.6-2.4,0.3-4.2,2.4-4.8c1.7-0.5,3.4,0.3,3.9,1.9
	l-1.5,0.4c-0.4-0.8-1.2-1.2-2.1-0.9c-1.2,0.3-1.6,1.5-1.2,3c0.4,1.5,1.4,2.3,2.6,2c0.9-0.2,1.4-0.9,1.3-1.8l1.5-0.4
	C20.3,41,19.3,42.4,17.6,42.9z M23.7,39.9c0.7-0.2,1.1-0.8,0.9-1.3l-0.1-0.4l-1.1,0.4c-0.6,0.2-0.9,0.5-0.8,0.9
	C22.8,39.9,23.2,40.1,23.7,39.9z M23.5,41.2c-1.1,0.3-2-0.2-2.3-1.2c-0.3-1,0.3-1.8,1.7-2.3l1.3-0.4l-0.1-0.5
	c-0.1-0.5-0.5-0.6-1.1-0.5c-0.5,0.1-0.8,0.4-0.9,0.8l-1.4,0.4c-0.2-1.1,0.6-2,2-2.4c1.5-0.4,2.5,0.1,2.8,1.3l1,3.8l-1.4,0.4
	l-0.2-0.7l-0.1,0C24.8,40.5,24.3,41,23.5,41.2z M28.1,39.8l-1.5-5.6l1.4-0.4l0.2,0.9l0.1,0c0.1-0.7,0.6-1.3,1.5-1.5
	c1.3-0.3,2.2,0.2,2.5,1.6l1,3.6l-1.5,0.4L31,35.6c-0.2-0.8-0.7-1.1-1.4-0.9c-0.7,0.2-1.1,0.8-0.9,1.5l0.9,3.2L28.1,39.8z M38.8,33.1
	l-1.4,0.4c-0.2-0.5-0.7-0.8-1.4-0.6c-0.8,0.2-1.1,0.9-0.8,2c0.3,1.1,0.9,1.6,1.7,1.4c0.6-0.2,0.9-0.6,0.9-1.1l1.4-0.4
	c0.2,1.3-0.5,2.3-1.9,2.7c-1.8,0.5-3-0.3-3.5-2.2c-0.5-1.9,0.2-3.2,2-3.7C37.2,31.3,38.3,31.8,38.8,33.1z M42.1,31.2
	c-0.7,0.2-1,0.8-0.9,1.5l2.4-0.6C43.4,31.3,42.8,31,42.1,31.2z M44.1,33.8l1.4-0.4c0.1,1.1-0.7,2-2.1,2.4c-1.7,0.5-3-0.4-3.5-2.2
	c-0.5-1.8,0.2-3.2,1.9-3.7c1.7-0.4,2.9,0.3,3.4,2.1l0.1,0.5l-3.9,1l0,0.1c0.2,0.8,0.9,1.2,1.6,1C43.7,34.6,44.1,34.3,44.1,33.8z
	 M47.3,34.7L45.2,27l1.5-0.4l2.1,7.8L47.3,34.7z M50.3,33.9l-2.1-7.8l1.5-0.4l2.1,7.8L50.3,33.9z M54.5,27.8c-0.7,0.2-1,0.8-0.9,1.5
	l2.4-0.6C55.8,28,55.2,27.7,54.5,27.8z M56.6,30.5l1.4-0.4c0.1,1.1-0.7,2-2.1,2.4c-1.7,0.5-3-0.4-3.5-2.2c-0.5-1.8,0.2-3.2,1.9-3.7
	c1.7-0.4,2.9,0.3,3.4,2.1l0.1,0.5l-3.9,1l0,0.1c0.2,0.8,0.9,1.2,1.6,1C56.2,31.3,56.5,30.9,56.6,30.5z M61.7,31
	c-1.4,0.4-2.6-0.5-3.1-2.3c-0.5-1.8,0.1-3.1,1.5-3.5c0.8-0.2,1.5,0,1.9,0.5l0.1,0l-0.8-3l1.5-0.4l2.1,7.8l-1.4,0.4l-0.2-0.9l-0.1,0
	C63,30.2,62.4,30.8,61.7,31z M60.9,26.3c-0.8,0.2-1.1,1-0.8,2c0.3,1,0.9,1.5,1.7,1.3c0.8-0.2,1.1-1,0.8-2
	C62.4,26.6,61.7,26.1,60.9,26.3z"/>
</svg>
