<svg id="图层_1" data-name="图层 1" xmlns="http://www.w3.org/2000/svg" viewBox="0 0 129.26 110.07"><defs><style>.cls-1,.cls-2{fill:#774242;}.cls-2{fill-rule:evenodd;}</style></defs><title>unavailable</title><path class="cls-1" d="M110.82,25.62A55,55,0,0,0,9.34,53.09l4,.14a51,51,0,0,1,94.11-25.47ZM18.23,85.05a55,55,0,0,0,101-27l-4-.22a51,51,0,0,1-93.67,25Z" transform="translate(0.04 0.03)"/><path class="cls-1" d="M92.51,26.29A40,40,0,0,0,26.1,44.09a1,1,0,1,0,1.92.54A38,38,0,0,1,91.1,27.69a1,1,0,1,0,1.41-1.4ZM36.78,83.67A40,40,0,0,0,103.1,65.86a1,1,0,0,0-1.89-.65l0,.1a38,38,0,0,1-63,16.92,1,1,0,1,0-1.39,1.44h0Z" transform="translate(0.04 0.03)"/><path class="cls-1" d="M3,52.82l114-30.53a4,4,0,0,1,4.9,2.83h0l7.25,27a4,4,0,0,1-2.83,4.9h0l-114,30.57a4,4,0,0,1-4.9-2.83h0L.1,57.72a4,4,0,0,1,2.84-4.89Zm1,3.86,7.25,27,114-30.54-7.25-27Z" transform="translate(0.04 0.03)"/><path class="cls-2" d="M116.22,45l-4.82,1.29-.69-2.59,4.55-1.22-.47-1.76L110.23,42l-.67-2.48,4.82-1.29-.51-1.9-7,1.89,2.85,10.63,7-1.89Zm-8.74,2.3-4.73,1.27-2.33-8.69-2.22.6L101,51.13l7-1.86ZM92.69,51.54l2-.53c1.28-.34,1.83-1.07,1.56-2.06s-1.11-1.3-2.42-.95l-1.93.52Zm-1.94-7.23.72,2.7,1.67-.45c1.2-.32,1.72-1,1.5-1.85s-1-1.19-2-.91Zm4.94,8.25-4.77,1.28L88.07,43.21,92.72,42c2.06-.55,3.56.13,4,1.77a2.38,2.38,0,0,1-1.31,2.78l0,.13a2.62,2.62,0,0,1,3.11,1.88C99.05,50.4,98,52,95.69,52.56ZM82,47.19l-.22,4.53L84.62,51l-2.44-3.82Zm5,7.69-1.48-2.32-3.74,1-.14,2.75-2.23.6.84-11.62,2.62-.7,6.54,9.64Zm-9,.34-4.73,1.27L70.94,47.8l-2.22.6L71.56,59l7-1.86Zm-8.68,4.4L66.47,49l-2.22.6L67.1,60.22ZM58.23,53.57,58,58.1l2.78-.75-2.44-3.82Zm5,7.69-1.48-2.32-3.74,1-.14,2.75-2.23.6.84-11.62,2.62-.7,6.54,9.64ZM52.32,64.18l-2.69.72-6.44-9.67,2.51-.67L50.29,62l.13,0,.19-8.76L53,52.6ZM38.88,58.76l-.22,4.53,2.78-.75L39,58.72Zm5,7.69-1.48-2.32-3.74,1-.14,2.75-2.23.6.84-11.62,2.62-.7,6.54,9.64Zm-16,4.27-1.78-6.65.13,0,6.69,5.34,1.84-.49L31.94,58.25l-2.13.57,1.77,6.62-.13,0-6.67-5.31-1.86.5,2.85,10.63ZM14,63.06l-2.22.6,1.87,7c.63,2.36,2.79,3.48,5.51,2.75s4-2.78,3.4-5.14l-1.87-7-2.22.6,1.8,6.73a2.11,2.11,0,0,1-1.64,2.79,2.11,2.11,0,0,1-2.81-1.6Z" transform="translate(0.04 0.03)"/></svg>