<?xml version="1.0" encoding="utf-8"?>
<!-- Generator: Adobe Illustrator 23.0.2, SVG Export Plug-In . SVG Version: 6.00 Build 0)  -->
<svg version="1.1" id="图层_1" xmlns="http://www.w3.org/2000/svg" xmlns:xlink="http://www.w3.org/1999/xlink" x="0px" y="0px"
	 viewBox="0 0 14 13" style="enable-background:new 0 0 14 13;" xml:space="preserve">
<style type="text/css">
	.st0{fill:#FFFFFF;}
</style>
<path id="形状" class="st0" d="M1.6,5.7l0.6,4.4c0,0.3,0.3,0.6,0.7,0.6H11c0.3,0,0.6-0.2,0.7-0.6l0.8-4.3c0-0.2-0.1-0.3-0.2-0.3
	c-0.1,0-0.2,0-0.2,0.1L10,6.9C9.9,7,9.7,7,9.6,6.8L7.3,3.7C7.2,3.6,7,3.5,6.8,3.6c0,0,0,0-0.1,0.1l-2.4,3C4.3,6.8,4.2,6.8,4,6.7
	L2,5.4C1.9,5.3,1.7,5.4,1.6,5.5C1.6,5.6,1.5,5.6,1.6,5.7z"/>
<ellipse id="椭圆形" class="st0" cx="7" cy="1.7" rx="1" ry="1"/>
<ellipse id="椭圆形-copy-11" class="st0" cx="0.8" cy="4" rx="1" ry="1"/>
<ellipse id="椭圆形-copy-12" class="st0" cx="13.2" cy="4" rx="1" ry="1"/>
<path id="路径-2" class="st0" d="M2.7,12.4c-0.2,0-0.3-0.2-0.3-0.5c0-0.3,0.1-0.5,0.3-0.5h8.7c0.2,0,0.3,0.2,0.3,0.5
	c0,0.3-0.1,0.5-0.3,0.5H2.7z"/>
</svg>
