<svg id="图层_1" data-name="图层 1" xmlns="http://www.w3.org/2000/svg" viewBox="0 0 164.65 174.63"><title>删除</title><path d="M177.33,41.79H22.67a5,5,0,0,1,0-10H177.33a5,5,0,0,1,0,10Zm-49.89-20H72.56a5,5,0,1,1,0-10h54.88a5,5,0,1,1,0,10ZM77.55,151.55V66.74a5,5,0,1,1,10,0v84.82a5,5,0,1,1-10,0Zm34.92,0V66.74a5,5,0,1,1,10,0v84.82a5,5,0,1,1-10,0ZM42.62,56.76a5,5,0,0,1,5,5V166.52a10,10,0,0,0,10,10h84.82a10,10,0,0,0,10-10V61.75a5,5,0,0,1,10,0V171.51a15,15,0,0,1-15,15H52.6a15,15,0,0,1-15-15V61.75a5,5,0,0,1,5-5Z" transform="translate(-17.68 -11.85)"/></svg>