<?xml version="1.0" encoding="UTF-8"?>
<svg width="10px" height="10px" viewBox="0 0 10 10" version="1.1" xmlns="http://www.w3.org/2000/svg" xmlns:xlink="http://www.w3.org/1999/xlink">
    <!-- Generator: Sketch 60.1 (88133) - https://sketch.com -->
    <title>icon/drop down copy</title>
    <desc>Created with Sketch.</desc>
    <g id="四期" stroke="none" stroke-width="1" fill="none" fill-rule="evenodd">
        <g id="【单品】PC单品相关页面---心愿清单10.20" transform="translate(-1096.000000, -1587.000000)" fill="#FF2D55">
            <g id="编组-5备份-5" transform="translate(1093.000000, 1583.000000)">
                <g id="icon/close" transform="translate(0.000000, 1.000000)">
                    <g id="Group-Copy-3" transform="translate(7.838835, 7.838835) rotate(45.000000) translate(-7.838835, -7.838835) translate(1.838835, 1.338835)">
                        <path d="M6,0.5 C6.55228475,0.5 7,0.94771525 7,1.5 L7,5.499 L11,5.5 C11.5522847,5.5 12,5.94771525 12,6.5 C12,7.05228475 11.5522847,7.5 11,7.5 L7,7.499 L7,11.5 C7,12.0522847 6.55228475,12.5 6,12.5 C5.44771525,12.5 5,12.0522847 5,11.5 L5,7.499 L1,7.5 C0.44771525,7.5 2.13162821e-13,7.05228475 2.13162821e-13,6.5 C2.13162821e-13,5.94771525 0.44771525,5.5 1,5.5 L5,5.499 L5,1.5 C5,0.94771525 5.44771525,0.5 6,0.5 Z" id="Combined-Shape"></path>
                    </g>
                </g>
            </g>
        </g>
    </g>
</svg>