<?xml version="1.0" encoding="utf-8"?>
<!-- Generator: Adobe Illustrator 23.0.2, SVG Export Plug-In . SVG Version: 6.00 Build 0)  -->
<svg version="1.1" id="图层_1" xmlns="http://www.w3.org/2000/svg" xmlns:xlink="http://www.w3.org/1999/xlink" x="0px" y="0px"
	 viewBox="0 0 13 14" style="enable-background:new 0 0 13 14;" xml:space="preserve">
<style type="text/css">
	.st0{fill:#9E9E9E;}
	.st1{fill:#FFFFFF;}
</style>
<path id="形状" class="st0" d="M11.8,4.1c0,0-0.6-0.2-1.1-0.6c-0.5-0.3-1.1-0.9-1.2-1.6l0,0l0,0c0,0-0.3-0.8-1.3-0.8H3.9
	C2.9,1,2.6,1.8,2.6,1.8l0,0l0,0C2.5,2.6,1.9,3.1,1.4,3.5C0.8,3.9,0.3,4.1,0.3,4.1L0.1,4.2l0,0.2c0.2,3.9,0.6,4.9,0.7,5l0,0
	c0.3,0.7,0.8,1.3,1.4,1.9c0.5,0.5,1.1,1,1.7,1.4c1.1,0.7,2,1.1,2.1,1.1L6.1,14l0.1-0.1c0,0,1-0.4,2.1-1.1c0.6-0.4,1.2-0.9,1.7-1.4
	c0.6-0.6,1.1-1.3,1.4-1.9l0,0c0-0.1,0.5-1.1,0.7-5l0-0.2L11.8,4.1z"/>
<path class="st1" d="M5.9,2.9h0.6v0.7c0.5,0,1,0.2,1.3,0.5c0.4,0.3,0.6,0.8,0.7,1.4h-1C7.5,5.1,7.3,4.9,7.1,4.7
	C6.9,4.6,6.7,4.5,6.5,4.5v2.1C7.2,6.8,7.5,6.9,7.6,7c0.6,0.4,0.9,0.8,0.9,1.5c0,0.6-0.2,1.1-0.7,1.4c-0.4,0.2-0.8,0.4-1.4,0.4v0.8
	H5.9v-0.8c-0.6,0-1.1-0.2-1.4-0.5C4.2,9.4,3.9,8.9,3.9,8.1h1c0,0.5,0.2,0.8,0.4,1c0.2,0.2,0.4,0.3,0.7,0.3V7.3l-1-0.4
	C4.3,6.6,4,6.1,4,5.4c0-0.6,0.2-1,0.7-1.4C5,3.8,5.4,3.7,5.9,3.7V2.9z M5.9,4.5c-0.3,0-0.5,0.1-0.6,0.2C5.1,4.8,5,5.1,5,5.4
	c0,0.4,0.3,0.7,0.9,0.9c0,0,0,0,0,0V4.5z M6.5,9.5c0.3,0,0.5-0.1,0.7-0.2c0.3-0.2,0.4-0.4,0.4-0.7c0-0.4-0.3-0.7-0.9-1
	c-0.1,0-0.1,0-0.2-0.1V9.5z"/>
</svg>
