<?xml version="1.0" encoding="utf-8"?>
<!-- Generator: Adobe Illustrator 22.1.0, SVG Export Plug-In . SVG Version: 6.00 Build 0)  -->
<svg version="1.1" id="图层_1" xmlns="http://www.w3.org/2000/svg" xmlns:xlink="http://www.w3.org/1999/xlink" x="0px" y="0px"
	 viewBox="0 0 16 16" style="enable-background:new 0 0 16 16;" xml:space="preserve">
<style type="text/css">
	.st0{fill:#164AB0;}
</style>
<path id="Rectangle" class="st0" d="M3.8,3.8L3.8,3.8c0.2-0.2,0.5-0.2,0.7,0l7.8,7.8c0.2,0.2,0.2,0.5,0,0.7l0,0
	c-0.2,0.2-0.5,0.2-0.7,0L3.8,4.5C3.6,4.3,3.6,4,3.8,3.8z"/>
<path id="Shape" class="st0" d="M8,4.6c-0.2,0.2-0.5,0.2-0.7,0c-0.2-0.2-0.2-0.5,0-0.7l0.4-0.4c1.4-1.4,3.6-1.4,4.9,0s1.4,3.6,0,4.9
	l-0.5,0.5c-0.2,0.2-0.5,0.2-0.7,0c-0.2-0.2-0.2-0.5,0-0.7l0.5-0.5c1-1,1-2.6,0-3.5s-2.6-1-3.5,0L8,4.6z M8.1,11.5
	c0.2-0.2,0.5-0.2,0.7,0C9,11.7,9,12,8.8,12.2l-0.5,0.5C7,14,4.8,14,3.4,12.7S2,9.1,3.4,7.7l0.5-0.5C4.1,7,4.4,7,4.6,7.2
	c0.2,0.2,0.2,0.5,0,0.7L4.1,8.4c-1,1-1,2.6,0,3.5s2.6,1,3.5,0L8.1,11.5z"/>
</svg>
