<?xml version="1.0" encoding="UTF-8"?>
<svg width="17px" height="17px" viewBox="0 0 17 17" version="1.1" xmlns="http://www.w3.org/2000/svg" xmlns:xlink="http://www.w3.org/1999/xlink">
    <!-- Generator: Sketch 63.1 (92452) - https://sketch.com -->
    <title>icon/discount</title>
    <desc>Created with Sketch.</desc>
    <g id="页面-1" stroke="none" stroke-width="1" fill="none" fill-rule="evenodd">
        <g id="显示信息多情况" transform="translate(-208.000000, -160.000000)" fill="#FD5E29">
            <g id="编组-20" transform="translate(120.000000, 144.000000)">
                <g id="icon/discount" transform="translate(88.000000, 16.000000)">
                    <g id="编组">
                        <path d="M15.5427907,7.60089901 L8.87829898,1.29516571 C8.66998342,1.09812799 8.38475439,0.991473626 8.09035515,1.00053354 L2.27613948,1.17822018 C1.71461872,1.19535292 1.26363349,1.62206101 1.245526,2.15335436 L1.05746368,7.65458306 C1.04798454,7.93311858 1.16069233,8.20295847 1.36885866,8.40011082 L8.03335042,14.7058441 C8.45012794,15.098052 9.12346885,15.098052 9.54024637,14.7058441 L15.5425244,9.02667675 C15.957266,8.63246122 15.957385,7.99525326 15.5427907,7.60089901 L15.5427907,7.60089901 Z M6.24780489,5.91154973 C5.81646084,6.31959543 5.18780387,6.47891693 4.59864297,6.32949938 C4.00948207,6.18008182 3.5493248,5.74462528 3.39150794,5.18716203 C3.23369108,4.62969877 3.40219078,4.03492073 3.83353482,3.62687503 C4.50033494,2.99609103 5.581336,2.99618142 6.24801827,3.62707692 C6.91470054,4.25797241 6.914605,5.28076573 6.24780489,5.91154973 L6.24780489,5.91154973 Z" id="Shape"></path>
                    </g>
                </g>
            </g>
        </g>
    </g>
</svg>