<?xml version="1.0" encoding="utf-8"?>
<!-- Generator: Adobe Illustrator 22.1.0, SVG Export Plug-In . SVG Version: 6.00 Build 0)  -->
<svg version="1.1" id="图层_1" xmlns="http://www.w3.org/2000/svg" xmlns:xlink="http://www.w3.org/1999/xlink" x="0px" y="0px"
	 viewBox="0 0 16 16" style="enable-background:new 0 0 16 16;" xml:space="preserve">
<style type="text/css">
	.st0{fill:#FF2D55;}
</style>
<g id="icon_x2F_discount">
	<g id="Shape" transform="translate(3.000000, 3.000000)">
		<path class="st0" d="M9.8,4.7L5.3,0.2C5.1,0.1,5,0,4.8,0L0.8,0.1c-0.4,0-0.7,0.3-0.7,0.7L0,4.7c0,0.2,0.1,0.4,0.2,0.5l4.5,4.5
			c0.3,0.3,0.7,0.3,1,0l4-4.1C10.1,5.4,10.1,5,9.8,4.7z M2.6,2.6C2.5,2.8,2.2,2.9,1.9,2.8C1.7,2.7,1.5,2.6,1.4,2.3
			c-0.1-0.2,0-0.5,0.2-0.7c0.3-0.3,0.7-0.3,1,0S2.9,2.3,2.6,2.6z"/>
	</g>
</g>
</svg>
