<?xml version="1.0" encoding="utf-8"?>
<!-- Generator: Adobe Illustrator 23.0.2, SVG Export Plug-In . SVG Version: 6.00 Build 0)  -->
<svg version="1.1" id="图层_1" xmlns="http://www.w3.org/2000/svg" xmlns:xlink="http://www.w3.org/1999/xlink" x="0px" y="0px"
	 viewBox="0 0 10 12" style="enable-background:new 0 0 10 12;" xml:space="preserve">
<style type="text/css">
	.st0{fill:#919191;}
</style>
<path class="st0" d="M6.4,10.1V12L9,9.7H6.8C6.6,9.7,6.4,9.9,6.4,10.1L6.4,10.1z M8.6,1H0.4C0.2,1,0,1.3,0,1.5v10.1
	C0,11.8,0.2,12,0.4,12H6V9.7c0-0.2,0.2-0.4,0.4-0.4H9V1.4C9,1.3,8.8,1,8.6,1z M1.9,8.7c-0.3,0-0.5-0.2-0.5-0.5s0.2-0.5,0.5-0.5
	s0.5,0.2,0.5,0.5C2.4,8.5,2.2,8.7,1.9,8.7L1.9,8.7z M1.9,6.4c-0.3,0-0.5-0.2-0.5-0.5c0-0.3,0.2-0.5,0.5-0.5s0.5,0.2,0.5,0.5
	C2.4,6.2,2.2,6.4,1.9,6.4L1.9,6.4z M1.9,4.1c-0.3,0-0.5-0.2-0.5-0.5s0.2-0.5,0.5-0.5s0.5,0.2,0.5,0.5C2.4,3.9,2.2,4.1,1.9,4.1
	L1.9,4.1z M7.2,8.3c0,0.1-0.1,0.2-0.2,0.2H3.4c-0.1,0-0.2-0.1-0.2-0.2V8c0-0.1,0.1-0.2,0.2-0.2H7c0.1,0,0.2,0.1,0.2,0.2V8.3z M7.2,6
	c0,0.1-0.1,0.2-0.2,0.2H3.4C3.3,6.2,3.2,6.1,3.2,6V5.8c0-0.1,0.1-0.2,0.2-0.2H7c0.1,0,0.2,0.1,0.2,0.2V6z M7.2,3.7
	C7.2,3.9,7.1,4,7,4H3.4C3.3,4,3.2,3.9,3.2,3.7V3.5c0-0.1,0.1-0.2,0.2-0.2H7c0.1,0,0.2,0.1,0.2,0.2V3.7z M9.6,0H1.3
	C1,0,0.8,0.3,0.8,0.6H9c0.2,0,0.4,0.2,0.4,0.4v7.7c0.3,0,0.6-0.2,0.6-0.5V0.4C10,0.2,9.8,0,9.6,0z"/>
</svg>
