<?xml version="1.0" encoding="utf-8"?>
<!-- Generator: Adobe Illustrator 23.0.1, SVG Export Plug-In . SVG Version: 6.00 Build 0)  -->
<svg version="1.1" id="图层_1" xmlns="http://www.w3.org/2000/svg" xmlns:xlink="http://www.w3.org/1999/xlink" x="0px" y="0px"
	 viewBox="0 0 40 40" style="enable-background:new 0 0 40 40;" xml:space="preserve">
<style type="text/css">
	.st0{fill-rule:evenodd;clip-rule:evenodd;fill:#5E636B;}
</style>
<g id="Page-1">
	<g id="地标页备份" transform="translate(-67.000000, -1235.000000)">
		<g id="Dock" transform="translate(51.000000, 1221.000000)">
			<g id="icon_Dock" transform="translate(16.000000, 14.000000)">
				<path id="形状结合" class="st0" d="M20.6,7.6c0.4,0,0.6,0.3,0.6,0.6l0,0l0,4.8h0.2c0.4,0,0.6,0.3,0.6,0.6l0,0v10.6
					c0.2,0,0.4-0.1,0.5-0.1c0.2-0.1,0.5,0.1,0.5,0.3l0,0v1.4c0.2,0,0.5,0,0.7,0c1.2-0.1,2.2-0.2,3-0.5c0.2-0.1,0.4-0.1,0.6-0.2
					c0.2-0.1,0.3-0.2,0.5-0.3c0.3-0.2,0.6-0.4,0.9-0.8c0.2-0.3,0.4-0.6,0.6-1l0,0h-1.2c-0.3,0-0.5-0.2-0.5-0.5c0-0.2,0-0.4,0-0.6
					c0-2.3,2.3-4.3,3.3-5c0.2-0.2,0.6-0.2,0.8,0c0.9,0.7,3.3,2.7,3.3,5c0,0.2,0,0.4,0,0.6c0,0.3-0.3,0.5-0.5,0.5l0,0h-1.6
					c0,0.1,0,0.2,0,0.4c0,0.8-0.1,1.6-0.4,2.4c-0.3,0.8-0.8,1.6-1.4,2.3c-0.3,0.3-0.7,0.7-1,0.9c-0.4,0.3-0.8,0.5-1.2,0.7
					c-0.4,0.2-0.8,0.4-1.2,0.5l0,0l-0.2,0.1l-2.2,4.1C25,34.8,24.7,35,24.3,35l0,0h-8.6c-0.4,0-0.8-0.2-0.9-0.6l0,0l-2.2-4.1l0,0
					l-0.2-0.1c-0.4-0.1-0.8-0.3-1.2-0.5c-0.4-0.2-0.8-0.4-1.2-0.7c-0.4-0.3-0.7-0.6-1-0.9c-0.6-0.7-1.1-1.5-1.4-2.3
					c-0.3-0.8-0.4-1.6-0.4-2.4c0-0.1,0-0.2,0-0.4l0,0H5.6C5.3,23,5,22.9,5,22.6c0-0.2,0-0.4,0-0.6c0-2.3,2.3-4.3,3.3-5
					c0.2-0.2,0.6-0.2,0.8,0c0.9,0.7,3.3,2.7,3.3,5c0,0.2,0,0.4,0,0.6c0,0.3-0.3,0.5-0.5,0.5l0,0h-1.2c0.2,0.4,0.4,0.7,0.6,1
					c0.3,0.3,0.6,0.6,0.9,0.8c0.2,0.1,0.3,0.2,0.5,0.3c0.2,0.1,0.4,0.2,0.6,0.2c0.8,0.3,1.9,0.4,3,0.5c0.2,0,0.5,0,0.7,0l0,0v-1.4
					c0-0.2,0.2-0.4,0.5-0.3c0,0,0,0,0,0l0,0V13.7c0-0.3,0.3-0.6,0.6-0.6l0,0h0.2l0-4.8c0-0.3,0.3-0.6,0.6-0.6l0,0H20.6z M20.4,1
					c2.3,0,4.2,1.8,4.2,4.1l0,0v6.1c0,0.7-0.6,1.3-1.3,1.3c-0.7,0-1.3-0.6-1.3-1.3l0,0V5.1c0-0.8-0.7-1.5-1.5-1.5l0,0h-1.4
					c-0.8,0-1.5,0.7-1.5,1.5l0,0v6.1c0,0.7-0.6,1.3-1.3,1.3c-0.7,0-1.3-0.6-1.3-1.3l0,0V5.1c0-2.3,1.9-4.1,4.2-4.1l0,0H20.4z"/>
			</g>
		</g>
	</g>
</g>
</svg>
