<svg id="图层_1" data-name="图层 1" xmlns="http://www.w3.org/2000/svg" viewBox="0 0 22 22"><defs><style>.cls-1{fill:#215fb2;}</style></defs><title>提车单打勾</title><path class="cls-1" d="M17.5,3.77A11,11,0,0,0,8.12,20.53a1,1,0,0,0,1.7-1A9,9,0,1,1,12,21.86a1,1,0,1,0-1.23,1.57A11,11,0,1,0,17.5,3.77Z" transform="translate(-6.5 -3.77)"/><path class="cls-1" d="M15.17,19.26a1,1,0,0,0,.17.1,1,1,0,0,0,.19,0,1,1,0,0,0,.19,0,1,1,0,0,0,.19,0,1,1,0,0,0,.18,0,1,1,0,0,0,.16-.11,1,1,0,0,0,.14-.1l6.28-6.46a1,1,0,1,0-1.43-1.39L15.62,17l-1.93-1.68a1,1,0,1,0-1.31,1.51L15,19.17A1,1,0,0,0,15.17,19.26Z" transform="translate(-6.5 -3.77)"/></svg>