<?xml version="1.0" encoding="UTF-8"?>
<svg width="21px" height="20px" viewBox="0 0 21 20" version="1.1" xmlns="http://www.w3.org/2000/svg" xmlns:xlink="http://www.w3.org/1999/xlink">
    <!-- Generator: Sketch 63.1 (92452) - https://sketch.com -->
    <title>icon/doors</title>
    <desc>Created with Sketch.</desc>
    <g id="页面-1" stroke="none" stroke-width="1" fill="none" fill-rule="evenodd">
        <g id="显示信息多情况" transform="translate(-741.000000, -255.000000)" fill="#222222" fill-rule="nonzero">
            <g id="编组-14备份" transform="translate(398.000000, 144.000000)">
                <g id="分销">
                    <g id="Group-13" transform="translate(244.000000, 110.000000)">
                        <g id="Group-27-Copy" transform="translate(99.600000, 1.000000)">
                            <g id="icon/doors">
                                <g id="Shape">
                                    <path d="M2.51236846,9.72439829 C2.46917965,9.56688919 2.53830679,9.35392244 2.7321958,9.11778355 L6.41520701,4.63221645 C6.81526586,4.14498176 7.59471995,3.75 8.14961584,3.75 L16.4899618,3.75 C17.0477905,3.75 17.5,4.30464581 17.5,4.99975936 L17.5,15.3412486 C17.5,15.8431381 17.0484218,16.25 16.4834897,16.25 L3.51651028,16.25 C2.95510715,16.25 2.5,15.8370763 2.5,15.3412486 L2.5,9.86708476 C2.5,9.81853949 2.50422484,9.77088327 2.51236846,9.72439829 Z M16.4834897,8.95833333 L16.484375,4.79166667 L8.18799356,4.79166667 C7.90138211,4.79166667 7.38095138,5.08663001 7.17228331,5.3701337 L4.53125,8.95833333 L16.4834897,8.95833333 Z M11.1829521,11.2448266 C11.1829521,11.8241341 11.641923,12.2864933 12.2080923,12.2864933 L14.4428673,12.2864933 C15.017727,12.2864933 15.4680076,11.8201232 15.4680076,11.2448266 L15.46875,10 L11.1836945,10 L11.1829521,11.2448266 Z"></path>
                                </g>
                            </g>
                        </g>
                    </g>
                </g>
            </g>
        </g>
    </g>
</svg>