<svg id="图层_1" data-name="图层 1" xmlns="http://www.w3.org/2000/svg" viewBox="0 0 15.99 15.97"><defs><style>.cls-1{fill:#18b0df;}</style></defs><title>编辑</title><path class="cls-1" d="M57,50.93h1v7.85a2.25,2.25,0,0,1-.61,1.56,2,2,0,0,1-1.46.64H44.07a2,2,0,0,1-1.46-.64A2.25,2.25,0,0,1,42,58.78V47.2a2.25,2.25,0,0,1,.61-1.56A2,2,0,0,1,44.07,45h8.65v1H44.07A1.15,1.15,0,0,0,43,47.2V58.78A1.15,1.15,0,0,0,44.07,60H55.92A1.15,1.15,0,0,0,57,58.78V50.93Zm-9.21,6.19,10-11.3-.74-.8-10,11.29Z" transform="translate(-42 -45)"/></svg>