<?xml version="1.0" encoding="utf-8"?>
<!-- Generator: Adobe Illustrator 24.0.1, SVG Export Plug-In . SVG Version: 6.00 Build 0)  -->
<svg version="1.1" id="图层_1" xmlns="http://www.w3.org/2000/svg" xmlns:xlink="http://www.w3.org/1999/xlink" x="0px" y="0px"
	 viewBox="0 0 24 16" style="enable-background:new 0 0 24 16;" xml:space="preserve">
<style type="text/css">
	.st0{fill:#3570E6;}
</style>
<path id="形状" class="st0" d="M20.6,0H2.5C1.1,0,0,1.1,0,2.4v11.1c0,1.3,1.1,2.4,2.4,2.4h18.2c1.3,0,2.4-1.1,2.4-2.4V2.4
	C23.1,1.1,22,0,20.6,0z M22.1,2.4v11.1c0,0.2-0.1,0.4-0.1,0.6l-6.3-6.3l6.2-6.2C22,1.9,22.1,2.2,22.1,2.4L22.1,2.4z M20.6,1
	c0.2,0,0.3,0.1,0.5,0.1h-0.1l-8.5,8.6c-0.5,0.5-1.5,0.5-2.1,0L2,1.1H2c0.1-0.1,0.3-0.1,0.5-0.1L20.6,1L20.6,1z M1.1,14.1
	C1.1,13.9,1,13.8,1,13.6V2.4c0-0.3,0.1-0.6,0.3-0.8l6.2,6.2L1.1,14.1L1.1,14.1z M2.5,15c-0.3,0-0.5-0.1-0.7-0.2l6.3-6.3l1.8,1.8
	c0.5,0.5,1,0.7,1.7,0.7c0.6,0,1.2-0.3,1.7-0.7L15,8.6l6.3,6.3c-0.2,0.1-0.5,0.2-0.7,0.2L2.5,15L2.5,15L2.5,15z"/>
</svg>
