<svg id="图层_1" data-name="图层 1" xmlns="http://www.w3.org/2000/svg" viewBox="0 0 30 20.4"><defs><style>.cls-1{fill:#040000;}.cls-2{fill:#060404;}</style></defs><title>email</title><path class="cls-1" d="M45.7,25.4,33.1,34.8a2.11,2.11,0,0,1-2.4,0L18.2,25.4A.79.79,0,0,0,17,26V42.3a1.56,1.56,0,0,0,1.6,1.5H45.4A1.5,1.5,0,0,0,47,42.3V26A.84.84,0,0,0,45.7,25.4Z" transform="translate(-17 -23.4)"/><path class="cls-2" d="M20.3,24.3l10.6,8a2.11,2.11,0,0,0,2.4,0l10.4-8c.7-.5.5-.9-.3-.9H20.6C19.7,23.5,19.5,23.8,20.3,24.3Z" transform="translate(-17 -23.4)"/></svg>