<svg id="图层_1" data-name="图层 1" xmlns="http://www.w3.org/2000/svg" viewBox="0 0 24 24"><defs><style>.cls-1{fill:#18b0df;}</style></defs><title>邮件底部手机版</title><rect class="cls-1" x="7.77" y="5.53" width="8.45" height="12.55"/><ellipse class="cls-1" cx="12.11" cy="19.89" rx="0.96" ry="0.95"/><path class="cls-1" d="M13.22,6.7h1.91a.32.32,0,1,0,0-.63H13.22a.32.32,0,1,0,0,.63Z" transform="translate(-2.06 -2.33)"/><path class="cls-1" d="M23.4,2.33H4.73A2.67,2.67,0,0,0,2.06,5V23.67a2.67,2.67,0,0,0,2.67,2.67H23.4a2.67,2.67,0,0,0,2.67-2.67V5A2.67,2.67,0,0,0,23.4,2.33ZM19.06,22.22a1.62,1.62,0,0,1-1.6,1.61H10.67a1.62,1.62,0,0,1-1.6-1.61V6.41a1.59,1.59,0,0,1,1.6-1.58h6.79a1.59,1.59,0,0,1,1.6,1.58Z" transform="translate(-2.06 -2.33)"/></svg>