<svg id="图层_1" data-name="图层 1" xmlns="http://www.w3.org/2000/svg" viewBox="0 0 13.78 5.93"><defs><style>.cls-1{fill:#164ab0;fill-rule:evenodd;}</style></defs><title>etc</title><path class="cls-1" d="M39.33,37.93c-1.63,0-2.64-1.13-2.64-3s1-3,2.64-3a2.33,2.33,0,0,1,2.45,2.11H40.63A1.26,1.26,0,0,0,39.33,33c-.88,0-1.43.73-1.43,1.92s.55,1.93,1.44,1.93a1.25,1.25,0,0,0,1.3-1h1.14A2.28,2.28,0,0,1,39.33,37.93ZM35,37.79H33.79V33.16H32.1v-1h4.56v1H35Zm-3.24-1H29.18V35.41h2.41v-.94H29.18V33.16h2.55v-1H28v5.64h3.73Z" transform="translate(-28 -32)"/></svg>