<?xml version="1.0" encoding="utf-8"?>
<!-- Generator: Adobe Illustrator 25.0.0, SVG Export Plug-In . SVG Version: 6.00 Build 0)  -->
<svg version="1.1" id="图层_1" xmlns="http://www.w3.org/2000/svg" xmlns:xlink="http://www.w3.org/1999/xlink" x="0px" y="0px"
	 viewBox="0 0 22 23" style="enable-background:new 0 0 22 23;" xml:space="preserve">
<style type="text/css">
	.st0{fill:#FFFFFF;}
</style>
<path id="三角形" class="st0" d="M21.8,22.5L11,0.9L0.2,22.5H21.8z M11,3.1l9.2,18.4H1.8L11,3.1z"/>
<path id="_xFF01_" class="st0" d="M11.5,16.8l0.4-7.8H9.8l0.4,7.8H11.5z M10.8,20c0.3,0,0.6-0.1,0.9-0.3c0.2-0.2,0.3-0.5,0.3-0.8
	c0-0.3-0.1-0.6-0.3-0.8c-0.2-0.2-0.5-0.3-0.9-0.3S10.2,17.8,10,18c-0.2,0.2-0.4,0.5-0.4,0.8c0,0.3,0.1,0.6,0.4,0.8
	C10.2,19.9,10.5,20,10.8,20z"/>
</svg>
