<svg id="图层_1" data-name="图层 1" xmlns="http://www.w3.org/2000/svg" viewBox="0 0 28 17.85"><defs><style>.cls-1{fill:#137fc4;}</style></defs><title>exclusive</title><path class="cls-1" d="M45,26H21a2,2,0,0,0-2,2V38a2,2,0,0,0,2,2h8a8.4,8.4,0,0,0-.13-.92L27.84,28.85h0l1.8,1.2,2.09,1.38,1.51,1,2,1.33L37,34.88,38.6,36l1.26.83,2,1.31.38.25a.74.74,0,0,1-.24.05c-.36,0-.72.08-1.08.14s-.62.1-.92.18-.48.09-.72.15-.76.18-1.14.29c-.55.15-1.09.34-1.62.54-.07,0-.06.06,0,.11l.13.18H45a2,2,0,0,0,2-2V28A2,2,0,0,0,45,26Z" transform="translate(-19 -26)"/><path class="cls-1" d="M36.52,40.5l-.84-1.13-.54-.74s0-.05,0-.07c.36-.14.73-.26,1.1-.36L37,38l.49-.1.62-.12c.24,0,.49-.08.73-.09a.51.51,0,0,0,.16,0l-.25-.16-1.33-.85-.85-.54-1.11-.71-1.13-.72L33,33.83l-1-.65-1.41-.9-1.21-.78h0l.7,6.67s.48,4.31.48,4.33,0,0,0,0,0,0,0,0a3.91,3.91,0,0,1,.21-.33l.15-.22.43-.55c.2-.24.4-.47.62-.69a8.41,8.41,0,0,1,.73-.69l.39-.31s.06,0,.09,0l.57,1,.42.74c.19.33.38.67.57,1s.29.55.47.8a1.28,1.28,0,0,0,.74.5.9.9,0,0,0,.26,0s0,0,0,0l.35,0s0,0,0,0a1.4,1.4,0,0,0,.7-2.18Z" transform="translate(-19 -26)"/></svg>