<?xml version="1.0" encoding="utf-8"?>
<!-- Generator: Adobe Illustrator 23.0.1, SVG Export Plug-In . SVG Version: 6.00 Build 0)  -->
<svg version="1.1" id="图层_1" xmlns="http://www.w3.org/2000/svg" xmlns:xlink="http://www.w3.org/1999/xlink" x="0px" y="0px"
	 viewBox="0 0 40 40" style="enable-background:new 0 0 40 40;" xml:space="preserve">
<style type="text/css">
	.st0{fill-rule:evenodd;clip-rule:evenodd;fill:#5E636B;}
</style>
<g id="Page-1">
	<g id="地标页备份" transform="translate(-67.000000, -899.000000)">
		<g id="Exhibition-Center" transform="translate(51.000000, 885.000000)">
			<g id="icon_Exhibition-Center" transform="translate(16.000000, 14.000000)">
				<g id="icon" transform="translate(3.000000, 3.000000)">
					<path id="形状结合" class="st0" d="M25.4,15.5c1.7,0,3,1.4,3,3c0,0.5-0.1,1-0.4,1.5c1.2,2.2,3.3,3.5,5.8,3.5l0,0v2
						c-1.5,0-3-0.4-4.3-1.2c-0.6-0.4-1.2-0.8-1.8-1.4l0,0v8H29v2h-7.1v-2h1.2v-8c-0.5,0.5-1.1,1-1.8,1.4c-1.3,0.8-2.8,1.2-4.3,1.2
						c-1.5,0-3-0.4-4.3-1.2C12,24,11.4,23.5,10.9,23l0,0v8H12v2H4.9v-2h1.2v-8c-0.5,0.5-1.1,1-1.8,1.4C3,25.1,1.5,25.5,0,25.5l0,0
						v-2c2.5,0,4.6-1.3,5.8-3.5c-0.2-0.4-0.4-0.9-0.4-1.5c0-1.7,1.4-3,3-3c1.7,0,3,1.4,3,3c0,0.5-0.1,1-0.4,1.5
						c1.2,2.2,3.3,3.5,5.8,3.5s4.6-1.3,5.8-3.5c-0.2-0.4-0.4-0.9-0.4-1.5C22.4,16.9,23.8,15.5,25.4,15.5z M17,0l4.2,4.2h3.7v10.3
						H9.1V4.2h3.7L17,0z M17,2.8l-1.3,1.3h2.7L17,2.8z"/>
				</g>
			</g>
		</g>
	</g>
</g>
</svg>
