<svg id="图层_1" data-name="图层 1" xmlns="http://www.w3.org/2000/svg" viewBox="0 0 129.26 110.07"><defs><style>.cls-1,.cls-2{fill:#774242;}.cls-2{fill-rule:evenodd;}</style></defs><title>expired</title><path class="cls-1" d="M110.82,25.62A55,55,0,0,0,9.34,53.09l4,.14a51,51,0,0,1,94.11-25.47ZM18.23,85.05a55,55,0,0,0,101-27l-4-.22a51,51,0,0,1-93.67,25Z" transform="translate(0.04 0.03)"/><path class="cls-1" d="M92.51,26.29A40,40,0,0,0,26.1,44.09a1,1,0,1,0,1.92.54A38,38,0,0,1,91.1,27.69a1,1,0,1,0,1.41-1.4ZM36.78,83.67A40,40,0,0,0,103.1,65.86a1,1,0,0,0-1.89-.65l0,.1a38,38,0,0,1-63,16.92,1,1,0,1,0-1.39,1.44h0Z" transform="translate(0.04 0.03)"/><path class="cls-1" d="M3,52.82l114-30.53a4,4,0,0,1,4.9,2.83h0l7.25,27a4,4,0,0,1-2.83,4.9h0l-114,30.57a4,4,0,0,1-4.9-2.83h0L.1,57.72a4,4,0,0,1,2.84-4.89Zm1,3.86,7.25,27,114-30.54-7.25-27Z" transform="translate(0.04 0.03)"/><path class="cls-2" d="M98.1,50.93l2.43-.65a6.39,6.39,0,0,0,2.26-1,3.58,3.58,0,0,0,1.16-1.46,4,4,0,0,0,.28-1.79,11,11,0,0,0-1.07-4A4,4,0,0,0,102,40.62a3.58,3.58,0,0,0-1.73-.68,6.39,6.39,0,0,0-2.47.25l-2.43.65ZM92.38,39.49l5.86-1.57a6.82,6.82,0,0,1,3-.2,5.41,5.41,0,0,1,2.34,1,6.7,6.7,0,0,1,1.72,1.95,10.89,10.89,0,0,1,1.47,5.5,6.7,6.7,0,0,1-.52,2.55,5.41,5.41,0,0,1-1.53,2A6.82,6.82,0,0,1,102,52l-5.86,1.57ZM79.91,42.83,90.08,40.1l.57,2.14L83,44.3l1,3.7,7.12-1.91.54,2L84.49,50l1.11,4.14,7.84-2.1L94,54.19,83.7,57Zm-9.73,9.5,4.06-1.09a2.66,2.66,0,0,0,1.65-1A2.26,2.26,0,0,0,76,48.34a2.71,2.71,0,0,0-.49-1,1.66,1.66,0,0,0-.72-.52,2.07,2.07,0,0,0-.88-.1,5.43,5.43,0,0,0-.94.17l-4,1.08ZM66,46.56l6.75-1.81a5.42,5.42,0,0,1,3.77.07,3.64,3.64,0,0,1,1.92,2.5,4.25,4.25,0,0,1,.15,1.75,3.78,3.78,0,0,1-.41,1.25,2.8,2.8,0,0,1-.63.79q-.34.28-.5.39v0a2.61,2.61,0,0,1,.74,0,2.09,2.09,0,0,1,.82.32,2.85,2.85,0,0,1,.77.76A4.12,4.12,0,0,1,80,54a13,13,0,0,0,.8,2.22,3.09,3.09,0,0,0,1,1.3l-2.65.71a2.39,2.39,0,0,1-.6-.92q-.2-.54-.34-1.06a10.55,10.55,0,0,0-.57-1.64,3,3,0,0,0-.75-1.05,1.91,1.91,0,0,0-1-.45,3.93,3.93,0,0,0-1.45.16l-3.64,1L72.24,60l-2.47.66ZM60.48,48,63,47.37,66.74,61.5l-2.47.66ZM51.55,57.6l3.62-1a3.34,3.34,0,0,0,.82-.35,2.52,2.52,0,0,0,.7-.6,2,2,0,0,0,.4-.87A2.53,2.53,0,0,0,57,53.63a3,3,0,0,0-.51-1.09,1.9,1.9,0,0,0-.73-.58,2,2,0,0,0-.87-.16,4.34,4.34,0,0,0-1,.15l-3.66,1Zm-4.27-6,6.23-1.67a6.13,6.13,0,0,1,2.57-.22,4,4,0,0,1,1.76.7,3.83,3.83,0,0,1,1.08,1.24A6.26,6.26,0,0,1,59.5,53a6.14,6.14,0,0,1,.19,1.47,3.83,3.83,0,0,1-.32,1.6,3.92,3.92,0,0,1-1.18,1.47,6.26,6.26,0,0,1-2.34,1.08l-3.76,1L53.54,65l-2.47.66Zm-14,3.76,2.95-.79,4.54,4.13,2-5.88L45.5,52l-2.85,8.06,7,6-3,.81-5-4.46L39.51,68.8l-2.83.76,3-8.66ZM22,58.35l10.17-2.73.57,2.14L25,59.82l1,3.7,7.12-1.91.54,2-7.12,1.91,1.11,4.14,7.84-2.1.57,2.14L25.78,72.48Z" transform="translate(0.04 0.03)"/></svg>