<?xml version="1.0" encoding="utf-8"?>
<!-- Generator: Adobe Illustrator 23.0.1, SVG Export Plug-In . SVG Version: 6.00 Build 0)  -->
<svg version="1.1" id="图层_1" xmlns="http://www.w3.org/2000/svg" xmlns:xlink="http://www.w3.org/1999/xlink" x="0px" y="0px"
	 viewBox="0 0 40 40" style="enable-background:new 0 0 40 40;" xml:space="preserve">
<style type="text/css">
	.st0{fill-rule:evenodd;clip-rule:evenodd;fill:#5E636B;}
</style>
<g id="Page-1">
	<g id="地标页备份" transform="translate(-67.000000, -1487.000000)">
		<g id="Ferry" transform="translate(51.000000, 1473.000000)">
			<g id="icon_Ferry" transform="translate(16.000000, 14.000000)">
				<path id="Fill-8" class="st0" d="M10.9,36c-1.2,0-2.3-0.3-3.5-0.9v-2.7c1.3,1,2.4,1.4,3.5,1.4c1.2,0,2.4-0.5,3.9-1.7l0.7-0.6
					l0.7,0.6c1.5,1.2,2.8,1.7,4,1.7c1.2,0,2.5-0.5,4-1.7l0.7-0.6l0.7,0.6c1.5,1.2,2.8,1.7,3.9,1.7c1,0,2-0.3,3.1-1.1v2.6
					c-1,0.5-2.1,0.8-3.1,0.8c0,0,0,0,0,0c-1.6,0-3.1-0.6-4.6-1.7c-1.5,1.1-3.1,1.7-4.7,1.7c-1.6,0-3.2-0.6-4.7-1.7
					C14,35.4,12.5,36,10.9,36z M13.9,20.8c0.1,0.3,0.5,0.4,0.8,0.3l0.7-0.3c0.3-0.1,0.4-0.5,0.3-0.8c-0.1-0.3-0.5-0.4-0.8-0.3
					L14.2,20C13.9,20.1,13.7,20.5,13.9,20.8z M8,25c-0.7-2.2-2.4-3.3,1.2-5.1c3.1-1.6,8.8-4.1,10.4-4.8v16.3c-1-0.1-2.1-0.6-3.4-1.7
					l-0.7-0.6l-0.7,0.6c-1.5,1.2-2.8,1.7-3.9,1.7c-0.6,0-1.3-0.1-1.9-0.5C8.8,29.1,8.4,26.4,8,25z M10.7,17.9c3.8-1.8,9-4.1,9-4.1
					l0.2-0.1l0.2,0.1c0,0,5,2.2,8.7,4l-0.4-3.4h1.3l-0.3-2.5H10.3l-0.3,2.5h1L10.7,17.9z M22.3,5.9c0-1.1-0.9-1.9-1.9-1.9h-0.8
					c-1.1,0-1.9,0.9-1.9,1.9V8h4.6V5.9z M24.6,20.7l0.7,0.3c0.3,0.1,0.7,0,0.8-0.3c0.1-0.3,0-0.7-0.3-0.8l-0.7-0.3
					c-0.3-0.1-0.7,0-0.8,0.3C24.2,20.2,24.3,20.6,24.6,20.7z M20.4,15.1c1.6,0.7,7.3,3.3,10.4,4.8c3.6,1.8,1.9,2.9,1.2,5.1
					c-0.4,1.3-0.8,4.2-0.9,6.1c-0.6,0.2-1.1,0.3-1.6,0.3c-1.2,0-2.4-0.5-3.9-1.7l-0.7-0.6l-0.7,0.6c-1.4,1.1-2.6,1.6-3.7,1.7V15.1z
					 M13.1,11.1h13.9V8.8H13.1V11.1z"/>
			</g>
		</g>
	</g>
</g>
</svg>
