<?xml version="1.0" encoding="utf-8"?>
<!-- Generator: Adobe Illustrator 23.0.1, SVG Export Plug-In . SVG Version: 6.00 Build 0)  -->
<svg version="1.1" id="图层_1" xmlns="http://www.w3.org/2000/svg" xmlns:xlink="http://www.w3.org/1999/xlink" x="0px" y="0px"
	 viewBox="0 0 40 40" style="enable-background:new 0 0 40 40;" xml:space="preserve">
<style type="text/css">
	.st0{fill-rule:evenodd;clip-rule:evenodd;fill:#5E636B;}
</style>
<g id="Page-1">
	<g id="地标页备份" transform="translate(-67.000000, -1151.000000)">
		<g id="Gallery" transform="translate(51.000000, 1137.000000)">
			<g id="icon_Gallery" transform="translate(16.000000, 14.000000)">
				<path id="形状结合" class="st0" d="M19.7,5.1c0.1-0.1,0.3-0.2,0.6,0.1l0,0l6,4.4l9.7,0V31H4V9.6l9.7,0L19.7,5.1L19.7,5.1z
					 M32.9,12.7H7.1v15.2h25.8V12.7z M25,15.7l7.4,7.8v3.9H7.6v-2.6l0,0l6.3-6l4.5,4.2L25,15.7z M18,13.7c1.1,0,2,0.9,2,2
					s-0.9,2-2,2c-1.1,0-2-0.9-2-2S16.9,13.7,18,13.7z M20,6.7c-0.4,0-0.7-0.3-0.8-0.6l-4.7,3.5h11l-4.7-3.5
					C20.7,6.4,20.4,6.7,20,6.7z"/>
			</g>
		</g>
	</g>
</g>
</svg>
