<?xml version="1.0" encoding="utf-8"?>
<!-- Generator: Adobe Illustrator 23.0.2, SVG Export Plug-In . SVG Version: 6.00 Build 0)  -->
<svg version="1.1" id="图层_1" xmlns="http://www.w3.org/2000/svg" xmlns:xlink="http://www.w3.org/1999/xlink" x="0px" y="0px"
	 viewBox="0 0 14 14" style="enable-background:new 0 0 14 14;" xml:space="preserve">
<style type="text/css">
	.st0{fill-rule:evenodd;clip-rule:evenodd;fill:#222222;}
</style>
<path class="st0" d="M14,7c0-3.9-3.1-7-7-7S0,3.1,0,7c0,3.5,2.6,6.5,6.1,6.9c0.2,0,0.4,0.1,0.7,0.1h0.2C10.9,13.9,14,10.8,14,7z
	 M13,7.1c0-0.3-0.1-0.7-0.2-1V5.8C12.9,6.2,13,6.6,13,7.1L13,7.1z M1,7c0-0.4,0.1-0.8,0.2-1.2C1.4,6,2.1,6,2.1,5.6
	c0.2,0.2,0.7,0.2,0.7,0.5c0,1.1,0,2.1,1,2.2c0,0,0.5,0.2,0.7,0.8c0.1,0.2,0.4,0,0.7,0c0.2,0,0,0.3,0,1s1.4,1.6,1.4,1.6
	c0,0.4,0,0.7,0.1,1.1c-0.3,0-0.6,0-0.8,0.1C3.1,12.4,1,9.9,1,7L1,7z M8.5,12.8c0-0.2-0.2-0.2-0.4-0.2c0.2-0.8,0.3-1.3,0.7-1.6
	c0.6-0.5,0.1-1.1-0.4-1C8.1,10,8.2,9.6,8,9.5c-0.3,0-0.7-0.7-1.2-0.9C6.5,8.5,6.3,8.2,5.9,8.2c-0.3,0-0.8,0.2-0.8,0.1
	C5.1,7.5,5,7,5,6.8c0-0.2-0.1-0.1,0.3-0.1c0.2,0,0.2-0.5,0.3-0.5c0.2,0,0.8,0.2,1,0.2c0.2-0.1,1,2.2,1,0.4c0-0.2-0.1-0.6,0-0.8
	c0.4-0.8,0.9-1.5,0.8-1.6c0-0.1-0.5-0.1-0.8,0c-0.1,0,0,0.2-0.2,0.2c-0.7,0.2-1.2-0.2-1-0.5c0.2-0.3,0.9-0.2,1-0.7
	c0-0.3,0.1-0.7,0.1-1.1c0.8,0.2,0.7-1.2-0.5-1.2c2.6,0,4.8,1.7,5.6,4c0,0-0.1-0.1-0.2-0.1c-0.4-1.1-1.3-0.3-1,0.5
	c-1.7,1.3-1.2,2.2-0.7,2.7c0.3,0.2,0.6,0.7,0.7,1c-0.2,0.6,0.7,0.3,1.2-0.7C12.2,10.6,10.5,12.3,8.5,12.8L8.5,12.8z"/>
</svg>
