<?xml version="1.0" encoding="utf-8"?>
<!-- Generator: Adobe Illustrator 23.0.1, SVG Export Plug-In . SVG Version: 6.00 Build 0)  -->
<svg version="1.1" id="图层_1" xmlns="http://www.w3.org/2000/svg" xmlns:xlink="http://www.w3.org/1999/xlink" x="0px" y="0px"
	 viewBox="0 0 40 40" style="enable-background:new 0 0 40 40;" xml:space="preserve">
<style type="text/css">
	.st0{fill-rule:evenodd;clip-rule:evenodd;fill:#5E636B;}
</style>
<g id="Page-1">
	<g id="地标页备份" transform="translate(-67.000000, -1067.000000)">
		<g id="Golf-Course" transform="translate(51.000000, 1053.000000)">
			<g id="icon_Golf-Course" transform="translate(16.000000, 14.000000)">
				<g id="icon" transform="translate(6.000000, 1.000000)">
					<g id="编组">
						<path id="Fill-1" class="st0" d="M5.4,1.6v10.9l13.8-5.4L5.4,1.6z M10.3,32c-1.4,0-2.6-0.5-2.6-1c0-0.6,1.2-1,2.6-1
							c1.4,0,2.6,0.4,2.6,1C12.9,31.5,11.8,32,10.3,32L10.3,32z M14,26.3c-3.7,0-7,0.5-9.5,1.4V1.2C4.5,0.5,4,0,3.4,0
							C2.9,0,2.4,0.5,2.4,1.2v27.5c-1.5,0.9-2.4,1.9-2.4,3c0,3,6.3,5.4,14,5.4c7.7,0,14-2.4,14-5.4C28,28.7,21.7,26.3,14,26.3
							L14,26.3z"/>
					</g>
				</g>
			</g>
		</g>
	</g>
</g>
</svg>
