<?xml version="1.0" encoding="UTF-8"?>
<svg width="20px" height="20px" viewBox="0 0 20 20" version="1.1" xmlns="http://www.w3.org/2000/svg" xmlns:xlink="http://www.w3.org/1999/xlink">
    <!-- Generator: Sketch 55.1 (78136) - https://sketchapp.com -->
    <title>Group Copy 10</title>
    <desc>Created with Sketch.</desc>
    <defs>
        <linearGradient x1="50%" y1="0%" x2="50%" y2="100.001258%" id="linearGradient-1">
            <stop stop-color="#00B2FF" offset="0%"></stop>
            <stop stop-color="#006AFF" offset="100%"></stop>
        </linearGradient>
        <path d="M10,1.00904523 C4.92957746,1.00904523 1,4.71939698 1,9.73045226 C1,12.3517588 2.07565392,14.6166834 3.82676056,16.1815075 C3.97344064,16.3135678 4.06217304,16.4962814 4.0694165,16.6934673 L4.11830986,18.2926633 C4.13460765,18.8028141 4.66156942,19.1338693 5.12877264,18.9294472 L6.91428571,18.1425126 C7.06639839,18.0755779 7.23480885,18.0629146 7.39416499,18.1063317 C8.21448692,18.3324623 9.08913481,18.4518593 10,18.4518593 C15.0704225,18.4518593 19,14.7415075 19,9.73045226 C19,4.71939698 15.0704225,1.00904523 10,1.00904523 Z" id="path-2"></path>
    </defs>
    <g id="页面1" stroke="none" stroke-width="1" fill="none" fill-rule="evenodd">
        <g id="2.-个人中心的social-connnection模块，增加展示Messenger关注入口。" transform="translate(-1113.000000, -338.000000)">
            <g id="编组-4备份" transform="translate(636.000000, 277.000000)">
                <g id="Group-Copy-10" transform="translate(465.000000, 51.000000)">
                    <g id="icon/FB_Messenger" transform="translate(12.000000, 10.000000)">
                        <g id="Bubble_Solid_3_">
                            <use fill="url(#linearGradient-1)" xlink:href="#path-2"></use>
                            <use fill="#FFFFFF" xlink:href="#path-2"></use>
                        </g>
                        <path d="M4.59637827,12.281206 L7.24024145,8.09145729 C7.66036217,7.42572864 8.56217304,7.25929648 9.19235412,7.73145729 L11.2947686,9.30713568 C11.4885312,9.4518593 11.7529175,9.45005025 11.9448692,9.30532663 L14.7843058,7.15256281 C15.1627767,6.86492462 15.6589537,7.31899497 15.4036217,7.72060302 L12.7615694,11.9085427 C12.3414487,12.5742714 11.4396378,12.7407035 10.8094567,12.2685427 L8.70704225,10.6928643 C8.51327968,10.5481407 8.24889336,10.5499497 8.05694165,10.6946734 L5.21569416,12.8492462 C4.83722334,13.1368844 4.34104628,12.6828141 4.59637827,12.281206 Z" id="Bolt_4_" fill="#1889FF"></path>
                    </g>
                </g>
            </g>
        </g>
    </g>
</svg>