<?xml version="1.0" encoding="utf-8"?>
<!-- Generator: Adobe Illustrator 23.0.2, SVG Export Plug-In . SVG Version: 6.00 Build 0)  -->
<svg version="1.1" id="图层_1" xmlns="http://www.w3.org/2000/svg" xmlns:xlink="http://www.w3.org/1999/xlink" x="0px" y="0px"
	 viewBox="0 0 18 18" style="enable-background:new 0 0 18 18;" xml:space="preserve">
<style type="text/css">
	.st0{fill:#009901;}
</style>
<path id="形状结合" class="st0" d="M4,6.1l0,2.2L3.8,8.7L3.6,9.3c0,0.5,0.7,0.8,1.2,0.9l0.1,0H13c0.6,0,1.2-0.3,1.3-0.8l0-0.1
	l-0.1-0.4h1.2l0.2,0.4c0,0,0.1,0,0.1,0l0.1,0h1.7l0.1,0c0.2,0,0.3,0.2,0.4,0.3l0,0.1v0.4c0,0.2-0.2,0.4-0.4,0.4l-0.1,0l-0.6,0.1
	c0.2,0.3,0.3,0.6,0.3,1l0,0.2l0.2,2.4c0,0.1,0,0.1,0,0.2l0,0.1l0,0l0,0.1v2.8c0,0.4-0.3,0.7-0.7,0.7l-0.1,0h-1.3
	c-0.4,0-0.8-0.3-0.8-0.6l0-0.1v-0.9h-11v0.9c0,0.4-0.3,0.7-0.7,0.7l-0.1,0H1.4c-0.4,0-0.8-0.3-0.8-0.6l0-0.1v-2.8c0,0,0-0.1,0-0.1
	l0-0.1l0,0l0-0.1l0.2-2.4c0-0.4,0.1-0.7,0.2-1l0.1-0.2l-0.6-0.1c-0.2,0-0.4-0.1-0.5-0.3l0-0.1V9.7c0-0.2,0.2-0.4,0.4-0.4l0.1,0h1.7
	c0.1,0,0.1,0,0.2,0l0.1,0l0.8-2C3.3,6.8,3.6,6.4,4,6.1z M4.3,12.8c-0.8,0-1.4,0.4-1.4,1s0.6,1,1.4,1c0.8,0,1.4-0.4,1.4-1
	C5.8,13.2,5.1,12.8,4.3,12.8z M14.4,12.8c-0.8,0-1.4,0.4-1.4,1s0.6,1,1.4,1c0.8,0,1.4-0.4,1.4-1C15.8,13.2,15.2,12.8,14.4,12.8z
	 M12,0.8L17.2,5L12,9.2L12,7L5,7V3l7,0L12,0.8z"/>
</svg>
