<?xml version="1.0" encoding="utf-8"?>
<!-- Generator: Adobe Illustrator 23.0.1, SVG Export Plug-In . SVG Version: 6.00 Build 0)  -->
<svg version="1.1" id="图层_1" xmlns="http://www.w3.org/2000/svg" xmlns:xlink="http://www.w3.org/1999/xlink" x="0px" y="0px"
	 viewBox="0 0 40 40" style="enable-background:new 0 0 40 40;" xml:space="preserve">
<style type="text/css">
	.st0{fill-rule:evenodd;clip-rule:evenodd;fill:#5E636B;}
</style>
<g id="Page-1">
	<g id="地标页备份" transform="translate(-67.000000, -479.000000)">
		<g id="Historical-Site" transform="translate(51.000000, 465.000000)">
			<g id="icon_Historical-Site" transform="translate(16.000000, 14.000000)">
				<g id="icon" transform="translate(5.000000, 5.000000)">
					<path id="形状结合" class="st0" d="M23.8,26.4c0.5,0,0.9,0.4,0.9,0.9l0,0V30h-1.8v-2.7C22.9,26.8,23.3,26.4,23.8,26.4z
						 M15,26.4c0.5,0,0.9,0.4,0.9,0.9l0,0V30h-1.8v-2.7C14.1,26.8,14.5,26.4,15,26.4z M6.2,26.4c0.5,0,0.9,0.4,0.9,0.9l0,0V30H5.3
						v-2.7C5.3,26.8,5.7,26.4,6.2,26.4z M30,22.9v6.2c0,0.5-0.4,0.9-0.9,0.9l0,0h-2.7v-2.7c0-1.5-1.2-2.6-2.6-2.6
						c-1.5,0-2.6,1.2-2.6,2.6l0,0V30h-3.5v-2.7c0-1.5-1.2-2.6-2.6-2.6c-1.5,0-2.6,1.2-2.6,2.6l0,0V30H8.8v-2.7
						c0-1.5-1.2-2.6-2.6-2.6c-1.5,0-2.6,1.2-2.6,2.6l0,0V30H0.9C0.4,30,0,29.6,0,29.1l0,0v-6.2H30z M6.2,19.4c0.5,0,0.9,0.4,0.9,0.9
						l0,0v0.9H5.3v-0.9C5.3,19.8,5.7,19.4,6.2,19.4z M23.1,15.9l0.4,1.8c-1.3,0.1-2.4,1.2-2.4,2.6l0,0v0.9h-3.5v-0.9
						c0-1.5-1.2-2.6-2.6-2.6c-1.5,0-2.6,1.2-2.6,2.6l0,0v0.9H8.8v-0.9c0-1.5-1.2-2.6-2.6-2.6c-1.5,0-2.6,1.2-2.6,2.6l0,0v0.9H0v-5.3
						H23.1z M27.3,15.9c1.2,0,2.3,0.8,2.6,2c0.1,0.4,0.1,0.6,0.1,0.6l0,0v2.6h-3.8l-0.6-2.5c0,0,0,0,0,0l-0.7-2.7H27.3z M15,19.4
						c0.5,0,0.9,0.4,0.9,0.9l0,0v0.9h-1.8v-0.9C14.1,19.8,14.5,19.4,15,19.4z M22.9,20.3c0-0.6,0.6-0.9,1.1-0.8l0,0l0.4,1.7h-1.5
						V20.3z M19,8.8c0.4,0,0.8,0.3,0.9,0.7l0,0l1.2,4.6h-3.3v-0.9c0-1.5-1.2-2.6-2.6-2.6c-1.5,0-2.6,1.2-2.6,2.6l0,0v0.9H8.8v-0.9
						c0-1.5-1.2-2.6-2.6-2.6c-1.5,0-2.6,1.2-2.6,2.6l0,0v0.9H0V8.8H19z M15,12.4c0.5,0,0.9,0.4,0.9,0.9l0,0v0.9h-1.8v-0.9
						C14.1,12.8,14.5,12.4,15,12.4z M6.2,12.4c0.5,0,0.9,0.4,0.9,0.9l0,0v0.9H5.3v-0.9C5.3,12.8,5.7,12.4,6.2,12.4z M6.2,5.3
						c0.5,0,0.9,0.4,0.9,0.9l0,0v0.9H5.3V6.2C5.3,5.7,5.7,5.3,6.2,5.3z M11.5,0c0.4,0,0.8,0.3,0.9,0.7l0,0l1.6,6.4H8.8V6.2
						c0-1.5-1.2-2.6-2.6-2.6c-1.5,0-2.6,1.2-2.6,2.6l0,0v0.9H0V0.9C0,0.4,0.4,0,0.9,0l0,0H11.5z"/>
				</g>
			</g>
		</g>
	</g>
</g>
</svg>
