<svg id="图层_1" data-name="图层 1" xmlns="http://www.w3.org/2000/svg" viewBox="0 0 13 11.98"><defs><style>.cls-1{fill:#515151;}</style></defs><title>度假</title><path class="cls-1" d="M40,47c0-1-1.37-1.84-3-1.84a4.74,4.74,0,0,0-.86.08,5,5,0,0,0-3.77-1.46C30,43.77,28.07,45.39,28,47ZM29.07,36.35h.06l0,0ZM41,36.5c0-.16-.23-.28-.55-.35a4.21,4.21,0,0,0-3.71-.23,9.9,9.9,0,0,0-1.32.54,4.85,4.85,0,0,0-1.55-1,4.07,4.07,0,0,0-3.91.08s0,0,0,0l-.09,0-.09.07a.22.22,0,0,0-.07.09.28.28,0,0,0,0,.2.3.3,0,0,0,0,.08c-.11.45,1,1.14,2.67,1.69a4.75,4.75,0,0,0-2.62,2.71c-.13.23-.08.5-.08.33,0,.19.22.26.41.26s.13,0,.23-.1a4.66,4.66,0,0,1,2.14-1.13,4.51,4.51,0,0,1,5.48,3,2.8,2.8,0,0,1,.11.35c.12.26.2.35.46.35.09,0,.25-.16.3-.31a4.85,4.85,0,0,0-1.66-4.75h0C39.38,37.91,41.11,37.05,41,36.5Zm-6.92,8.84a9.67,9.67,0,0,1,1.3-5.08L33,40.64a9.84,9.84,0,0,0-1.73,5.86c0,.32,0-.91.05-.6h3C34.17,45.23,34.07,46.07,34.07,45.34Zm.7-6.42h1l.14.58a8.71,8.71,0,0,1,1.71-1.66A7.31,7.31,0,0,0,34.77,38.92Z" transform="translate(-28 -35.01)"/></svg>