<svg id="图层_1" data-name="图层 1" xmlns="http://www.w3.org/2000/svg" viewBox="0 0 18.6 14"><defs><style>.cls-1{fill:#595959;}</style></defs><title>icon_youtube</title><path id="icon_youtube" data-name="icon youtube" class="cls-1" d="M8,10l4.65-3L8,4ZM10,0C14,0,16.54.2,16.54.2A2.5,2.5,0,0,1,18.41,1a3.64,3.64,0,0,1,.74,2,28.43,28.43,0,0,1,.19,3.22V7.76A28.43,28.43,0,0,1,19.15,11a3.74,3.74,0,0,1-.74,2,2.6,2.6,0,0,1-1.87.83S14,14,10,14c-4.83,0-6.32-.2-6.32-.2a3.05,3.05,0,0,1-2-.84,3.64,3.64,0,0,1-.74-2A28.43,28.43,0,0,1,.73,7.76V6.24A28.43,28.43,0,0,1,.92,3a3.54,3.54,0,0,1,.74-2A2.5,2.5,0,0,1,3.52.2S6.12,0,10,0Z" transform="translate(-0.73)"/></svg>