<svg id="图层_1" data-name="图层 1" xmlns="http://www.w3.org/2000/svg" viewBox="0 0 18.6 15.08"><defs><style>.cls-1{fill:#595959;}</style></defs><title>icon_tw</title><path id="icon_tw" data-name="icon tw" class="cls-1" d="M17.39,4.38c0,.11,0,.27,0,.49A10.69,10.69,0,0,1,17,7.93a11.1,11.1,0,0,1-1.36,2.93,11.49,11.49,0,0,1-2.18,2.48,9.7,9.7,0,0,1-3.05,1.72,11,11,0,0,1-3.81.64A10.57,10.57,0,0,1,.7,14a8.54,8.54,0,0,0,.92,0,7.47,7.47,0,0,0,4.73-1.62,3.79,3.79,0,0,1-2.22-.76A3.71,3.71,0,0,1,2.79,9.78a4.76,4.76,0,0,0,.72.06,4.29,4.29,0,0,0,1-.13A3.74,3.74,0,0,1,2.32,8.39,3.65,3.65,0,0,1,1.45,6v0a3.88,3.88,0,0,0,1.73.49A3.77,3.77,0,0,1,1.94,5.05a3.64,3.64,0,0,1-.46-1.81A3.69,3.69,0,0,1,2,1.32,10.78,10.78,0,0,0,5.47,4.13,10.74,10.74,0,0,0,9.86,5.3a4.47,4.47,0,0,1-.1-.87,3.68,3.68,0,0,1,1.12-2.69A3.65,3.65,0,0,1,13.58.62a3.64,3.64,0,0,1,2.78,1.21A7.72,7.72,0,0,0,18.78.91,3.69,3.69,0,0,1,17.11,3a7.15,7.15,0,0,0,2.19-.59A8.13,8.13,0,0,1,17.39,4.38Z" transform="translate(-0.7 -0.62)"/></svg>