<svg id="图层_1" data-name="图层 1" xmlns="http://www.w3.org/2000/svg" viewBox="0 0 18.6 18.67"><defs><style>.cls-1{fill:#595959;}</style></defs><title>icon_in</title><path id="Shape" class="cls-1" d="M13.2,19.33H5.76A5.57,5.57,0,0,1,.18,13.85V6.15A5.57,5.57,0,0,1,5.76.67H13.2a5.57,5.57,0,0,1,5.59,5.48v7.7A5.57,5.57,0,0,1,13.2,19.33ZM5.76,2.65a3.53,3.53,0,0,0-3.6,3.5v7.7a3.53,3.53,0,0,0,3.6,3.5H13.2a3.53,3.53,0,0,0,3.61-3.5V6.15a3.53,3.53,0,0,0-3.61-3.5Z" transform="translate(-0.18 -0.67)"/><path id="Shape-2" data-name="Shape" class="cls-1" d="M9.53,15.33A5.4,5.4,0,0,1,4.17,10,5.25,5.25,0,0,1,9.53,4.67a5.09,5.09,0,0,1,4,1.7,4.77,4.77,0,0,1,1.28,3.75,5.39,5.39,0,0,1-1.52,3.76A5.17,5.17,0,0,1,9.53,15.33ZM9.42,7.09A2.81,2.81,0,0,0,6.73,10a2.9,2.9,0,0,0,2.8,2.91A2.89,2.89,0,0,0,12.33,10C12.45,8.18,11.4,7.09,9.42,7.09Z" transform="translate(-0.18 -0.67)"/><path id="Shape-3" data-name="Shape" class="cls-1" d="M13.8,4.67a1,1,0,1,0,1-1A1,1,0,0,0,13.8,4.67Z" transform="translate(-0.18 -0.67)"/></svg>