<?xml version="1.0" encoding="utf-8"?>
<!-- Generator: Adobe Illustrator 24.0.1, SVG Export Plug-In . SVG Version: 6.00 Build 0)  -->
<svg version="1.1" id="图层_1" xmlns="http://www.w3.org/2000/svg" xmlns:xlink="http://www.w3.org/1999/xlink" x="0px" y="0px"
	 viewBox="0 0 14 18" style="enable-background:new 0 0 14 18;" xml:space="preserve">
<style type="text/css">
	.st0{fill-rule:evenodd;clip-rule:evenodd;}
</style>
<path id="矩形" d="M0,0v18h11c1.7,0,3-1.3,3-3V3c0-1.7-1.3-3-3-3H0z M2,16V2h9c0.6,0,1,0.4,1,1v12c0,0.6-0.4,1-1,1H2z"/>
<path id="形状" d="M5,3C3.9,3,3,3.9,3,5s0.9,2,2,2s2-0.9,2-2S6.1,3,5,3z M6.4,4.2H5.8C5.7,3.9,5.6,3.7,5.5,3.5
	C5.9,3.6,6.2,3.9,6.4,4.2z M5,3.4c0.2,0.2,0.3,0.5,0.4,0.8H4.6C4.7,3.9,4.8,3.6,5,3.4z M3.5,5.4c0-0.1-0.1-0.3-0.1-0.4
	s0-0.3,0.1-0.4h0.7c0,0.1,0,0.3,0,0.4s0,0.3,0,0.4H3.5z M3.6,5.8h0.6C4.3,6,4.4,6.3,4.5,6.5C4.1,6.4,3.8,6.1,3.6,5.8z M4.2,4.2H3.6
	c0.2-0.3,0.5-0.6,0.9-0.7C4.4,3.7,4.3,3.9,4.2,4.2z M5,6.6C4.8,6.4,4.7,6.1,4.6,5.8h0.8C5.3,6.1,5.2,6.4,5,6.6z M5.5,5.4H4.5
	c0-0.1,0-0.3,0-0.4s0-0.3,0-0.4h0.9c0,0.1,0,0.3,0,0.4S5.5,5.3,5.5,5.4z M5.5,6.5C5.6,6.3,5.7,6,5.8,5.8h0.6
	C6.2,6.1,5.9,6.4,5.5,6.5z M5.9,5.4c0-0.1,0-0.3,0-0.4s0-0.3,0-0.4h0.7c0,0.1,0.1,0.3,0.1,0.4s0,0.3-0.1,0.4H5.9z"/>
<rect id="矩形_1_" x="3" y="9" class="st0" width="7" height="2"/>
<rect id="矩形备份" x="3" y="12" class="st0" width="4" height="2"/>
</svg>
