<svg id="图层_1" data-name="图层 1" xmlns="http://www.w3.org/2000/svg" viewBox="0 0 24 24"><defs><style>.cls-1{fill:#937373;}</style></defs><title>in</title><path class="cls-1" d="M44.33,23H25.67A2.67,2.67,0,0,0,23,25.67V44.33A2.67,2.67,0,0,0,25.67,47H44.33A2.67,2.67,0,0,0,47,44.33V25.67A2.67,2.67,0,0,0,44.33,23ZM31.26,42h-3.2V31.29h3.2Zm-1.6-11.79a1.61,1.61,0,1,1,1.66-1.61A1.63,1.63,0,0,1,29.66,30.21ZM43,42H39.8V36.28c0-1.49-.53-2.23-1.58-2.23a1.58,1.58,0,0,0-1.62,1.25V42h-3.2s0-9.64,0-10.71h2.53l.2,2.14h.07a3.56,3.56,0,0,1,3.15-1.8A3.31,3.31,0,0,1,42,32.7a4.65,4.65,0,0,1,1,3.25Z" transform="translate(-23 -23)"/></svg>