<?xml version="1.0" encoding="UTF-8"?>
<svg width="16px" height="16px" viewBox="0 0 16 16" version="1.1" xmlns="http://www.w3.org/2000/svg" xmlns:xlink="http://www.w3.org/1999/xlink">
    <title>-mockplus-</title>
    <g id="正稿" stroke="none" stroke-width="1" fill="none" fill-rule="evenodd">
        <g id="PC---车型升级-中间页-621" transform="translate(-732.000000, -321.000000)" fill="#9E9E9E" fill-rule="nonzero">
            <g id="编组-14" transform="translate(261.000000, 172.000000)">
                <g id="编组-4" transform="translate(240.000000, 46.000000)">
                    <g id="Group-41" transform="translate(88.000000, 101.000000)">
                        <g id="-mockplus-dup-|F9B996E1-1875-44E4-8AF0-64FED15B4518|icon/info-copy-2" transform="translate(143.000000, 2.000000)">
                            <g id="icon/info-copy-2" transform="translate(2.000000, 0.000000)">
                                <path d="M6,2 C9.3137085,2 12,4.6862915 12,8 C12,11.3137085 9.3137085,14 6,14 C2.6862915,14 0,11.3137085 0,8 C0,4.6862915 2.6862915,2 6,2 Z M6,3 C3.23857625,3 1,5.23857625 1,8 C1,10.7614237 3.23857625,13 6,13 C8.76142375,13 11,10.7614237 11,8 C11,5.23857625 8.76142375,3 6,3 Z M5.78414626,9.97719323 C5.98214626,9.97719323 6.15314626,10.0401932 6.28814626,10.1661932 C6.41414626,10.2921932 6.48614626,10.4541932 6.48614626,10.6521932 C6.48614626,10.8501932 6.41414626,11.0211932 6.27914626,11.1471932 C6.14414626,11.2731932 5.98214626,11.3361932 5.78414626,11.3361932 C5.58614626,11.3361932 5.42414626,11.2641932 5.28914626,11.1381932 C5.15414626,11.0121932 5.09114626,10.8501932 5.09114626,10.6521932 C5.09114626,10.4541932 5.15414626,10.2921932 5.28914626,10.1661932 C5.42414626,10.0401932 5.58614626,9.97719323 5.78414626,9.97719323 Z M5.94614626,4.78419323 C6.53114626,4.78419323 7.00814626,4.93719323 7.36814626,5.26119323 C7.72814626,5.57619323 7.90814626,6.00819323 7.90814626,6.55719323 C7.90814626,7.00719323 7.79114626,7.37619323 7.57514626,7.66419323 C7.49414626,7.75419323 7.23314626,7.99719323 6.80114626,8.37519323 C6.63914626,8.51019323 6.52214626,8.66319323 6.44114626,8.82519323 C6.35114626,9.00519323 6.30614626,9.19419323 6.30614626,9.41019323 L6.30614626,9.41019323 L6.30614626,9.53619323 L5.27114626,9.53619323 L5.27114626,9.41019323 C5.27114626,9.06819323 5.32514626,8.77119323 5.45114626,8.52819323 C5.56814626,8.28519323 5.91914626,7.90719323 6.50414626,7.38519323 L6.50414626,7.38519323 L6.61214626,7.25919323 C6.77414626,7.06119323 6.85514626,6.84519323 6.85514626,6.62019323 C6.85514626,6.32319323 6.76514626,6.08919323 6.60314626,5.91819323 C6.43214626,5.74719323 6.18914626,5.66619323 5.88314626,5.66619323 C5.48714626,5.66619323 5.20814626,5.78319323 5.03714626,6.03519323 C4.88414626,6.24219323 4.81214626,6.53919323 4.81214626,6.91719323 L4.81214626,6.91719323 L3.78614626,6.91719323 C3.78614626,6.25119323 3.97514626,5.72919323 4.37114626,5.35119323 C4.75814626,4.97319323 5.28014626,4.78419323 5.94614626,4.78419323 Z" id="Combined-Shape-Copy"></path>
                            </g>
                        </g>
                    </g>
                </g>
            </g>
        </g>
    </g>
</svg>