<svg id="图层_1" data-name="图层 1" xmlns="http://www.w3.org/2000/svg" viewBox="0 0 12 12"><defs><style>.cls-1{fill:#1ea255;}</style></defs><title>info copy 2</title><path id="Combined-Shape-Copy" class="cls-1" d="M6,11.5a5,5,0,1,0-5-5A5,5,0,0,0,6,11.5Zm0,1a6,6,0,1,1,6-6A6,6,0,0,1,6,12.5ZM6,3.28a2.05,2.05,0,0,1,1.42.48,1.63,1.63,0,0,1,.54,1.3,1.78,1.78,0,0,1-.33,1.1q-.15.16-.78.72a1.33,1.33,0,0,0-.36.45,1.27,1.27,0,0,0-.13.58V8h-1V7.91A1.91,1.91,0,0,1,5.45,7a5.08,5.08,0,0,1,1-1.14l.11-.13a1,1,0,0,0,.25-.64,1,1,0,0,0-.26-.7.94.94,0,0,0-.72-.25A.94.94,0,0,0,5,4.54a1.44,1.44,0,0,0-.23.88h-1a2.07,2.07,0,0,1,.58-1.57A2.17,2.17,0,0,1,6,3.28Zm-.17,5.2a.69.69,0,0,1,.51.19.66.66,0,0,1,.2.48.64.64,0,0,1-.21.5.73.73,0,0,1-1,0,.66.66,0,0,1-.2-.49.63.63,0,0,1,.2-.48A.69.69,0,0,1,5.78,8.48Z" transform="translate(0 -0.5)"/></svg>