<svg id="图层_1" data-name="图层 1" xmlns="http://www.w3.org/2000/svg" viewBox="0 0 24 24"><defs><style>.cls-1{fill:#a5a2a2;}</style></defs><title>ins</title><path class="cls-1" d="M35.41,33.25a2.2,2.2,0,0,0-2.16,2.25,2.25,2.25,0,0,0,4.5,0C37.84,34.09,37,33.25,35.41,33.25Z" transform="translate(-23.19 -23.16)"/><path class="cls-1" d="M38.5,29.59h-6a2.84,2.84,0,0,0-2.91,2.81v6.19a2.84,2.84,0,0,0,2.91,2.81h6a2.84,2.84,0,0,0,2.91-2.81V32.41A2.84,2.84,0,0,0,38.5,29.59Zm0,8.91a4.39,4.39,0,0,1-7.31-3,4.38,4.38,0,0,1,7.5-2.81,3.62,3.62,0,0,1,1,2.91A4.11,4.11,0,0,1,38.5,38.5Zm1-6a.94.94,0,1,1,.94-.94A.94.94,0,0,1,39.53,32.5Z" transform="translate(-23.19 -23.16)"/><path class="cls-1" d="M44.52,23.16H25.85a2.67,2.67,0,0,0-2.67,2.67V44.49a2.67,2.67,0,0,0,2.67,2.67H44.52a2.67,2.67,0,0,0,2.67-2.67V25.82A2.67,2.67,0,0,0,44.52,23.16ZM43,38.59A4.48,4.48,0,0,1,38.5,43h-6A4.48,4.48,0,0,1,28,38.59V32.41A4.48,4.48,0,0,1,32.5,28h6A4.48,4.48,0,0,1,43,32.41Z" transform="translate(-23.19 -23.16)"/></svg>