<?xml version="1.0" encoding="utf-8"?>
<!-- Generator: Adobe Illustrator 23.0.2, SVG Export Plug-In . SVG Version: 6.00 Build 0)  -->
<svg version="1.1" id="图层_1" xmlns="http://www.w3.org/2000/svg" xmlns:xlink="http://www.w3.org/1999/xlink" x="0px" y="0px"
	 viewBox="0 0 24 24" style="enable-background:new 0 0 24 24;" xml:space="preserve">
<style type="text/css">
	.st0{fill-rule:evenodd;clip-rule:evenodd;fill:#FF2D55;}
</style>
<path class="st0" d="M19.1,6.2c-0.2-0.2-0.5-0.3-0.8-0.3c0,0-0.1,0-0.1,0c0,0-0.2,0-0.5,0c-0.5,0-1.4,0-2.3-0.2
	C14.3,5.4,13,4.2,12.6,4c-0.2-0.1-0.4-0.2-0.6-0.2c-0.2,0-0.4,0.1-0.6,0.2c0,0-1.4,1.4-2.8,1.7C7.7,5.9,6.7,5.9,6.2,5.9
	c-0.3,0-0.5,0-0.5,0c0,0-0.1,0-0.1,0C5.4,5.9,5.1,6,4.9,6.2C4.6,6.4,4.5,6.6,4.5,6.9v2.6c0,9.5,7,10.8,7.3,10.8c0.1,0,0.1,0,0.2,0
	c0.1,0,0.1,0,0.2,0c0.3,0,7.3-1.3,7.3-10.8V6.9C19.5,6.6,19.4,6.4,19.1,6.2z M15.2,14.1c0.3,0.3,0.3,0.7,0,1c-0.3,0.3-0.7,0.3-1,0
	L12,12.8l-2.2,2.2c-0.3,0.3-0.7,0.3-1,0c-0.3-0.3-0.3-0.7,0-1l2.2-2.2L8.8,9.7c-0.3-0.3-0.3-0.7,0-1s0.7-0.3,1,0l2.2,2.2l2.2-2.2
	c0.3-0.3,0.7-0.3,1,0s0.3,0.7,0,1l-2.2,2.2L15.2,14.1z"/>
</svg>
