<?xml version="1.0" encoding="UTF-8"?>
<svg width="16px" height="16px" viewBox="0 0 16 16" version="1.1" xmlns="http://www.w3.org/2000/svg" xmlns:xlink="http://www.w3.org/1999/xlink">
    <title>-mockplus-</title>
    <g id="页面-1" stroke="none" stroke-width="1" fill="none" fill-rule="evenodd">
        <g id="PC---车型升级-中间页-629-确定" transform="translate(-613.000000, -236.000000)" fill="#FFFFFF" fill-rule="nonzero">
            <g id="编组-14" transform="translate(261.000000, 172.000000)">
                <g id="编组-4" transform="translate(240.000000, 24.000000)">
                    <g id="Group-28-Copy-4备份-3" transform="translate(111.000000, 38.000000)">
                        <g id="-mockplus-dup-|AC16BD2E-2C6D-4164-99A9-0DF31EF5A5FD|icon/列表推荐-Insurance-Copy" transform="translate(1.000000, 2.000000)">
                            <g id="logo" transform="translate(3.008990, 2.560700)">
                                <path d="M9.75558073,1.54575495 C9.61305036,1.42588187 9.42535527,1.36028953 9.23126241,1.36028953 C9.21356328,1.36028953 9.19586413,1.36028953 9.17817857,1.36142195 C9.16747487,1.36254179 9.04387974,1.36936149 8.85072413,1.36936149 C8.53059111,1.36936149 7.90559283,1.34900307 7.31354779,1.21897595 C6.54908897,1.05048425 5.66682152,0.270233448 5.41015005,0.116450645 C5.2807548,0.0384519933 5.13182667,0 4.9825997,0 C4.83398399,0 4.68505584,0.0384519933 4.55595944,0.11533081 C4.52483992,0.134556801 3.60104809,1.01993404 2.69744117,1.21897595 C2.10570856,1.34900307 1.46879763,1.36936149 1.14896346,1.36936149 C0.955780684,1.36936149 0.832511547,1.36254179 0.820313674,1.36142195 C0.803524617,1.36028953 0.786735574,1.36028953 0.76964768,1.36028953 C0.575242401,1.36028953 0.386949637,1.42586929 0.243821606,1.54575495 C0.0884957013,1.67578208 0,1.85782508 0,2.04892745 L0,3.77106332 C0,10.137246 4.64968472,10.9570435 4.84680667,10.9897956 C4.89198498,10.9966279 4.93744854,11 4.98292569,11 C5.02809042,11 5.07416523,10.9966279 5.11871869,10.9897956 C5.31615306,10.9570309 10,10.1372334 10,3.77106332 L10,2.04892745 C10,1.85782508 9.91120546,1.67579465 9.75558073,1.54575495 Z" id="Shape-Copy-2"></path>
                            </g>
                        </g>
                    </g>
                </g>
            </g>
        </g>
    </g>
</svg>