<?xml version="1.0" encoding="utf-8"?>
<!-- Generator: Adobe Illustrator 25.0.0, SVG Export Plug-In . SVG Version: 6.00 Build 0)  -->
<svg version="1.1" id="图层_1" xmlns="http://www.w3.org/2000/svg" xmlns:xlink="http://www.w3.org/1999/xlink" x="0px" y="0px"
	 viewBox="0 0 11 12" style="enable-background:new 0 0 11 12;" xml:space="preserve">
<style type="text/css">
	.st0{fill-rule:evenodd;clip-rule:evenodd;fill:#1EA255;}
</style>
<path id="Shape-Copy-2" class="st0" d="M9.8,2.1C9.6,2,9.4,1.9,9.2,1.9c0,0,0,0-0.1,0c0,0-0.1,0-0.3,0c-0.3,0-0.9,0-1.5-0.2
	C6.6,1.6,5.7,0.8,5.4,0.7C5.3,0.6,5.1,0.6,5,0.6c-0.1,0-0.3,0-0.4,0.1c0,0-1,0.9-1.9,1.1C2.1,1.9,1.5,1.9,1.2,1.9
	c-0.2,0-0.3,0-0.3,0c0,0,0,0-0.1,0C0.6,1.9,0.4,2,0.3,2.1C0.1,2.2,0,2.4,0,2.6v1.7c0,6.4,4.6,7.2,4.8,7.2c0,0,0.1,0,0.1,0
	c0,0,0.1,0,0.1,0c0.2,0,4.9-0.9,4.9-7.2V2.6C10,2.4,9.9,2.2,9.8,2.1z M8,4.5L4.8,7.4c0,0,0,0.1-0.1,0.1C4.6,7.6,4.5,7.6,4.3,7.6
	c-0.1,0-0.2,0-0.3-0.1c0,0-0.1-0.1-0.1-0.1L2.2,5.9C2,5.7,2,5.4,2.2,5.3c0.2-0.2,0.5-0.2,0.7,0l1.5,1.3l3-2.7c0.2-0.2,0.5-0.2,0.7,0
	C8.1,4.1,8.1,4.4,8,4.5z"/>
</svg>
