<?xml version="1.0" encoding="utf-8"?>
<!-- Generator: Adobe Illustrator 24.0.1, SVG Export Plug-In . SVG Version: 6.00 Build 0)  -->
<svg version="1.1" id="图层_1" xmlns="http://www.w3.org/2000/svg" xmlns:xlink="http://www.w3.org/1999/xlink" x="0px" y="0px"
	 viewBox="0 0 18 20" style="enable-background:new 0 0 18 20;" xml:space="preserve">
<style type="text/css">
	.st0{fill-rule:evenodd;clip-rule:evenodd;fill:#1EA255;}
</style>
<path id="形状结合" class="st0" d="M9,0.5c0.3,0,0.5,0.1,0.7,0.2c0.4,0.3,2,1.6,3.3,1.9c1,0.2,2.1,0.3,2.7,0.3
	c0.3,0,0.6,0,0.6,0c0,0,0.1,0,0.1,0c0.3,0,0.7,0.1,0.9,0.3c0.3,0.2,0.4,0.5,0.4,0.9l0,0v3c0,11.1-8.2,12.6-8.5,12.6
	c-0.1,0-0.2,0-0.2,0c-0.1,0-0.2,0-0.2,0c-0.3-0.1-8.5-1.5-8.5-12.6l0,0v-3c0-0.3,0.2-0.7,0.4-0.9C0.9,3,1.3,2.9,1.6,2.9
	c0,0,0.1,0,0.1,0c0,0,0.2,0,0.6,0c0.6,0,1.7,0,2.7-0.3c1.6-0.3,3.2-1.9,3.3-1.9C8.5,0.5,8.7,0.5,9,0.5z M10.6,4.8
	c-0.1-0.1-0.1,0-0.2,0l0,0l-4.8,6.3c-0.1,0.1-0.1,0.1,0,0.2c0,0.1,0.1,0.1,0.2,0.1l0,0h3.1l-0.7,4.3c0,0.1,0,0.2,0.1,0.2
	c0,0,0,0,0.1,0c0.1,0,0.1,0,0.2-0.1l0,0l4.5-6.3c0-0.1,0-0.1,0-0.2c0-0.1-0.1-0.1-0.2-0.1l0,0H10L10.7,5C10.7,4.9,10.7,4.8,10.6,4.8
	z"/>
</svg>
