<?xml version="1.0" encoding="utf-8"?>
<!-- Generator: Adobe Illustrator 23.0.1, SVG Export Plug-In . SVG Version: 6.00 Build 0)  -->
<svg version="1.1" id="圖層_1" xmlns="http://www.w3.org/2000/svg" xmlns:xlink="http://www.w3.org/1999/xlink" x="0px" y="0px"
	 viewBox="0 0 16 16" style="enable-background:new 0 0 16 16;" xml:space="preserve">
<style type="text/css">
	.st0{fill-rule:evenodd;clip-rule:evenodd;}
</style>
<title>island</title>
<desc>Created with Sketch.</desc>
<g>
	<path class="st0" d="M11.8,12.9c0.6-1.4,0.9-2.7,0.9-3.9c0-1.3-0.4-2.5-1.1-3.4c-0.3,0.2-0.5,0.4-0.9,0.6c0.9,1.8,0.6,4-0.8,6.5
		c-0.1,0-0.3,0-0.4,0c0,0,0,0-0.1,0c-0.7-0.7-1.7-1.1-2.7-1.3c0.2-1.6,0-3.6-1.8-4.5L4.7,7.3c0.9,0.6,1.3,2,1,3.9
		c-0.1,0-0.2,0-0.2,0c-2.6,0-4.1,1.2-4.5,3.5h5h5h4C14.2,13.8,13.1,13.2,11.8,12.9z"/>
	<path class="st0" d="M13.7,5.4C13.2,5.1,12.2,5,12,4.9c0.3-0.1,0.9-0.1,1.5-0.2c0.5-0.1,0.9-0.1,1.9-0.5c-0.4-0.3-1.1-0.4-1.8-0.3
		c-0.5,0.1-0.9,0.2-1.4,0.4C12.5,4,12.7,3.7,13,3.4c0.2-0.3,0.6-1,0.8-1.6c-0.4,0-1.2,0.4-1.6,0.9c-0.3,0.3-0.5,0.8-0.8,1.6
		c0.1-0.5,0.1-1,0-1.3c-0.2-0.5-0.5-1-1.1-1.3s-1.3-0.5-2-0.2c0.8,0.6,1.2,1,1.7,1.4C10.3,3.3,10.8,4,11,4.4C10.6,4,10,3.6,8.9,3.5
		c-1-0.1-2,0.1-2.9,0.8c1.3,0.2,1.9,0.2,2.8,0.3c0.7,0.1,1.6,0.1,2,0.2c-0.1,0-1,0.1-1.9,0.8C8.4,6,7.6,7.2,7.5,8.3
		C8.5,7.7,9.3,7,10,6.5c0.3-0.2,0.8-0.6,1.4-1.2c1.4,0.9,2.6,1.6,3.6,2.3C15,6.6,14.6,6,13.7,5.4z"/>
	<path class="st0" d="M4.3,6.3C3.9,6.1,3,6.2,2.4,6.5C1.8,6.8,1.3,7.5,1.2,8c0.9-0.6,1.1-0.8,1.7-1c0.5-0.2,1.1-0.4,1.5-0.5
		c-0.4,0.2-0.7,0.4-1,0.9C3.1,7.8,2.9,8.3,3.1,9.3c0.4-0.8,0.7-1.2,1-1.7c0.1-0.2,0.4-0.5,0.7-1c0.2,0.1,0.5,0.1,0.9,0.2
		c0.6,0.1,1,0.3,1.6,0.5C7.2,6.8,6.8,6.4,6.1,6.2c-0.5-0.2-1.1,0-1.2,0C5.1,6,5.4,6,5.8,5.8c0.4-0.1,0.7-0.2,1.1-0.3
		C6.5,5.3,6.1,5.2,5.7,5.3C5.4,5.4,5.1,5.6,4.9,5.8c0-0.2,0.1-0.4,0.2-0.5c0.1-0.3,0.2-0.5,0.5-1C5,4.4,4.7,4.6,4.5,4.9
		C4.4,5.2,4.4,5.4,4.4,5.8c0-0.1-0.1-0.2-0.3-0.4C3.9,5.1,3.5,4.9,2.8,5C2,5,1.6,5.1,1.2,5.4c0.9,0.1,1.3,0.2,1.7,0.3
		C3.2,5.8,3.9,6.1,4.3,6.3z"/>
</g>
</svg>
