<?xml version="1.0" encoding="UTF-8"?>
<svg width="12px" height="12px" viewBox="0 0 12 12" version="1.1" xmlns="http://www.w3.org/2000/svg" xmlns:xlink="http://www.w3.org/1999/xlink">
    <!-- Generator: Sketch 63.1 (92452) - https://sketch.com -->
    <title>icon/address</title>
    <desc>Created with Sketch.</desc>
    <g id="页面-1" stroke="none" stroke-width="1" fill="none" fill-rule="evenodd">
        <g id="显示信息多情况" transform="translate(-642.000000, -317.000000)" fill="#616161" fill-rule="nonzero">
            <g id="编组-10备份" transform="translate(641.000000, 314.000000)">
                <g id="图标/地址/填充" transform="translate(0.000000, 1.000000)">
                    <g id="编组" transform="translate(0.250000, 0.500000)">
                        <path d="M3.56801949,3.56801948 C5.3253788,1.81066017 8.1746212,1.81066017 9.93198052,3.56801948 C10.7557427,4.39178166 11.1933664,5.45545956 11.2448515,6.53413219 L11.25,6.75 L11.25,10.5 C11.25,10.9142136 10.9142136,11.25 10.5,11.25 L6.75,11.25 C5.59834957,11.25 4.44669914,10.8106602 3.56801949,9.93198052 C1.81066017,8.1746212 1.81066017,5.3253788 3.56801949,3.56801948 Z M6.75,4.95 C5.75588745,4.95 4.95,5.75588745 4.95,6.75 C4.95,7.74411255 5.75588745,8.55 6.75,8.55 C7.74411255,8.55 8.55,7.74411255 8.55,6.75 C8.55,5.75588745 7.74411255,4.95 6.75,4.95 Z" id="Combined-Shape" transform="translate(6.750000, 6.750000) rotate(-315.000000) translate(-6.750000, -6.750000) "></path>
                    </g>
                </g>
            </g>
        </g>
    </g>
</svg>