<?xml version="1.0" encoding="utf-8"?>
<!-- Generator: Adobe Illustrator 23.0.2, SVG Export Plug-In . SVG Version: 6.00 Build 0)  -->
<svg version="1.1" id="图层_1" xmlns="http://www.w3.org/2000/svg" xmlns:xlink="http://www.w3.org/1999/xlink" x="0px" y="0px"
	 viewBox="0 0 14 10" style="enable-background:new 0 0 14 10;" xml:space="preserve">
<style type="text/css">
	.st0{fill:#919191;}
</style>
<path class="st0" d="M12.6,0H1.7c-0.6,0-1.1,0.5-1.1,1V9c0,0.5,0.5,1,1.1,1h10.9c0.6,0,1.1-0.5,1.1-1V1C13.6,0.5,13.1,0,12.6,0z
	 M4.2,2.1c0.3-0.3,0.7-0.4,1.1-0.4s0.8,0.2,1.1,0.5c0.3,0.3,0.5,0.7,0.5,1.1c0,0.4-0.2,0.8-0.5,1.1C6.1,4.7,5.7,4.8,5.3,4.8
	S4.5,4.6,4.2,4.4C3.8,4.1,3.7,3.7,3.7,3.2C3.7,2.8,3.8,2.4,4.2,2.1z M7.9,7.7c0,0.2-0.2,0.5-0.5,0.5H3.2c-0.3,0-0.5-0.2-0.5-0.5V6.9
	c0-0.9,0.8-1.7,1.7-1.7h1.8c0.9,0,1.7,0.8,1.7,1.7V7.7L7.9,7.7z M11.6,7c0,0.3-0.2,0.5-0.5,0.5H9.5C9.2,7.5,9,7.3,9,7
	c0-0.3,0.2-0.5,0.5-0.5h1.7C11.4,6.6,11.6,6.8,11.6,7z M11.6,5c0,0.3-0.2,0.5-0.5,0.5H8.9C8.6,5.5,8.4,5.2,8.4,5
	c0-0.3,0.2-0.5,0.5-0.5h2.2C11.4,4.5,11.6,4.7,11.6,5z M11.6,2.9c0,0.3-0.2,0.5-0.5,0.5H8.5C8.2,3.4,8,3.2,8,2.9
	c0-0.3,0.2-0.5,0.5-0.5h2.7C11.4,2.4,11.6,2.6,11.6,2.9z"/>
</svg>
