<?xml version="1.0" encoding="utf-8"?>
<!-- Generator: Adobe Illustrator 24.0.1, SVG Export Plug-In . SVG Version: 6.00 Build 0)  -->
<svg version="1.1" id="图层_1" xmlns="http://www.w3.org/2000/svg" xmlns:xlink="http://www.w3.org/1999/xlink" x="0px" y="0px"
	 viewBox="0 0 15 16" style="enable-background:new 0 0 15 16;" xml:space="preserve">
<style type="text/css">
	.st0{fill-rule:evenodd;clip-rule:evenodd;fill:#4190A8;}
</style>
<path id="路径" class="st0" d="M13.6,6h-4c1.6-5.7-1.1-6-1.1-6c-1.1,0-0.9,0.9-1,1c0,2.8-3,5-3,5v8c0,0.8,1.1,1.1,1.5,1.1h6
	c0.6,0,1-1.5,1-1.5C14.6,8.5,14.6,7,14.6,7C14.6,6,13.6,6,13.6,6L13.6,6L13.6,6z"/>
<path id="路径_1_" class="st0" d="M2.9,6H0.5C0,6,0,6.5,0,6.5l0.5,8c0,0.5,0.5,0.5,0.5,0.5h2.1c0.4,0,0.4-0.3,0.4-0.3V6.7
	C3.5,6,2.9,6,2.9,6L2.9,6L2.9,6z"/>
</svg>
