<svg id="图层_1" data-name="图层 1" xmlns="http://www.w3.org/2000/svg" viewBox="0 0 11 11"><defs><style>.cls-1{fill:#e65e49;}</style></defs><title>5_icon</title><path id="Shape" class="cls-1" d="M5,6.48a.31.31,0,0,0-.31-.31H3.46a.61.61,0,0,0-.34.14l0,0A.59.59,0,0,0,3,6.68v6l0,0,0,0,0,0H4.74A.23.23,0,0,0,5,12.59V6.48Zm7.72-.82H10.56a.25.25,0,0,1-.24-.28l.11-.61a10.9,10.9,0,0,0,0-1.4c0-.1,0-.28,0-.31A1.26,1.26,0,0,0,9.12,1.8,1.3,1.3,0,0,0,7.84,3.09,3.3,3.3,0,0,1,6.77,5.73a3.89,3.89,0,0,1-.65.41,1.08,1.08,0,0,1-.31.06H5.53v6.29a.23.23,0,0,0,.24.24h6.14c.65,0,1.1-.45,1.27-1.3L13.94,7A1.28,1.28,0,0,0,12.7,5.66Z" transform="translate(-2.95 -1.8)"/></svg>