<?xml version="1.0" encoding="utf-8"?>
<!-- Generator: Adobe Illustrator 19.2.1, SVG Export Plug-In . SVG Version: 6.00 Build 0)  -->
<svg version="1.1" id="图层_1" xmlns="http://www.w3.org/2000/svg" xmlns:xlink="http://www.w3.org/1999/xlink" x="0px" y="0px"
	 viewBox="0 0 14 17" style="enable-background:new 0 0 14 17;" xml:space="preserve">
<title>ic_local</title>
<desc>Created with Sketch.</desc>
<g id="Page-1">
	<g id="ic_local">
		<g id="Oval-2">
			<path d="M6.7,16.4C6.4,16.1,0.5,10.5,0.5,7c0-3.6,2.9-6.5,6.5-6.5s6.5,2.9,6.5,6.5c0,1.5-1.1,3.7-3.3,6.3
				c-0.3,0.3-0.5,0.6-0.8,0.9l-0.7-0.7c0.2-0.3,0.5-0.6,0.8-0.9c2-2.4,3.1-4.4,3.1-5.7c0-3-2.5-5.5-5.5-5.5C4,1.5,1.5,4,1.5,7
				c0,2.5,4.2,7.1,5.8,8.6L6.7,16.4z"/>
		</g>
		<g id="Oval">
			<path d="M7,9.5C5.6,9.5,4.5,8.4,4.5,7S5.6,4.5,7,4.5c1.4,0,2.5,1.1,2.5,2.5S8.4,9.5,7,9.5z M7,5.5C6.2,5.5,5.5,6.2,5.5,7
				S6.2,8.5,7,8.5S8.5,7.8,8.5,7S7.8,5.5,7,5.5z"/>
		</g>
	</g>
</g>
</svg>
