<svg id="图层_1" data-name="图层 1" xmlns="http://www.w3.org/2000/svg" viewBox="0 0 17 20"><defs><style>.cls-1{fill:#494949;}</style></defs><title>lock</title><path class="cls-1" d="M36.58,33v3c0,.77-.09,1.37-1.08,1.37s-1.07-.62-1.07-1.39l0-3a1.93,1.93,0,0,1-.69-1.43c0-.91.8-1.39,1.79-1.39s1.79.5,1.79,1.39A2,2,0,0,1,36.58,33Zm5.68-5.37H28.74A1.64,1.64,0,0,0,27,29.13v9.37A1.64,1.64,0,0,0,28.74,40H42.26A1.64,1.64,0,0,0,44,38.49V29.13A1.64,1.64,0,0,0,42.26,27.62Z" transform="translate(-27 -20)"/><path class="cls-1" d="M39.44,25.56v-.87a3.48,3.48,0,0,0-6.93,0v3.89H30.78V24.69A5,5,0,0,1,36,20a5,5,0,0,1,5.19,4.69v.87Z" transform="translate(-27 -20)"/></svg>