<?xml version="1.0" encoding="UTF-8"?>
<svg width="16px" height="18px" viewBox="0 0 16 18" version="1.1" xmlns="http://www.w3.org/2000/svg" xmlns:xlink="http://www.w3.org/1999/xlink">
    <!-- Generator: Sketch 55.1 (78136) - https://sketchapp.com -->
    <title>logo</title>
    <desc>Created with Sketch.</desc>
    <g id="Page-1" stroke="none" stroke-width="1" fill="none" fill-rule="evenodd">
        <g id="订单确认页-已经购买" transform="translate(-159.000000, -805.000000)" fill="#1EA255">
            <g id="编组-2" transform="translate(125.000000, 780.000000)">
                <g id="icon/列表推荐-Insurance-Copy" transform="translate(30.000000, 22.000000)">
                    <g id="icon/discount" transform="translate(4.500000, 3.000000)">
                        <g id="logo">
                            <path d="M14.6468566,3.15968282 C14.433061,2.9798732 14.1515184,2.88148468 13.8603791,2.88148468 C13.8338304,2.88148468 13.8072817,2.88148468 13.7807533,2.88318332 C13.7646978,2.88486307 13.5793051,2.89509262 13.2895717,2.89509262 C12.8093722,2.89509262 11.8718747,2.86455499 10.9838072,2.66951431 C9.83711894,2.41677677 8.51371776,1.24640056 8.12871056,1.01572636 C7.93461769,0.89872838 7.71122549,0.84105039 7.48738504,0.84105039 C7.26446147,0.84105039 7.04106925,0.89872838 6.84742464,1.01404661 C6.80074536,1.04288559 5.41505762,2.37095145 4.05964724,2.66951431 C3.17204833,2.86455499 2.21668193,2.89509262 1.73693067,2.89509262 C1.44715651,2.89509262 1.26225281,2.88486307 1.243956,2.88318332 C1.21877241,2.88148468 1.19358885,2.88148468 1.167957,2.88148468 C0.876349086,2.88148468 0.593909941,2.97985433 0.379217894,3.15968282 C0.146229037,3.3547235 0.0134854848,3.62778801 0.0134854848,3.91444157 L0.0134854848,6.49764536 C0.0134854848,16.0469194 6.98801257,17.2766156 7.28369549,17.3257438 C7.35146296,17.3359922 7.41965829,17.3410504 7.48787401,17.3410504 C7.55562111,17.3410504 7.62473333,17.3359922 7.69156352,17.3257438 C7.98771507,17.2765968 15.0134855,16.0469005 15.0134855,6.49764536 L15.0134855,3.91444157 C15.0134855,3.62778801 14.8802937,3.35474237 14.6468566,3.15968282 Z M11.9404732,6.80235032 L7.12810492,11.1192554 C7.0980323,11.1648284 7.06112593,11.2105141 7.01647328,11.2493563 C6.87523542,11.3760731 6.68845266,11.4368934 6.5034544,11.4335092 C6.31851695,11.4368934 6.13213975,11.3760731 5.99094245,11.2493563 C5.94631008,11.2105141 5.90895758,11.1648284 5.87888496,11.1192554 L3.30709868,8.81128088 C3.03326148,8.56627009 3.03326148,8.1692556 3.30709868,7.92255274 C3.58089531,7.67761716 4.02506961,7.67761716 4.29890681,7.92255274 L6.50347467,9.90108255 L10.9491315,5.91369738 C11.2229687,5.66868658 11.6666766,5.66868658 11.9404935,5.91369738 C12.2142901,6.15861416 12.2142901,6.55739593 11.9404732,6.80235032 Z" id="Shape-Copy-2"></path>
                        </g>
                    </g>
                </g>
            </g>
        </g>
    </g>
</svg>