<?xml version="1.0" encoding="utf-8"?>
<!-- Generator: Adobe Illustrator 22.1.0, SVG Export Plug-In . SVG Version: 6.00 Build 0)  -->
<svg version="1.1" id="图层_1" xmlns="http://www.w3.org/2000/svg" xmlns:xlink="http://www.w3.org/1999/xlink" x="0px" y="0px"
	 viewBox="0 0 16 16" style="enable-background:new 0 0 16 16;" xml:space="preserve">
<style type="text/css">
	.st0{fill:#FFFFFF;}
</style>
<title>icon/列表推荐-low price</title>
<desc>Created with Sketch.</desc>
<path id="Combined-Shape" class="st0" d="M8,16c-4.4,0-8-3.6-8-8s3.6-8,8-8s8,3.6,8,8S12.4,16,8,16z M13.4,8.2L8.9,3.7
	C8.8,3.6,8.6,3.5,8.4,3.5L4.5,3.7C4.1,3.7,3.8,4,3.8,4.3L3.6,8.3c0,0.2,0.1,0.4,0.2,0.5l4.5,4.5c0.3,0.3,0.7,0.3,1,0l4-4.1
	C13.7,9,13.7,8.5,13.4,8.2z M6.3,6.2C6.1,6.3,5.8,6.4,5.6,6.3C5.3,6.3,5.1,6.1,5.1,5.8C5,5.6,5.1,5.3,5.3,5.1c0.3-0.3,0.7-0.3,1,0
	C6.6,5.4,6.6,5.9,6.3,6.2z"/>
</svg>
