<?xml version="1.0" encoding="utf-8"?>
<!-- Generator: Adobe Illustrator 24.0.1, SVG Export Plug-In . SVG Version: 6.00 Build 0)  -->
<svg version="1.1" id="图层_1" xmlns="http://www.w3.org/2000/svg" xmlns:xlink="http://www.w3.org/1999/xlink" x="0px" y="0px"
	 viewBox="0 0 22 17" style="enable-background:new 0 0 22 17;" xml:space="preserve">
<style type="text/css">
	.st0{fill-rule:evenodd;clip-rule:evenodd;}
</style>
<path id="路径" d="M1.2,3.1c0.8-0.6,1.9-0.7,3-0.3l0.2,0.1L3.7,4.7c-0.6-0.2-1-0.2-1.3-0.1C1.7,5.2,2,7.4,3.4,9.4
	c0.3,0.4,0.6,0.8,0.9,1.1c0.2,0.2,0.4,0.4,0.6,0.5l0.2,0.2L4,12.9c-0.4-0.3-0.7-0.6-1.1-0.9c-0.4-0.4-0.8-0.9-1.2-1.4
	C-0.2,7.8-0.6,4.4,1.2,3.1z"/>
<path id="路径_1_" d="M20.8,3.1c-0.9-0.7-2.2-0.7-3.5-0.1L17,3.1L18,4.9c0.8-0.4,1.3-0.4,1.6-0.2c0.7,0.5,0.4,2.7-1,4.7
	c-0.4,0.5-0.7,0.9-1.1,1.3L17.2,11l1.3,1.5c0.6-0.5,1.2-1.2,1.7-1.9C22.2,7.8,22.6,4.4,20.8,3.1z"/>
<path id="蒙版" d="M11.2,0.7C9,0.7,6.8,1.1,4.7,1.9C3.9,2.3,3.3,3.2,3.3,4.1v7.3c0,0.7,0.3,1.3,0.8,1.7c2.3,2.1,4.7,3.1,7.1,3.1
	c2.4,0,4.9-1.1,7.3-3.1c0.5-0.4,0.8-1.1,0.8-1.8V4.1c0-1-0.6-1.8-1.5-2.2C15.6,1.1,13.4,0.7,11.2,0.7z M11.2,2.7
	c2,0,3.9,0.4,5.9,1.1c0.1,0,0.2,0.2,0.2,0.3v7.3c0,0.1,0,0.2-0.1,0.2c-2.1,1.8-4.1,2.6-6,2.6c-1.9,0-3.8-0.9-5.8-2.6
	c-0.1-0.1-0.1-0.1-0.1-0.2V4.1c0-0.1,0.1-0.3,0.2-0.3C7.3,3.1,9.2,2.7,11.2,2.7z"/>
<path id="矩形" class="st0" d="M9.5,6.9H13c0.4,0,0.8,0.4,0.8,0.8l0,0c0,0.4-0.4,0.8-0.8,0.8H9.5c-0.4,0-0.8-0.4-0.8-0.8l0,0
	C8.7,7.3,9.1,6.9,9.5,6.9z"/>
<path id="矩形_1_" class="st0" d="M12.1,6v3.5c0,0.4-0.4,0.8-0.8,0.8l0,0c-0.4,0-0.8-0.4-0.8-0.8V6c0-0.4,0.4-0.8,0.8-0.8l0,0
	C11.7,5.2,12.1,5.5,12.1,6z"/>
</svg>
