<svg id="图层_1" data-name="图层 1" xmlns="http://www.w3.org/2000/svg" viewBox="0 0 20 30"><defs><style>.cls-1,.cls-2{fill:#137fc4;}.cls-2{fill-rule:evenodd;}</style></defs><title>mobile</title><path class="cls-1" d="M38.58,37.51a.58.58,0,0,1-.58.58H24.16a.58.58,0,0,1-.58-.58V17.67a.58.58,0,0,1,.58-.58H38a.58.58,0,0,1,.58.58ZM30.95,43a1.5,1.5,0,1,1,1.5-1.5A1.5,1.5,0,0,1,30.95,43ZM29.67,15h2.67c.37,0,.67.22.67.5s-.3.5-.67.5H29.67c-.37,0-.67-.22-.67-.5S29.3,15,29.67,15Zm7.8-1H24.53A3.5,3.5,0,0,0,21,17.46V40.54A3.5,3.5,0,0,0,24.53,44H37.47A3.5,3.5,0,0,0,41,40.54V17.46A3.5,3.5,0,0,0,37.47,14Z" transform="translate(-21 -14)"/><path class="cls-2" d="M32.62,21.12h0a.5.5,0,0,1,.21.68L29.54,28a.5.5,0,1,1-.88-.47l3.29-6.18A.5.5,0,0,1,32.62,21.12Z" transform="translate(-21 -14)"/><path class="cls-2" d="M32.42,26.5h0a.5.5,0,0,1,.21.68l-3.29,6.18a.5.5,0,0,1-.88-.47l3.29-6.18A.5.5,0,0,1,32.42,26.5Z" transform="translate(-21 -14)"/><circle class="cls-1" cx="6.92" cy="15.38" r="0.5"/><circle class="cls-1" cx="11.92" cy="11.38" r="0.5"/></svg>