<?xml version="1.0" encoding="utf-8"?>
<!-- Generator: Adobe Illustrator 23.0.1, SVG Export Plug-In . SVG Version: 6.00 Build 0)  -->
<svg version="1.1" id="图层_1" xmlns="http://www.w3.org/2000/svg" xmlns:xlink="http://www.w3.org/1999/xlink" x="0px" y="0px"
	 viewBox="0 0 40 40" style="enable-background:new 0 0 40 40;" xml:space="preserve">
<style type="text/css">
	.st0{fill-rule:evenodd;clip-rule:evenodd;fill:#5E636B;}
</style>
<g id="Page-1">
	<g id="地标页备份" transform="translate(-67.000000, -815.000000)">
		<g id="Motor-Station" transform="translate(51.000000, 801.000000)">
			<g id="icon_Motor-Station" transform="translate(16.000000, 14.000000)">
				<g id="icon" transform="translate(5.000000, 5.000000)">
					<path id="形状结合" class="st0" d="M23.7,0c1.8,0,3.2,1.5,3.2,3.2l0,0v19.7c0,1.6-1.1,2.9-2.6,3.2l0,1.9c0,0.6-0.4,1-1,1
						h-2.6c-0.6,0-1-0.4-1-1l0-1.8h-9.4l0,1.8c0,0.6-0.4,1-1,1H6.7c-0.6,0-1-0.4-1-1l0-1.9c-1.5-0.3-2.6-1.6-2.6-3.2l0,0V3.2
						C3.1,1.5,4.5,0,6.3,0l0,0H23.7z M23.9,20.1l-0.1,0c-0.8,0.1-2,0.4-3.3,1.4c-0.1,0-0.1,0.1-0.2,0.1c-0.2,0.1-0.7,0.5-0.6,1.5
						c0,0.1,0.1,0.2,0.1,0.2l0,0c0,0,0.1,0,0.1,0c0.9,0.1,4.5,0.2,4.8-0.9l0,0V21c0-0.5-0.5-0.9-1-0.9L23.9,20.1z M6.2,20.1
						c-0.6,0-1,0.4-1,0.9l0,0v1.5c0.3,1.1,3.9,1,4.8,0.9c0,0,0.1,0,0.1,0l0,0c0.1,0,0.1-0.1,0.1-0.2c0.2-1-0.4-1.4-0.6-1.5
						c-0.1,0-0.1-0.1-0.2-0.1C8.2,20.5,7,20.2,6.2,20.1z M23.3,4.6H6.7c-0.8,0-1.5,0.7-1.5,1.5l0,0v10.4c2.1,1,5.7,1.6,9.8,1.6
						s7.8-0.7,9.8-1.6l0,0V6.1C24.8,5.2,24.2,4.6,23.3,4.6L23.3,4.6z M2.1,6.8v6H1.1c-0.6,0-1.1-0.5-1.1-1.1V7.9
						c0-0.6,0.5-1.1,1.1-1.1H2.1z M28.9,6.8c0.6,0,1.1,0.5,1.1,1.1l0,0v3.8c0,0.6-0.5,1.1-1.1,1.1l0,0h-0.9v-6H28.9z M19,1.5h-8
						c-0.4,0-0.7,0.3-0.7,0.7l0,0v0.5c0,0.4,0.3,0.7,0.7,0.7l0,0h8c0.4,0,0.7-0.3,0.7-0.7l0,0V2.3C19.7,1.9,19.4,1.5,19,1.5L19,1.5z
						"/>
				</g>
			</g>
		</g>
	</g>
</g>
</svg>
