<?xml version="1.0" encoding="utf-8"?>
<!-- Generator: Adobe Illustrator 23.0.1, SVG Export Plug-In . SVG Version: 6.00 Build 0)  -->
<svg version="1.1" id="图层_1" xmlns="http://www.w3.org/2000/svg" xmlns:xlink="http://www.w3.org/1999/xlink" x="0px" y="0px"
	 viewBox="0 0 40 40" style="enable-background:new 0 0 40 40;" xml:space="preserve">
<style type="text/css">
	.st0{fill:#5E636B;}
</style>
<g id="Page-1">
	<g id="地标页备份" transform="translate(-67.000000, -143.000000)">
		<g id="Museum" transform="translate(51.000000, 129.000000)">
			<g id="icon_Museum" transform="translate(16.000000, 14.000000)">
				<g id="icon" transform="translate(5.000000, 5.000000)">
					<path id="形状结合" class="st0" d="M4.3,12.9c0,0,4.3,0,4.3,0c0,0,0,9.5,0,10.7l0,0.1h4.3c0,0,0-9.9,0-10.7l0,0h4.3
						c0,0,0,8,0,10.2l0,0.6c0,0,3.1,0,4,0l0.2,0c0,0,0-9.5,0-10.7l0-0.1h4.3c0,0,0,9.5,0,10.7l0,0.1c0,0,1.6,0,2,0l0.1,0
						c0,0,0,2.2,0,2.2c0,0,2.2,0,2.2,0c0,0,0,2.1,0,2.1c0,0-30,0-30,0l0,0v-2.1c0,0,2.1,0,2.1,0l0,0v-2.2c0,0,1.3,0,1.9,0l0.3,0
						C4.3,23.7,4.3,12.9,4.3,12.9z M15.8,0c0.9,0,1.8,0.3,2.6,0.9l0,0l9.6,7.8l0,0l2.1,0v2.1H0V8.7l2.1,0l0,0l9.7-7.8
						C12.5,0.3,13.4,0,14.3,0l0,0H15.8z"/>
				</g>
			</g>
		</g>
	</g>
</g>
</svg>
