<?xml version="1.0" encoding="utf-8"?>
<!-- Generator: Adobe Illustrator 23.0.1, SVG Export Plug-In . SVG Version: 6.00 Build 0)  -->
<svg version="1.1" id="图层_1" xmlns="http://www.w3.org/2000/svg" xmlns:xlink="http://www.w3.org/1999/xlink" x="0px" y="0px"
	 viewBox="0 0 28 28" style="enable-background:new 0 0 28 28;" xml:space="preserve">
<style type="text/css">
	.st0{fill:#616161;}
	.st1{fill-rule:evenodd;clip-rule:evenodd;fill:#616161;}
</style>
<g id="Page-1">
	<g id="机场页" transform="translate(-361.000000, -3602.000000)">
		<g id="customer-reviews" transform="translate(0.000000, 2993.000000)">
			<g id="right">
				<g id="编组-3" transform="translate(32.000000, 295.000000)">
					<g id="编组-2" transform="translate(32.000000, 32.000000)">
						<g id="icon_clock备份" transform="translate(297.000000, 282.000000)">
							<g id="分组-7" transform="translate(3.000000, 3.000000)">
								<path id="椭圆形" class="st0" d="M11-1C4.4-1-1,4.4-1,11s5.4,12,12,12s12-5.4,12-12S17.6-1,11-1z M11,1
									c5.5,0,10,4.5,10,10s-4.5,10-10,10S1,16.5,1,11S5.5,1,11,1z"/>
								<path id="矩形" class="st1" d="M10,4h0.2c0.5,0,0.9,0.4,0.9,0.9V13l0,0H10c-0.5,0-0.9-0.4-0.9-0.9V4.9C9.1,4.4,9.5,4,10,4
									z"/>
								<path class="st1" d="M10,11h5.2c0.5,0,0.9,0.4,0.9,0.9v0.2c0,0.5-0.4,0.9-0.9,0.9H10l0,0V11z"/>
							</g>
						</g>
					</g>
				</g>
			</g>
		</g>
	</g>
</g>
</svg>
