<?xml version="1.0" encoding="utf-8"?>
<!-- Generator: Adobe Illustrator 24.0.1, SVG Export Plug-In . SVG Version: 6.00 Build 0)  -->
<svg version="1.1" id="图层_1" xmlns="http://www.w3.org/2000/svg" xmlns:xlink="http://www.w3.org/1999/xlink" x="0px" y="0px"
	 viewBox="0 0 18 14" style="enable-background:new 0 0 18 14;" xml:space="preserve">
<style type="text/css">
	.st0{fill-rule:evenodd;clip-rule:evenodd;fill:#222222;}
</style>
<path class="st0" d="M16.8,0.6L16.8,0.6C17,1,17.4,2,17.6,3.5l0,0l-0.1,0.2c-0.2,0.5-0.4,0.9-0.5,1l0,0l0,0.1C17,4.9,17,5.2,17,5.3
	l0,0L17.1,5c0.2-0.4,0.4-0.9,0.6-1.3l0,0l0,0c0,0.1,0.1,0.4,0.1,0.7l0,0l-0.2,0.3c-0.3,0.5-0.6,0.9-0.9,1.3l0,0l0,0
	c0,0.1-0.1,0.2-0.1,0.3l0,0l0.2-0.2c0.3-0.4,0.6-0.8,0.9-1.3l0,0l0,0.3c0,0.2,0,0.3,0,0.5l0,0l-0.2,0.2C17.3,6.2,17,6.6,16.5,7l0,0
	l0,0c0,0,0,0.1-0.1,0.1l0,0L16.7,7c0.4-0.3,0.8-0.6,1.1-0.9l0,0l0,0.2c0,0.2,0,0.3,0,0.4l0,0l-0.3,0.3C17,7.3,16.5,7.6,16,8l0,0l0,0
	c0,0.1,0,0-0.1,0.2l0,0L16.3,8c0.5-0.3,0.9-0.6,1.3-1l0,0l0,0.1c0,0.2-0.1,0.4-0.1,0.5l0,0l-0.3,0.2c-0.5,0.4-1,0.7-1.6,0.9l0,0l0,0
	c0,0.1-0.1,0.2-0.1,0.2l0,0l0.3-0.1c0.5-0.2,1-0.5,1.5-0.9l0,0l0,0.1c0,0.2-0.2,0.5-0.2,0.6l0,0l-0.3,0.2c-0.7,0.4-1.3,0.7-1.9,0.9
	l0,0l0,0c0,0,0,0.1-0.1,0.1l0,0L15,9.8c0.6-0.2,1.2-0.5,1.8-0.8l0,0l0,0.1c-0.1,0.1-0.1,0.3-0.3,0.6l0,0l-0.4,0.2
	c-0.7,0.3-1.4,0.6-2,0.7l0,0l-0.2,0.1l0.2,0c0.7-0.1,1.3-0.3,2.2-0.7l0,0L16.3,10c-0.2,0.3-0.2,0.4-0.3,0.5l0,0l-0.4,0.1
	c-0.8,0.2-1.6,0.4-2.3,0.4l0,0l-0.1,0.1l0.4,0c0.8,0,1.4-0.2,2.1-0.3l0,0l0,0c-0.1,0.1-0.3,0.4-0.4,0.6l0,0l-0.4,0.1
	c-0.9,0.2-1.7,0.2-2.4,0.2l0,0l-0.1,0c-0.2,0.1-0.1,0.1-0.2,0.1l0,0l0.4,0c0.9,0,1.6-0.1,2.4-0.2l0,0l-0.1,0.1
	c-0.1,0.2-0.3,0.3-0.6,0.6l0,0l-0.2,0c-0.8,0.1-2,0.2-3.1,0.1l0,0l-0.5,0.2c-0.1,0-0.2,0.1-0.3,0.1c0.2,0,0.5,0.1,0.7,0.1l0,0
	l-0.2,0.1c-0.1,0.1-0.3,0.2-0.4,0.2l0,0l-0.5-0.1c-0.1,0-0.3-0.1-0.4-0.1l-0.4,0.1l0,0l-0.5,0.1L8,13.2c-0.1-0.1-0.3-0.2-0.4-0.2
	l0,0L8,12.9c0.1,0,0.3-0.1,0.4-0.1c-0.3-0.1-0.6-0.2-0.8-0.3l0,0l-0.3,0c-1.1,0.1-2.3,0-3-0.1l0,0L4,12.3c-0.2-0.2-0.4-0.4-0.5-0.6
	l0,0l0.3,0.1c0.7,0.1,1.5,0.2,2.4,0.1l0,0l0,0c-0.1,0,0,0-0.3-0.1l0,0l-0.3,0c-0.8,0-1.5,0-2.5-0.3l0,0l-0.1-0.1
	c-0.2-0.2-0.4-0.5-0.4-0.5l0,0L3.1,11c0.7,0.2,1.3,0.3,2.2,0.3l0,0l-0.1-0.1l-0.4,0C4,11,3.2,10.9,2.4,10.6l0,0l-0.1-0.1
	C2.3,10.4,2.2,10.2,2,9.9l0,0L2.3,10c0.8,0.3,1.4,0.5,2.1,0.6l0,0l-0.2-0.1l-0.3-0.1C3.3,10.2,2.5,10,1.8,9.6l0,0L1.8,9.4
	C1.7,9.2,1.6,9,1.5,8.9l0,0l0.3,0.2C2.4,9.4,3,9.7,3.6,9.9l0,0l0,0c0-0.1-0.1-0.1-0.1-0.1l0,0L3.3,9.6c-0.6-0.2-1.2-0.5-1.9-1l0,0
	l0-0.1C1.2,8.4,1.1,8.1,1.1,8l0,0l0.3,0.2c0.5,0.3,1,0.6,1.5,0.8l0,0l0,0c0-0.1-0.1-0.2-0.1-0.2l0,0L2.4,8.6C1.9,8.3,1.4,8,0.9,7.7
	l0,0l0-0.1c0-0.1-0.1-0.3-0.1-0.6l0,0l0.3,0.3c0.4,0.3,0.8,0.6,1.3,0.9l0,0l0-0.1c0-0.1,0-0.1-0.1-0.2l0,0L2,7.8
	C1.5,7.4,1,7,0.6,6.6l0,0l0-0.1c0-0.1,0-0.3,0-0.5l0,0l0.2,0.2c0.3,0.3,0.7,0.6,1.1,0.9l0,0l0-0.1c0-0.1,0-0.1,0-0.1l0,0L1.6,6.8
	C1.2,6.4,0.8,6,0.5,5.6l0,0l0-0.3c0-0.2,0-0.3,0-0.5l0,0l0.2,0.3C1,5.5,1.3,6,1.6,6.3l0,0l0,0C1.6,6.2,1.6,6,1.5,6l0,0L1.4,5.8
	C1.1,5.4,0.8,5,0.5,4.5l0,0l0-0.1c0-0.3,0.1-0.6,0.1-0.6l0,0l0.1,0.3c0.2,0.4,0.4,0.9,0.6,1.3l0,0l0-0.1c0-0.2-0.1-0.5-0.1-0.6l0,0
	l0,0C1.1,4.4,0.9,4,0.7,3.5C1,1.9,1.4,0.9,1.5,0.6l0,0l0,0.1c-0.2,0.9-0.8,4.8,1.5,8l0,0L3.3,9c1.5,1.9,3.6,3,5.9,3.6
	c2.4-0.7,4.6-1.8,6.1-3.9C17.7,5.4,17,1.4,16.8,0.6L16.8,0.6z M9.6,0.1v1c0.7,0,1.3,0.2,1.7,0.6c0.5,0.4,0.8,1,0.9,1.8h-1.4
	c-0.1-0.5-0.3-0.8-0.5-1c-0.2-0.1-0.4-0.2-0.7-0.2v2.6c0.9,0.3,1.5,0.5,1.5,0.6c0.8,0.5,1.2,1.1,1.2,1.9c0,0.8-0.3,1.4-1,1.9
	C11,9.4,10.4,9.6,9.6,9.6v1H8.8v-1C8,9.5,7.4,9.3,7,8.9C6.5,8.5,6.2,7.8,6.1,6.8h1.4c0,0.6,0.2,1,0.5,1.3c0.2,0.2,0.5,0.3,0.9,0.3
	V5.7L7.5,5.3C6.6,4.8,6.2,4.2,6.2,3.3c0-0.8,0.3-1.3,0.9-1.8c0.5-0.3,1-0.5,1.7-0.5v-1H9.6z M9.6,6v2.4c0.3,0,0.6-0.1,0.9-0.3
	C10.8,8,11,7.7,11,7.3c0-0.5-0.4-0.9-1.2-1.2C9.7,6,9.7,6,9.6,6z M8.8,2.1c-0.3,0-0.6,0.1-0.7,0.2C7.8,2.6,7.6,2.9,7.6,3.3
	c0,0.4,0.4,0.8,1.2,1.1V2.1z"/>
</svg>
