<svg id="图层_1" data-name="图层 1" xmlns="http://www.w3.org/2000/svg" viewBox="0 0 9.62 11.45"><defs><style>.cls-1{fill:#efefef;}</style></defs><title>送一箱油</title><ellipse class="cls-1" cx="3.42" cy="7.89" rx="0.41" ry="0.42"/><path class="cls-1" d="M9.53,5.34,5.62,2.85l.94-.77,3,1.76Zm-4.93,5.5A2.65,2.65,0,0,1,2,8.17S2,8.08,2,8h.47s0,.08,0,.12A2.14,2.14,0,1,0,4.59,6h-.1V5.5h.11a2.67,2.67,0,0,1,0,5.34Zm0-4A1.33,1.33,0,1,1,3.28,8.16,1.32,1.32,0,0,1,4.59,6.83ZM4.36,5.36c0,1.24,0,1.25,0,1.25A1.5,1.5,0,0,0,3.1,7.9s-1.23,0-1.23,0A2.62,2.62,0,0,1,4.36,5.36Zm6.2-2.28C10.35,2.94,7,.92,7,.92S6.53.5,6.24.68L4,2.14V1.43H4V.64S3.86.28,3.57.28h-2s-.36.1-.37.4h0c0,.31,0,.74,0,.74v10a.31.31,0,0,0,.31.31h9a.31.31,0,0,0,.31-.31V9.91h0c0-1.75,0-6.31,0-6.31A.86.86,0,0,0,10.56,3.08Z" transform="translate(-1.18 -0.28)"/></svg>