<?xml version="1.0" encoding="utf-8"?>
<!-- Generator: Adobe Illustrator 23.0.1, SVG Export Plug-In . SVG Version: 6.00 Build 0)  -->
<svg version="1.1" id="图层_1" xmlns="http://www.w3.org/2000/svg" xmlns:xlink="http://www.w3.org/1999/xlink" x="0px" y="0px"
	 viewBox="0 0 40 40" style="enable-background:new 0 0 40 40;" xml:space="preserve">
<style type="text/css">
	.st0{fill-rule:evenodd;clip-rule:evenodd;fill:#5E636B;}
</style>
<g id="Page-1">
	<g id="地标页备份" transform="translate(-67.000000, -647.000000)">
		<g id="Organization" transform="translate(51.000000, 633.000000)">
			<g id="icon_Organization" transform="translate(16.000000, 14.000000)">
				<path id="Fill-1" class="st0" d="M5.6,5v2.6H4.1v1.1h0.6v7.5v14H4V33h32v-2.8h-0.8v-14H36v-1l-18.5-2.3V8.7h0.6V7.6H7.3V5H5.6z
					 M11.4,16h4.8v-3h-4.8V16z M5.5,16h4.8v-3H5.5V16z M18.4,27.8h14.7v-8.3H18.4V27.8z M11.4,24.1h4.8v-3h-4.8V24.1z M6.5,26.9h3.8
					v-5.6H6.5V26.9z"/>
			</g>
		</g>
	</g>
</g>
</svg>
