<svg id="图层_1" data-name="图层 1" xmlns="http://www.w3.org/2000/svg" viewBox="0 0 19 20"><defs><style>.cls-1{fill:#137fc4;}</style></defs><title>行李箱</title><path class="cls-1" d="M30.5,19h2.64a2,2,0,0,1,2.11,2.06c0,.42,0,.85,0,1.27a.68.68,0,0,1-1.33.18.89.89,0,0,1,0-.23c0-.4,0-.79,0-1.19a.69.69,0,0,0-.77-.76H27.88a.68.68,0,0,0-.77.75c0,.4,0,.8,0,1.2a.67.67,0,0,1-.51.69.66.66,0,0,1-.84-.6,13.56,13.56,0,0,1,0-1.6,2,2,0,0,1,2-1.77H30.5ZM27.11,31q0-1.28,0-2.57a1.72,1.72,0,0,0,0-.21.66.66,0,0,0-.56-.56.67.67,0,0,0-.79.69q0,2.63,0,5.26s0,0,0,.06a.68.68,0,0,0,.83.63.67.67,0,0,0,.53-.69C27.11,32.75,27.11,31.88,27.11,31Zm6.79,0q0,1.32,0,2.64a.66.66,0,0,0,.43.65.68.68,0,0,0,.93-.65c0-1.1,0-2.2,0-3.3,0-.66,0-1.32,0-2a.68.68,0,1,0-1.35,0C33.89,29.23,33.89,30.11,33.89,31Zm-7.58,6.67a2,2,0,0,1-3.83,0,.24.24,0,0,0-.15-.16A2,2,0,0,1,21,35.8c0-.08,0-.16,0-.23q0-4.56,0-9.12a2,2,0,0,1,1.18-1.92,2.09,2.09,0,0,1,.94-.19H38a2,2,0,0,1,2,1.52,2.34,2.34,0,0,1,.06.56q0,4.59,0,9.18a2,2,0,0,1-1.36,2,.23.23,0,0,0-.11.12,2,2,0,0,1-3.8.09.15.15,0,0,0-.16-.1H26.32Z" transform="translate(-21 -19)"/></svg>