<?xml version="1.0" encoding="utf-8"?>
<!-- Generator: Adobe Illustrator 23.0.1, SVG Export Plug-In . SVG Version: 6.00 Build 0)  -->
<svg version="1.1" id="图层_1" xmlns="http://www.w3.org/2000/svg" xmlns:xlink="http://www.w3.org/1999/xlink" x="0px" y="0px"
	 viewBox="0 0 40 40" style="enable-background:new 0 0 40 40;" xml:space="preserve">
<style type="text/css">
	.st0{fill-rule:evenodd;clip-rule:evenodd;fill:#5E636B;}
</style>
<g id="Page-1">
	<g id="地标页备份" transform="translate(-67.000000, -311.000000)">
		<g id="Park" transform="translate(51.000000, 297.000000)">
			<g id="icon_Park" transform="translate(16.000000, 14.000000)">
				<g id="编组" transform="translate(3.000000, 4.000000)">
					<path id="形状结合" class="st0" d="M5,12.9v14.9h1.8L7.5,31H0.7l0.8-3.2h1.7V12.9H5z M34,22.8v2.9h-2.4V31h-2.4v-5.3H10.8
						V31H8.4v-5.3H6.1v-2.9H34z M31.8,13.6v3.5h-2.4v1.1h2.4v3.5H8.3v-3.5h2.1v-1.1H8.3v-3.5H31.8z M28.1,17.1H11.7v1.1h16.4V17.1z
						 M7.4,0l0.7,1.7l-1.3,9.7H1.3L0,1.7L0.7,0H7.4z M6.6,3.1h-5l0.9,7h3.1L6.6,3.1z"/>
				</g>
			</g>
		</g>
	</g>
</g>
</svg>
