<?xml version="1.0" encoding="utf-8"?>
<!-- Generator: Adobe Illustrator 23.0.2, SVG Export Plug-In . SVG Version: 6.00 Build 0)  -->
<svg version="1.1" id="图层_1" xmlns="http://www.w3.org/2000/svg" xmlns:xlink="http://www.w3.org/1999/xlink" x="0px" y="0px"
	 viewBox="0 0 16 17" style="enable-background:new 0 0 16 17;" xml:space="preserve">
<style type="text/css">
	.st0{fill:#9E9E9E;}
</style>
<path id="形状" class="st0" d="M5,5.8h1.3c0.1-0.9,0.2-1.7,0.5-2.3C5.9,3.9,5.2,4.8,5,5.8z M5,6.9c0.2,1,0.9,1.9,1.8,2.3
	C6.5,8.5,6.4,7.7,6.3,6.9H5L5,6.9z M8.2,9.4C8.5,9.2,8.9,8.3,9,6.9H7.4C7.5,8.3,8,9.2,8.2,9.4z M7.4,5.8H9C8.9,4.3,8.5,3.5,8.2,3.2
	C8,3.5,7.5,4.3,7.4,5.8z M9.6,9.2c1-0.4,1.7-1.3,1.8-2.3h-1.3C10.1,7.7,9.9,8.5,9.6,9.2z M14.8,0H2.7C1.5,0,0.5,1,0.5,2.1v12.6
	c0,1.2,1,2.1,2.2,2.1h12.1c0.6,0,1.1-0.5,1.1-1V1.1C15.9,0.5,15.4,0,14.8,0z M12.1,13.7H4.4c-0.3,0-0.6-0.2-0.6-0.5s0.2-0.5,0.6-0.5
	h7.7c0.3,0,0.6,0.2,0.6,0.5S12.4,13.7,12.1,13.7z M8.2,10.5c-2.4,0-4.4-1.9-4.4-4.2s2-4.2,4.4-4.2s4.4,1.9,4.4,4.2
	S10.6,10.5,8.2,10.5z M9.6,3.5c0.3,0.6,0.4,1.4,0.5,2.3h1.3C11.3,4.8,10.6,3.9,9.6,3.5z"/>
</svg>
