<?xml version="1.0" encoding="utf-8"?>
<!-- Generator: Adobe Illustrator 23.0.2, SVG Export Plug-In . SVG Version: 6.00 Build 0)  -->
<svg version="1.1" id="图层_1" xmlns="http://www.w3.org/2000/svg" xmlns:xlink="http://www.w3.org/1999/xlink" x="0px" y="0px"
	 viewBox="0 0 12 12" style="enable-background:new 0 0 12 12;" xml:space="preserve">
<style type="text/css">
	.st0{fill-rule:evenodd;clip-rule:evenodd;fill:#FFFFFF;}
</style>
<path id="形状结合" class="st0" d="M11.5,4.8v2.7C9.9,8.2,8.1,8.6,6,8.6c-2.1,0-3.9-0.4-5.5-1.1V4.8C2.1,5.5,3.9,5.8,6,5.8
	C8.1,5.8,9.9,5.5,11.5,4.8z M11.5,4.2C9.9,5,8.1,5.3,6,5.3C3.9,5.3,2.1,5,0.5,4.2V1.9h0c0,0,0,0,0,0C0.5,1.1,3,0.4,6,0.4
	s5.5,0.7,5.5,1.5c0,0,0,0,0,0.1V4.2z M11.5,8v1.9c0,0.8-2.5,1.5-5.5,1.5s-5.5-0.7-5.5-1.5V8C2.1,8.7,3.9,9.1,6,9.1
	C8.1,9.1,9.9,8.7,11.5,8z M6,2.9c2.5,0,4.5-0.4,4.5-1s-2-1-4.5-1s-4.5,0.4-4.5,1S3.5,2.9,6,2.9z"/>
</svg>
