<?xml version="1.0" encoding="utf-8"?>
<!-- Generator: Adobe Illustrator 23.0.2, SVG Export Plug-In . SVG Version: 6.00 Build 0)  -->
<svg version="1.1" id="图层_1" xmlns="http://www.w3.org/2000/svg" xmlns:xlink="http://www.w3.org/1999/xlink" x="0px" y="0px"
	 viewBox="0 0 19 13" style="enable-background:new 0 0 19 13;" xml:space="preserve">
<style type="text/css">
	.st0{fill:#9E9E9E;}
</style>
<path class="st0" d="M0.3,4.3v7.5c0,0.3,0.1,0.6,0.3,0.8S1.2,13,1.5,13h15.8c0.3,0,0.6-0.1,0.8-0.3s0.3-0.5,0.3-0.8V4.3H0.3L0.3,4.3
	z M3.4,9h6.2v0.8H3.4V9z M3.4,6.7h9.4v0.8H3.4V6.7z M0.3,1.5v1.2h18.2V1.5c0-0.3-0.1-0.6-0.3-0.8s-0.5-0.3-0.8-0.3H1.5
	c-0.3,0-0.6,0.1-0.8,0.3S0.3,1.2,0.3,1.5L0.3,1.5z"/>
</svg>
