<?xml version="1.0" encoding="utf-8"?>
<!-- Generator: Adobe Illustrator 23.0.2, SVG Export Plug-In . SVG Version: 6.00 Build 0)  -->
<svg version="1.1" id="图层_1" xmlns="http://www.w3.org/2000/svg" xmlns:xlink="http://www.w3.org/1999/xlink" x="0px" y="0px"
	 viewBox="0 0 11 10" style="enable-background:new 0 0 11 10;" xml:space="preserve">
<style type="text/css">
	.st0{fill:#919191;}
</style>
<path class="st0" d="M7.1,6.2h3.3V9c0,0,0,0.9-0.9,0.9H0.9C0.4,9.9,0,9.6,0,9V0.9C0,0.4,0.4,0,0.9,0h8.5c0.9,0,0.9,0.9,0.9,0.9v0.7
	H7.8c-0.1,0-0.1,0-0.1,0H7.1c-0.8,0-1.5,0.8-1.5,1.6v1.4C5.6,5.5,6.3,6.2,7.1,6.2L7.1,6.2z M11,2.6v2.6c0,0,0,0.3-0.3,0.3l0,0H7.1
	c-0.5,0-0.9-0.4-0.9-0.9V3.2c0-0.5,0.4-0.9,0.9-0.9h0.6l0,0h2.9l0,0l0,0l0,0C11,2.3,11,2.6,11,2.6z M7.9,3.9c0-0.3-0.2-0.5-0.5-0.5
	S7,3.6,7,3.9s0.2,0.5,0.5,0.5C7.7,4.4,7.9,4.2,7.9,3.9z"/>
</svg>
