<?xml version="1.0" encoding="utf-8"?>
<!-- Generator: Adobe Illustrator 23.0.1, SVG Export Plug-In . SVG Version: 6.00 Build 0)  -->
<svg version="1.1" id="圖層_1" xmlns="http://www.w3.org/2000/svg" xmlns:xlink="http://www.w3.org/1999/xlink" x="0px" y="0px"
	 viewBox="0 0 80 80" style="enable-background:new 0 0 80 80;" xml:space="preserve">
<style type="text/css">
	.st0{fill-rule:evenodd;clip-rule:evenodd;}
</style>
<title>assist/PDP2</title>
<desc>Created with Sketch.</desc>
<g>
	<path id="Combined-Shape" class="st0" d="M28.7,64.5l0.4,1.1l-4.1-2.9C19.3,58.9,16,52.5,16,45.7v-2.5V16v-2.5h4
		c6.5,0,12.7-1.9,18.1-5.3L21.4,47.6c-0.4,1-0.1,2.1,0.8,2.7c0.9,0.6,2.1,0.5,2.8-0.2l16.6-15.8l-8.4,27.7l-1.9-0.5
		c-0.8-0.2-1.7,0-2.2,0.7C28.6,62.9,28.4,63.7,28.7,64.5z M61,13.8h4v2.5v27.1v2.5c0,6.8-3.3,13.2-8.9,17.1l-9.2,6.4
		c0.5-0.5,0.7-1.3,0.6-2c-0.2-0.8-0.8-1.5-1.6-1.7L44,65.1l8.6-45.2c0.2-0.9-0.2-1.9-1.1-2.4c-0.8-0.5-1.8-0.4-2.6,0.2L36.5,28
		l6.6-19.4C48.5,11.9,54.7,13.8,61,13.8z M50.6,19.3l-9,47.3l3.9,1L35.2,76l-4.3-12.2l3.9,1l11.5-38L23.5,48.5L42.4,4L32,34.5
		L50.6,19.3z"/>
</g>
</svg>
