<?xml version="1.0" encoding="utf-8"?>
<!-- Generator: Adobe Illustrator 22.1.0, SVG Export Plug-In . SVG Version: 6.00 Build 0)  -->
<svg version="1.1" id="图层_1" xmlns="http://www.w3.org/2000/svg" xmlns:xlink="http://www.w3.org/1999/xlink" x="0px" y="0px"
	 viewBox="0 0 16 16" style="enable-background:new 0 0 16 16;" xml:space="preserve">
<style type="text/css">
	.st0{fill:#E65E49;}
</style>
<path id="Combined-Shape" class="st0" d="M8,14.3l-1.6,0.8c-0.5,0.3-1.1,0.1-1.3-0.4c0,0,0,0,0,0l-0.8-1.6l-1.7-0.3
	c-0.5-0.1-0.9-0.6-0.8-1.1c0,0,0,0,0,0L2,10L0.7,8.7c-0.4-0.4-0.4-1,0-1.4c0,0,0,0,0,0L2,6L1.7,4.3C1.6,3.8,2,3.2,2.5,3.2
	c0,0,0,0,0,0l1.7-0.3l0.8-1.6c0.2-0.5,0.8-0.7,1.3-0.5c0,0,0,0,0,0L8,1.7l1.6-0.8c0.5-0.3,1.1-0.1,1.3,0.4c0,0,0,0,0,0l0.8,1.6
	l1.7,0.3c0.5,0.1,0.9,0.6,0.8,1.1c0,0,0,0,0,0L14,6l1.3,1.2c0.4,0.4,0.4,1,0,1.4c0,0,0,0,0,0L14,10l0.3,1.7c0.1,0.5-0.3,1.1-0.8,1.2
	c0,0,0,0,0,0l-1.7,0.3l-0.8,1.6c-0.2,0.5-0.8,0.7-1.3,0.5c0,0,0,0,0,0L8,14.3z M4.5,6c0,0.8,0.7,1.5,1.5,1.5S7.5,6.9,7.5,6
	c0-0.8-0.7-1.5-1.5-1.5S4.5,5.2,4.5,6z M8.5,11c0,0.8,0.7,1.5,1.5,1.5s1.5-0.6,1.5-1.5c0-0.8-0.7-1.5-1.5-1.5S8.5,10.2,8.5,11z
	 M6.1,12.4l5.2-7.9H9.9l-5.2,7.9H6.1z"/>
</svg>
