<?xml version="1.0" encoding="utf-8"?>
<!-- Generator: Adobe Illustrator 22.1.0, SVG Export Plug-In . SVG Version: 6.00 Build 0)  -->
<svg version="1.1" id="图层_1" xmlns="http://www.w3.org/2000/svg" xmlns:xlink="http://www.w3.org/1999/xlink" x="0px" y="0px"
	 viewBox="0 0 16 16" style="enable-background:new 0 0 16 16;" xml:space="preserve">
<style type="text/css">
	.st0{fill:#9E9E9E;}
</style>
<path id="Combined-Shape" class="st0" d="M12.5,8.9c0,2.5-2,4.6-4.5,4.6s-4.5-2-4.5-4.6c0-1.2,0.5-2.4,1.3-3.2l0,0L8,2.4l3.2,3.2
	l0,0C12,6.5,12.5,7.7,12.5,8.9z M11.2,9.4L11.2,9.4L11.2,9.4c0-0.1-0.1-0.2-0.3-0.2c-0.2,0-0.3,0.1-0.3,0.3h0c0,0,0,0,0,0
	c0,0,0,0,0,0c0,0,0,0.1,0,0.1c0.1,0.6-0.1,1.1-0.4,1.6s-0.9,0.7-1.4,0.7c-0.1,0-0.1,0-0.2,0v0c0,0,0,0,0,0c-0.1,0-0.2,0.1-0.3,0.2
	c0,0.1,0,0.2,0,0.3s0.2,0.1,0.3,0.1c0.1,0,0.1,0,0.2,0c0.7,0,1.4-0.3,1.9-0.9C11.1,10.9,11.3,10.1,11.2,9.4z"/>
</svg>
