<svg id="图层_1" data-name="图层 1" xmlns="http://www.w3.org/2000/svg" viewBox="0 0 12.84 9.8"><defs><style>.cls-1{fill:#ededed;}</style></defs><title>电话卡</title><path class="cls-1" d="M13.12,4.66H11.84V3.19h.64a.69.69,0,0,1,.64.73Zm0,2H11.84V5.4h1.28Zm0,2.2a.69.69,0,0,1-.64.73h-.64V7.35h1.28Zm-1.93.73H9.7V3.19h1.5ZM9.05,4.66H7.55V3.93a.69.69,0,0,1,.64-.73h.86Zm0,2H7.55V5.4h1.5Zm0,2.94H8.2a.69.69,0,0,1-.64-.73V7.35h1.5ZM14,1.48H5.84L2.2,5.65V10a1.16,1.16,0,0,0,1.07,1.22H14A1.16,1.16,0,0,0,15,10V2.7A1.16,1.16,0,0,0,14,1.48Z" transform="translate(-2.2 -1.48)"/></svg>