<svg id="图层_1" data-name="图层 1" xmlns="http://www.w3.org/2000/svg" viewBox="0 0 29.83 29.95"><defs><style>.cls-1{fill:#0c0b0b;}</style></defs><title>phone</title><path class="cls-1" d="M26.9,26.1l.8-.8a2.66,2.66,0,0,0,0-3.8l-2.8-2.8a2.66,2.66,0,0,0-3.7,0l-.8.8,6.5,6.6Z" transform="translate(-16.27 -17.95)"/><path class="cls-1" d="M45.3,39.1l-2.8-2.8a2.66,2.66,0,0,0-3.7,0h0l-.8.8,6.5,6.5.8-.8a2.73,2.73,0,0,0,.8-1.9A2.5,2.5,0,0,0,45.3,39.1Z" transform="translate(-16.27 -17.95)"/><path class="cls-1" d="M35.3,39.9a.91.91,0,0,1-1.2,0L24.2,30a.86.86,0,0,1-.3-.6.71.71,0,0,1,.3-.6l1.1-1.1-6.5-6.5-.6.6c-.3.3-6.6,6.9,5.3,18.9,6,6,10.6,7.2,13.5,7.2A8,8,0,0,0,42.4,46l.6-.6-6.5-6.5Z" transform="translate(-16.27 -17.95)"/></svg>