<svg id="图层_1" data-name="图层 1" xmlns="http://www.w3.org/2000/svg" viewBox="0 0 8 12.74"><defs><style>.cls-1{fill:#d8d8d8;}</style></defs><title>Free Smartphone Holder</title><path class="cls-1" d="M31.46,32a.65.65,0,0,1-.46-.63.66.66,0,0,1,.46-.63V29.39a.39.39,0,0,1,.39-.39.38.38,0,0,1,.39.39v1.93h5.47v.4H35.22v3.54h1.06a1.27,1.27,0,0,1-1,1.23v2.36h.38v.33a4.71,4.71,0,0,1,1.6.37,1.68,1.68,0,0,1,.88,1.37c0,.61-1.81.82-3.12.82s-3.09-.21-3.12-.82a1.68,1.68,0,0,1,.88-1.37,4.65,4.65,0,0,1,1.63-.38v-.32h.35V36.49a1.27,1.27,0,0,1-1-1.23h1.14V31.72H32.24v1.57a.38.38,0,0,1-.39.39.39.39,0,0,1-.39-.39Zm7-1.25a.64.64,0,0,1,.51.64.65.65,0,0,1-.51.64v1.24a.38.38,0,0,1-.39.39.39.39,0,0,1-.39-.39v-3.9A.39.39,0,0,1,38.1,29a.38.38,0,0,1,.39.39Z" transform="translate(-31 -29)"/></svg>