<svg id="图层_1" data-name="图层 1" xmlns="http://www.w3.org/2000/svg" viewBox="0 0 58.56 57.71"><defs><style>.cls-1{fill:#245aa5;}</style></defs><title>pick</title><path class="cls-1" d="M51.28,6.57H47A1.53,1.53,0,0,0,45.57,8,1.35,1.35,0,0,0,47,9.43h4.29a7.07,7.07,0,0,1,7.14,7.14v2.86H9.86V16.57A7.07,7.07,0,0,1,17,9.43h4.29A1.35,1.35,0,0,0,22.72,8a1.35,1.35,0,0,0-1.43-1.43H17a10.12,10.12,0,0,0-10,10V33.14a1.35,1.35,0,0,0,1.43,1.43,1.35,1.35,0,0,0,1.43-1.43V22.29H58.43V50.85A7.07,7.07,0,0,1,51.28,58H17a7.07,7.07,0,0,1-7.14-7.14V43.14a1.35,1.35,0,0,0-1.43-1.43A1.35,1.35,0,0,0,7,43.14v7.71a10.12,10.12,0,0,0,10,10H51.28a10.12,10.12,0,0,0,10-10V16.57A10.12,10.12,0,0,0,51.28,6.57Z" transform="translate(-2.72 -3.15)"/><path class="cls-1" d="M22.72,45.14L31.29,38l-8.57-7.14v5.71H4.15a1.43,1.43,0,1,0,0,2.86H22.72v5.71Z" transform="translate(-2.72 -3.15)"/><path class="cls-1" d="M42.71,13.15a1.35,1.35,0,0,0,1.43-1.43V4.57a1.43,1.43,0,0,0-2.86,0v7.14A1.35,1.35,0,0,0,42.71,13.15Z" transform="translate(-2.72 -3.15)"/><path class="cls-1" d="M25.57,13.15A1.35,1.35,0,0,0,27,11.72V4.57a1.43,1.43,0,0,0-2.86,0v7.14A1.35,1.35,0,0,0,25.57,13.15Z" transform="translate(-2.72 -3.15)"/><path class="cls-1" d="M30.14,9.43h8.57A1.35,1.35,0,0,0,40.14,8a1.35,1.35,0,0,0-1.43-1.43H30.14A1.35,1.35,0,0,0,28.71,8,1.35,1.35,0,0,0,30.14,9.43Z" transform="translate(-2.72 -3.15)"/></svg>