<svg id="图层_1" data-name="图层 1" xmlns="http://www.w3.org/2000/svg" viewBox="0 0 9.99 10"><defs><style>.cls-1{fill:#3570e6;}</style></defs><title>point</title><path id="Combined-Shape" class="cls-1" d="M5,3.75c-2.95,0-5-1-5-1.88S2.05,0,5,0s5,1,5,1.87S7.94,3.75,5,3.75ZM0,7c.86.8,2.77,1.36,5,1.36S9.14,7.77,10,7V8.12C10,9,7.94,10,5,10S0,9,0,8.12V7ZM0,4.89c.86.8,2.77,1.36,5,1.36s4.14-.56,5-1.36V6c0,.89-2,1.87-5,1.87S0,6.93,0,6V4.89ZM0,2.81c.86.8,2.77,1.36,5,1.36s4.14-.56,5-1.36V4c0,.88-2,1.87-5,1.87S0,4.84,0,4Z" transform="translate(0)"/></svg>