<svg id="图层_1" data-name="图层 1" xmlns="http://www.w3.org/2000/svg" viewBox="0 0 28.24 26.99"><defs><style>.cls-1{fill:#137fc4;fill-rule:evenodd;}</style></defs><title>price</title><path class="cls-1" d="M52.16,40.24a1.85,1.85,0,0,1-1.23,2.3L40.66,45.66c-2,.61-6-.16-7.19-.42l-2.66-.87c-.45-.15-.84-.29-1.19-.42a5.29,5.29,0,0,0-4.15-.23L24,44.1V34.24l2.25-.86a10.84,10.84,0,0,1,3.35-.46h.16l.65,0,.16,0,.65.09.43.09.38.08.66.19.14,0,3.74,1.25,1.81.6.69.23h0l3.56,1.19a1.83,1.83,0,0,1,.49.26,1.8,1.8,0,0,1,.22.18,1.82,1.82,0,0,1,.13,2.5l0,0a1.84,1.84,0,0,1-.57.44l-.19.07a1.82,1.82,0,0,1-1.22,0L35,38.1l-.17.5-.13.38,5,1.66,1.44.48a2.75,2.75,0,0,0,1.74,0L46.71,40l.89-.27L49.86,39A1.85,1.85,0,0,1,52.16,40.24ZM36.49,22.3A4.37,4.37,0,0,0,34,19.2a.16.16,0,0,1,.07-.3H43.2a.16.16,0,0,1,.07.31,4.34,4.34,0,0,0-2.45,3.11,3.77,3.77,0,0,0-.06.65H36.56A4,4,0,0,0,36.49,22.3Zm.15,11.46-3.52-1.17A11.82,11.82,0,0,0,30.4,32c2.37-2.66,5-5.82,5.86-7.6l0-.09a2.34,2.34,0,0,0,.24-.81h4.26a3,3,0,0,0,.26.9c.82,1.67,3.09,4.56,6.76,8.6a4.62,4.62,0,0,1,.72,5.41l-4,1.2a2.82,2.82,0,0,0,.11-.29,2.77,2.77,0,0,0-1.76-3.51l-3-1a1.52,1.52,0,0,0,1.13-1.45h0c0-1.13-1-1.42-2.24-1.76-.86-.24-1.49-.44-1.49-1s.5-.81,1.23-.81a3.59,3.59,0,0,1,1.74.52l.52-.55a4.63,4.63,0,0,0-1.76-.64V28h-.69v1.12c-1.26.05-2,.7-2,1.56,0,1.05,1,1.35,2.16,1.66,1,.25,1.55.47,1.55,1.1s-.56.88-1.33.88a3,3,0,0,1-.78-.12l-.39-.13a3.16,3.16,0,0,1-.83-.49Z" transform="translate(-24 -18.9)"/></svg>