<?xml version="1.0" encoding="utf-8"?>
<!-- Generator: Adobe Illustrator 23.0.2, SVG Export Plug-In . SVG Version: 6.00 Build 0)  -->
<svg version="1.1" id="图层_1" xmlns="http://www.w3.org/2000/svg" xmlns:xlink="http://www.w3.org/1999/xlink" x="0px" y="0px"
	 viewBox="0 0 40 16" style="enable-background:new 0 0 40 16;" xml:space="preserve">
<style type="text/css">
	.st0{fill:#3570E6;}
</style>
<path id="形状备份" class="st0" d="M39.9,11c-0.1,1-0.7,1.8-1.6,2.2c0.1-0.3,0.1-0.6,0.1-0.9c0-2.8-2.3-5.1-5.1-5.1
	s-5.1,2.3-5.1,5.1c0,0.4,0.1,0.8,0.1,1.1H13.3c0.1-0.3,0.1-0.7,0.1-1.1c0-2.8-2.3-5.1-5.1-5.1c-2.8,0-5.1,2.3-5.1,5.1V13
	C1.4,12.2,0.1,10.6,0,8.4C0,8,0,7.6,0.5,6.8C0.7,6.3,1,5.6,1,4.8C1.1,4,1.7,3.3,2.5,3.1c1.8-0.4,2.7,0.3,3.7-0.5
	c4-2.6,8.7-3.3,14.5-2c0.6,0.1,0.6,0.2,7,3.3c0.2,0.2,0.6,0.3,1.1,0.3c2.3,0,9.4,1.4,10,2.2C39.9,7.8,40.2,9.3,39.9,11z M15.9,4.1
	l-0.4-2.3c-2.9,0-5.4,0.6-7.5,1.9l1.3,0.4H15.9L15.9,4.1z M24.2,4.3c-3.4-1.7-3.4-1.7-3.7-1.8c-1.1-0.2-2.2-0.4-3.2-0.5l0.4,2.1v0.1
	H24.2z M11.7,12.4c0,2-1.6,3.5-3.5,3.5c-2,0-3.5-1.6-3.5-3.5c0-1.9,1.6-3.5,3.5-3.5C10.1,8.9,11.7,10.4,11.7,12.4z M36.9,12.4
	c0,1.9-1.6,3.5-3.5,3.5c-1.9,0-3.5-1.6-3.5-3.5s1.6-3.5,3.5-3.5C35.3,8.9,36.9,10.4,36.9,12.4z"/>
</svg>
