<?xml version="1.0" encoding="utf-8"?>
<!-- Generator: Adobe Illustrator 23.0.1, SVG Export Plug-In . SVG Version: 6.00 Build 0)  -->
<svg version="1.1" id="图层_1" xmlns="http://www.w3.org/2000/svg" xmlns:xlink="http://www.w3.org/1999/xlink" x="0px" y="0px"
	 viewBox="0 0 40 40" style="enable-background:new 0 0 40 40;" xml:space="preserve">
<style type="text/css">
	.st0{fill-rule:evenodd;clip-rule:evenodd;fill:#5E636B;}
</style>
<g id="Page-1">
	<g id="地标页备份" transform="translate(-67.000000, -1739.000000)">
		<g id="Downtown" transform="translate(51.000000, 1725.000000)">
			<g id="icon_Downtown" transform="translate(16.000000, 14.000000)">
				<path id="Fill-1" class="st0" d="M5.8,30.9C5.8,30.9,5.8,30.9,5.8,30.9l1.5-0.1c0.1,0,0.1,0,0.1,0.1v1.6c0,0,0,0.1-0.1,0.1H5.9
					c-0.1,0-0.1,0-0.1-0.1V30.9z M5.8,28.2C5.8,28.1,5.8,28.1,5.8,28.2l1.5-0.1c0.1,0,0.1,0,0.1,0.1v1.6c0,0,0,0.1-0.1,0.1H5.9
					c-0.1,0-0.1,0-0.1-0.1V28.2z M5.8,25.4C5.8,25.4,5.8,25.3,5.8,25.4l1.5-0.1c0.1,0,0.1,0,0.1,0.1V27c0,0,0,0.1-0.1,0.1H5.9
					c-0.1,0-0.1,0-0.1-0.1V25.4z M5.8,22.6C5.8,22.6,5.8,22.6,5.8,22.6l1.5-0.1c0.1,0,0.1,0,0.1,0.1v1.6c0,0,0,0.1-0.1,0.1H5.9
					c-0.1,0-0.1,0-0.1-0.1V22.6z M9,30.9C9,30.9,9,30.9,9,30.9l1.5-0.1c0.1,0,0.1,0,0.1,0.1v1.6c0,0,0,0.1-0.1,0.1H9.1
					c-0.1,0-0.1,0-0.1-0.1V30.9z M9,28.2C9,28.1,9,28.1,9,28.2l1.5-0.1c0.1,0,0.1,0,0.1,0.1v1.6c0,0,0,0.1-0.1,0.1H9.1
					c-0.1,0-0.1,0-0.1-0.1V28.2z M9,25.4C9,25.4,9,25.3,9,25.4l1.5-0.1c0.1,0,0.1,0,0.1,0.1V27c0,0,0,0.1-0.1,0.1H9.1
					C9,27,9,27,9,27V25.4z M9,22.6C9,22.6,9,22.6,9,22.6l1.5-0.1c0.1,0,0.1,0,0.1,0.1v1.6c0,0,0,0.1-0.1,0.1H9.1
					c-0.1,0-0.1,0-0.1-0.1V22.6z M14.8,27.7c0,0,0-0.1,0.1-0.1h1.8c0.1,0,0.1,0,0.1,0.1v2.1c0,0,0,0.1-0.1,0.1h-1.8
					c-0.1,0-0.1,0-0.1-0.1V27.7z M14.8,24c0,0,0-0.1,0.1-0.1h1.8c0.1,0,0.1,0,0.1,0.1v2.1c0,0,0,0.1-0.1,0.1h-1.8
					c-0.1,0-0.1,0-0.1-0.1V24z M14.8,20.4c0,0,0-0.1,0.1-0.1h1.8c0.1,0,0.1,0,0.1,0.1v2.1c0,0,0,0.1-0.1,0.1h-1.8
					c-0.1,0-0.1,0-0.1-0.1V20.4z M14.8,16.8c0,0,0-0.1,0.1-0.1h1.8c0.1,0,0.1,0,0.1,0.1v2.1c0,0,0,0.1-0.1,0.1h-1.8
					c-0.1,0-0.1,0-0.1-0.1V16.8z M14.8,13.1c0,0,0-0.1,0.1-0.1h1.8c0.1,0,0.1,0,0.1,0.1v2.1c0,0,0,0.1-0.1,0.1h-1.8
					c-0.1,0-0.1,0-0.1-0.1V13.1z M25.1,13.1c0.1,0,0.1,0,0.1,0.1v2.1c0,0,0,0.1-0.1,0.1h-1.8c-0.1,0-0.1,0-0.1-0.1v-2.1
					c0,0,0-0.1,0.1-0.1H25.1z M25.2,18.9c0,0,0,0.1-0.1,0.1h-1.8c-0.1,0-0.1,0-0.1-0.1v-2.1c0,0,0-0.1,0.1-0.1h1.8
					c0.1,0,0.1,0,0.1,0.1V18.9z M25.2,22.5c0,0,0,0.1-0.1,0.1h-1.8c-0.1,0-0.1,0-0.1-0.1v-2.1c0,0,0-0.1,0.1-0.1h1.8
					c0.1,0,0.1,0,0.1,0.1V22.5z M25.2,26.1c0,0,0,0.1-0.1,0.1h-1.8c-0.1,0-0.1,0-0.1-0.1V24c0,0,0-0.1,0.1-0.1h1.8
					c0.1,0,0.1,0,0.1,0.1V26.1z M25.2,29.8c0,0,0,0.1-0.1,0.1h-1.8c-0.1,0-0.1,0-0.1-0.1v-2.1c0,0,0-0.1,0.1-0.1h1.8
					c0.1,0,0.1,0,0.1,0.1V29.8z M20.9,15.3h-1.8c-0.1,0-0.1,0-0.1-0.1v-2.1c0,0,0-0.1,0.1-0.1h1.8c0.1,0,0.1,0,0.1,0.1v2.1
					C21,15.2,21,15.3,20.9,15.3L20.9,15.3z M20.9,18.9h-1.8c-0.1,0-0.1,0-0.1-0.1v-2.1c0,0,0-0.1,0.1-0.1h1.8c0.1,0,0.1,0,0.1,0.1
					v2.1C21,18.9,21,18.9,20.9,18.9L20.9,18.9z M21,24v2.1c0,0,0,0.1-0.1,0.1h-1.8c-0.1,0-0.1,0-0.1-0.1V24c0,0,0-0.1,0.1-0.1h1.8
					C21,24,21,24,21,24L21,24z M20.9,22.6h-1.8c-0.1,0-0.1,0-0.1-0.1v-2.1c0,0,0-0.1,0.1-0.1h1.8c0.1,0,0.1,0,0.1,0.1v2.1
					C21,22.5,21,22.6,20.9,22.6L20.9,22.6z M21.1,31.8l-2.2,0v-3.3c0-0.6,0.5-1.1,1.1-1.1c0.6,0,1.1,0.5,1.1,1.1V31.8z M29.5,30.9
					C29.5,30.9,29.5,30.9,29.5,30.9l1.5-0.1c0.1,0,0.1,0,0.1,0.1v1.6c0,0,0,0.1-0.1,0.1h-1.4c-0.1,0-0.1,0-0.1-0.1V30.9z M29.5,28.2
					C29.5,28.1,29.5,28.1,29.5,28.2l1.5-0.1c0.1,0,0.1,0,0.1,0.1v1.6c0,0,0,0.1-0.1,0.1h-1.4c-0.1,0-0.1,0-0.1-0.1V28.2z M29.5,25.4
					C29.5,25.4,29.5,25.3,29.5,25.4l1.5-0.1c0.1,0,0.1,0,0.1,0.1V27c0,0,0,0.1-0.1,0.1h-1.4c-0.1,0-0.1,0-0.1-0.1V25.4z M29.5,22.6
					C29.5,22.6,29.5,22.6,29.5,22.6l1.5-0.1c0.1,0,0.1,0,0.1,0.1v1.6c0,0,0,0.1-0.1,0.1h-1.4c-0.1,0-0.1,0-0.1-0.1V22.6z M32.6,30.9
					C32.6,30.9,32.7,30.9,32.6,30.9l1.5-0.1c0.1,0,0.1,0,0.1,0.1v1.6c0,0,0,0.1-0.1,0.1h-1.4c-0.1,0-0.1,0-0.1-0.1V30.9z M32.6,28.2
					C32.6,28.1,32.7,28.1,32.6,28.2l1.5-0.1c0.1,0,0.1,0,0.1,0.1v1.6c0,0,0,0.1-0.1,0.1h-1.4c-0.1,0-0.1,0-0.1-0.1V28.2z M32.6,25.4
					C32.6,25.4,32.7,25.3,32.6,25.4l1.5-0.1c0.1,0,0.1,0,0.1,0.1V27c0,0,0,0.1-0.1,0.1h-1.4c-0.1,0-0.1,0-0.1-0.1V25.4z M32.6,22.6
					C32.6,22.6,32.7,22.6,32.6,22.6l1.5-0.1c0.1,0,0.1,0,0.1,0.1v1.6c0,0,0,0.1-0.1,0.1h-1.4c-0.1,0-0.1,0-0.1-0.1V22.6z M6.4,34
					h3.3h0H10h1h1.4v0l15.1,0v0H29h1h3.6h1H36V21.2h-8.3v-8.7c0-0.7-0.5-1.2-1.2-1.2h-2.1v-2c0-0.3-0.3-0.6-0.6-0.6h-1.2V7.3
					c0-0.3-0.3-0.6-0.6-0.6h-1.3l-0.2-6.3C20.4,0.2,20.2,0,20,0c-0.2,0-0.4,0.2-0.4,0.4l-0.2,6.3h-1.3c-0.3,0-0.6,0.3-0.6,0.6v1.4
					h-1.2c-0.3,0-0.6,0.3-0.6,0.6v2h-2.1c-0.7,0-1.2,0.5-1.2,1.2v8.7H4V34h1.4H6.4z"/>
			</g>
		</g>
	</g>
</g>
</svg>
