<?xml version="1.0" encoding="utf-8"?>
<!-- Generator: Adobe Illustrator 24.0.1, SVG Export Plug-In . SVG Version: 6.00 Build 0)  -->
<svg version="1.1" id="图层_1" xmlns="http://www.w3.org/2000/svg" xmlns:xlink="http://www.w3.org/1999/xlink" x="0px" y="0px"
	 viewBox="0 0 28 28" style="enable-background:new 0 0 28 28;" xml:space="preserve">
<style type="text/css">
	.st0{fill-rule:evenodd;clip-rule:evenodd;fill:#6B7B9F;}
</style>
<g id="Page-1">
	<g id="reward-program_未登录" transform="translate(-97.000000, -1858.000000)">
		<g id="benefits" transform="translate(-326.000000, 1021.000000)">
			<g id="_x32_" transform="translate(326.000000, 745.000000)">
				<g id="_x35_0Q" transform="translate(55.000000, 92.000000)">
					<g id="Q" transform="translate(42.000000, 0.000000)">
						<path id="Fill-26" class="st0" d="M9.2,20.4c-3.9-2.2-3.6-4.6-1-9.2c2.5-4.5,4.5-6.1,8.3-3.8c3.9,2.2,3.6,4.8,1.1,9.2
							C14.9,21.2,13.1,22.6,9.2,20.4 M20.4,21.4l-1-0.9c0.5-0.6,0.9-1.3,1.3-2.1C25,11,23.4,7.3,18.3,4.3c-5.2-3-9.1-2.5-13.2,5
							c-4.2,7.5-2.6,11,2.5,14.1c3.3,2,6.5,1.9,9.2-0.1l1.3,1.3c0.6,0.5,1.3,0.8,2.1,0.8l2.3,0l2-3.7h-3.4
							C20.9,21.7,20.6,21.6,20.4,21.4"/>
					</g>
				</g>
			</g>
		</g>
	</g>
</g>
</svg>
