<?xml version="1.0" encoding="UTF-8"?>
<svg width="66px" height="18px" viewBox="0 0 66 18" version="1.1" xmlns="http://www.w3.org/2000/svg" xmlns:xlink="http://www.w3.org/1999/xlink">
    <!-- Generator: Sketch 60.1 (88133) - https://sketch.com -->
    <title>logo_qeeq</title>
    <desc>Created with Sketch.</desc>
    <g id="Page-1" stroke="none" stroke-width="1" fill="none" fill-rule="evenodd">
        <g id="reward-program_未登录" transform="translate(-223.000000, -1179.000000)" fill="#616161">
            <g id="benefits" transform="translate(-326.000000, 1021.000000)">
                <g id="card_silver" transform="translate(457.000000, 95.000000)">
                    <g id="logo_qeeq" transform="translate(92.000000, 63.000000)">
                        <path d="M32.9541669,0.69938955 L31.7962268,3.66504627 L23.3577183,3.66504627 L23.3577183,7.95273173 L31.4746276,7.95273173 L31.4746276,10.782257 L23.3577183,10.744798 L23.3577183,14.8824647 L31.5203093,14.8824647 L32.9421069,17.8678559 L22.0579823,17.9115276 C21.2576387,17.9115276 20.6089584,17.2628473 20.6089584,16.4625037 L20.6089584,16.4625037 L20.6089584,1.97025477 C20.6089584,1.30384996 21.1490989,0.69938955 21.8156865,0.69938955 L21.8156865,0.69938955 L32.9541669,0.69938955 Z M47.1700963,0.69938955 L46.0121562,3.66504627 L37.5736477,3.66504627 L37.5736477,7.95273173 L45.690557,7.95273173 L45.690557,10.782257 L37.5736477,10.744798 L37.5736477,14.8824647 L45.7362387,14.8824647 L47.1580363,17.8678559 L36.2739117,17.9115276 C35.4735681,17.9115276 34.824705,17.2628473 34.824705,16.4625037 L34.824705,16.4625037 L34.824705,1.84161507 C34.824705,1.21340017 35.3388984,0.69938955 35.9669306,0.69938955 L35.9669306,0.69938955 L47.1700963,0.69938955 Z M56.3200335,0.630519681 C61.045167,0.629971621 63.492245,2.50036362 63.4933413,9.19255166 C63.4937068,11.3934965 63.1079704,13.2074259 62.3520294,14.5919473 L62.3520294,14.5919473 L62.4271302,14.6622971 C62.5674644,14.7982459 62.7564039,14.8729811 62.9519217,14.8695093 L62.9519217,14.8695093 L65.6385545,14.8695093 L64.0199601,17.724799 L62.2228415,17.7226063 C61.6101584,17.7321081 61.0183062,17.5263577 60.5746454,17.1037105 L60.5746454,17.1037105 L60.2704052,16.8203012 C59.2089449,17.468616 57.8916671,17.7911289 56.3227744,17.7565935 C51.6078736,17.6533528 49.1507457,15.9110524 49.1496489,9.19492711 C49.1485529,2.50273907 51.6186544,0.631433436 56.3200335,0.630519681 Z M1.89515281,5.22324946 C5.20232601,-0.594773342 8.27469521,-1.00024422 12.3619293,1.32294491 C16.4698116,3.65819402 17.6721542,6.4935665 14.364981,12.3115893 C14.0285809,12.9034416 13.6781108,13.444313 13.3150326,13.9349346 L13.3150326,13.9349346 L14.0929007,14.6621875 C14.2336004,14.7981362 14.4223572,14.8728715 14.617875,14.8695824 L14.617875,14.8695824 L17.3045078,14.8695824 L15.6857307,17.7248721 L13.8887949,17.7224967 C13.2761117,17.7321812 12.6840768,17.5264308 12.2405987,17.1036009 L12.2405987,17.1036009 L11.1829757,16.1188859 C9.01528712,17.7075131 6.53751108,17.7899229 3.89838723,16.2117111 C-0.149012427,13.7909459 -1.42389764,11.0617377 1.89515281,5.22324946 Z M56.2410955,3.3599105 C52.7225073,3.36027617 51.97351,5.21349185 51.9740579,9.21082435 C51.9747891,13.3327766 52.7245173,15.0398108 56.2429228,15.0392627 C59.7821591,15.0387144 60.5313391,13.3314975 60.5307912,9.20936253 C60.53006,5.21203003 59.7803318,3.3591798 56.2410955,3.3599105 Z M10.9441517,3.65636675 C7.8853043,1.91753807 6.31805613,3.15807064 4.34259619,6.63316981 C2.30555731,10.2168087 2.11351139,12.0713035 5.17217608,13.8099494 C8.24911345,15.5590108 9.74418451,14.4454734 11.7814061,10.8616518 C13.7566833,7.38673533 14.0210891,5.40542813 10.9441517,3.65636675 Z" id="形状结合"></path>
                    </g>
                </g>
            </g>
        </g>
    </g>
</svg>