<?xml version="1.0" encoding="utf-8"?>
<!-- Generator: Adobe Illustrator 24.0.1, SVG Export Plug-In . SVG Version: 6.00 Build 0)  -->
<svg version="1.1" id="图层_1" xmlns="http://www.w3.org/2000/svg" xmlns:xlink="http://www.w3.org/1999/xlink" x="0px" y="0px"
	 viewBox="0 0 16 16" style="enable-background:new 0 0 16 16;" xml:space="preserve">
<style type="text/css">
	.st0{fill-rule:evenodd;clip-rule:evenodd;fill:#3570E6;}
	.st1{fill:#FFFFFF;}
</style>
<path id="Combined-Shape-Copy" class="st0" d="M8,16c4.4,0,8-3.6,8-8s-3.6-8-8-8S0,3.6,0,8S3.6,16,8,16z"/>
<path id="_xFF1F_" class="st1" d="M8.5,10.5v-0.2c0-0.3,0.1-0.6,0.2-0.9C8.8,9.1,9,8.8,9.3,8.6c0.7-0.6,1.1-1,1.2-1.1
	c0.3-0.5,0.5-1.1,0.5-1.8c0-0.9-0.3-1.6-0.9-2.1C9.6,3.1,8.8,2.9,7.9,2.9C6.8,2.9,6,3.2,5.4,3.8C4.8,4.4,4.5,5.2,4.5,6.3h1.6
	c0-0.6,0.1-1.1,0.4-1.4c0.3-0.4,0.7-0.6,1.4-0.6c0.5,0,0.9,0.1,1.2,0.4c0.3,0.3,0.4,0.6,0.4,1.1c0,0.4-0.1,0.7-0.4,1L8.8,7
	C7.9,7.9,7.3,8.5,7.1,8.8c-0.2,0.4-0.3,0.9-0.3,1.4v0.2H8.5z M7.7,13.3c0.3,0,0.6-0.1,0.8-0.3c0.2-0.2,0.3-0.5,0.3-0.8
	s-0.1-0.6-0.3-0.8c-0.2-0.2-0.5-0.3-0.8-0.3s-0.6,0.1-0.8,0.3c-0.2,0.2-0.3,0.5-0.3,0.8s0.1,0.6,0.3,0.8C7.1,13.2,7.3,13.3,7.7,13.3
	z"/>
</svg>
