<svg id="图层_1" data-name="图层 1" xmlns="http://www.w3.org/2000/svg" viewBox="0 0 17 17"><defs><style>.cls-1,.cls-2{fill:#555656;}.cls-2{fill-rule:evenodd;}</style></defs><title>问号</title><path class="cls-1" d="M24.5,32A7.5,7.5,0,1,1,32,39.5,7.5,7.5,0,0,1,24.5,32Zm16,0A8.5,8.5,0,1,0,32,40.5,8.5,8.5,0,0,0,40.5,32Z" transform="translate(-23.5 -23.5)"/><path class="cls-2" d="M31.93,35.34a0.69,0.69,0,0,0-.52.2,0.64,0.64,0,0,0-.2.5,0.69,0.69,0,0,0,.2.52,0.75,0.75,0,0,0,1,0,0.66,0.66,0,0,0,.22-0.52,0.69,0.69,0,0,0-.2-0.5A0.71,0.71,0,0,0,31.93,35.34ZM32.11,28a2.59,2.59,0,0,0-2,.79,2.8,2.8,0,0,0-.71,2h0.95a2.17,2.17,0,0,1,.4-1.38,1.53,1.53,0,0,1,1.33-.59,1.55,1.55,0,0,1,1.18.42,1.51,1.51,0,0,1,.41,1.12,1.49,1.49,0,0,1-.36.95,5.32,5.32,0,0,1-.41.43,5,5,0,0,0-1.21,1.39,2.39,2.39,0,0,0-.22,1V34.5h1V34.23a1.68,1.68,0,0,1,.23-0.88,2.47,2.47,0,0,1,.56-0.66,11.87,11.87,0,0,0,1-.92,2.26,2.26,0,0,0,.46-1.4A2.19,2.19,0,0,0,34,28.67,2.6,2.6,0,0,0,32.11,28Z" transform="translate(-23.5 -23.5)"/></svg>