<?xml version="1.0" encoding="utf-8"?>
<!-- Generator: Adobe Illustrator 23.0.1, SVG Export Plug-In . SVG Version: 6.00 Build 0)  -->
<svg version="1.1" id="图层_1" xmlns="http://www.w3.org/2000/svg" xmlns:xlink="http://www.w3.org/1999/xlink" x="0px" y="0px"
	 viewBox="0 0 24 24" style="enable-background:new 0 0 24 24;" xml:space="preserve">
<style type="text/css">
	.st0{fill-rule:evenodd;clip-rule:evenodd;fill:#B8C3D4;}
</style>
<g id="Page-1">
	<g id="Membership-Center_oynx" transform="translate(-253.000000, -493.000000)">
		<g id="navbar_blue">
			<g id="card" transform="translate(32.000000, 389.000000)">
				<g id="分组-4" transform="translate(57.000000, 24.000000)">
					<g transform="translate(164.000000, 80.000000)">
						<path id="合并形状" class="st0" d="M12,24C5.4,24,0,18.6,0,12S5.4,0,12,0s12,5.4,12,12S18.6,24,12,24z M12.8,14.9v-0.1
							c0-0.8,0.4-1.4,1-1.8l0.8-0.6c1.1-0.8,1.9-1.9,1.9-3.4c0-1.9-1.5-3.8-4.5-3.8c-2.8,0-4.4,2-4.4,4c0,0.3,0,0.6,0.1,0.9l2.4,0.1
							C10,10.1,10,9.8,10,9.6c0-1.1,0.6-2.1,1.9-2.1c1.3,0,1.9,0.8,1.9,1.7c0,0.6-0.2,1.1-0.8,1.5l-0.9,0.7
							c-1.1,0.8-1.5,1.7-1.5,2.8c0,0.3,0,0.5,0.1,0.8H12.8z M10.3,17.7c0,0.8,0.7,1.5,1.5,1.5c0.8,0,1.5-0.7,1.5-1.5
							c0-0.8-0.7-1.5-1.5-1.5C10.9,16.1,10.3,16.8,10.3,17.7z"/>
					</g>
				</g>
			</g>
		</g>
	</g>
</g>
</svg>
