<?xml version="1.0" encoding="utf-8"?>
<!-- Generator: Adobe Illustrator 23.0.1, SVG Export Plug-In . SVG Version: 6.00 Build 0)  -->
<svg version="1.1" id="图层_1" xmlns="http://www.w3.org/2000/svg" xmlns:xlink="http://www.w3.org/1999/xlink" x="0px" y="0px"
	 viewBox="0 0 40 40" style="enable-background:new 0 0 40 40;" xml:space="preserve">
<style type="text/css">
	.st0{fill-rule:evenodd;clip-rule:evenodd;fill:#5E636B;}
</style>
<g id="Page-1">
	<g id="地标页备份" transform="translate(-67.000000, -59.000000)">
		<g id="Railway-Station" transform="translate(51.000000, 45.000000)">
			<g id="icon_Railway-Station" transform="translate(16.000000, 14.000000)">
				<g id="编组" transform="translate(8.000000, 4.000000)">
					<path id="形状结合" class="st0" d="M7,25.1l-1.4,2.1h12.8L17,25.1h2.9L24,31h-2.9l-1.4-2.1H4.4L2.9,31H0l4.1-5.9H7z
						 M19.2,0c1.9,0,3.5,1.6,3.5,3.5l0,0v17.3c0,2-1.6,3.5-3.5,3.5l0,0H4.8c-1.9,0-3.5-1.6-3.5-3.5l0,0V3.5c0-2,1.6-3.5,3.5-3.5l0,0
						H19.2z M17.4,17.9c-1.1,0-2,0.9-2,2c0,1.1,0.9,2,2,2c1.1,0,2-0.9,2-2C19.4,18.8,18.5,17.9,17.4,17.9z M6.6,17.9
						c-1.1,0-2,0.9-2,2c0,1.1,0.9,2,2,2c1.1,0,2-0.9,2-2C8.6,18.8,7.7,17.9,6.6,17.9z M18.6,3.5H5.4C4,3.5,2.8,4.7,2.8,6.1l0,0v7.2
						h18.4V6.1C21.2,4.7,20,3.5,18.6,3.5L18.6,3.5z"/>
				</g>
			</g>
		</g>
	</g>
</g>
</svg>
