<svg id="图层_1" data-name="图层 1" xmlns="http://www.w3.org/2000/svg" viewBox="0 0 9.33 12"><defs><style>.cls-1{fill:#ccc;fill-rule:evenodd;}</style></defs><title>100%真实</title><path class="cls-1" d="M20.45,13.59l-3.13,3.05a.5.5,0,0,1-.69,0l-2.08-2a.47.47,0,0,1,0-.68.5.5,0,0,1,.69,0L17,15.62l2.78-2.72a.5.5,0,0,1,.69,0A.47.47,0,0,1,20.45,13.59ZM20.2,9.73a10.41,10.41,0,0,1-2.95-1,6.12,6.12,0,0,1-2.46,1,5.18,5.18,0,0,1-2-.48v6.24c0,2.92,3.93,5.28,4.67,5.28s4.67-2.36,4.67-5.28V9.25A5.17,5.17,0,0,1,20.2,9.73Z" transform="translate(-12.83 -8.77)"/></svg>