<svg id="图层_1" data-name="图层 1" xmlns="http://www.w3.org/2000/svg" viewBox="0 0 23 16"><defs><style>.cls-1{fill:#164ab0;fill-rule:evenodd;}</style></defs><title>rebook</title><path class="cls-1" d="M43.63,37.19A2.53,2.53,0,0,1,44,38.5a2.5,2.5,0,0,1-5,0,2.54,2.54,0,0,1,.2-1l-3-3.6a2.39,2.39,0,0,1-.66.09h-.27l-3.6,5.2A2.53,2.53,0,0,1,32,40.5a2.52,2.52,0,1,1-2-2.45L33.49,33A2.44,2.44,0,0,1,33,31.5a2.5,2.5,0,0,1,5,0,2.4,2.4,0,0,1-.29,1.16l2.95,3.48A2.6,2.6,0,0,1,41.5,36a2.52,2.52,0,0,1,.48,0L45.49,31A2.44,2.44,0,0,1,45,29.5,2.5,2.5,0,1,1,47.5,32h-.27Z" transform="translate(-27 -27)"/></svg>