<?xml version="1.0" encoding="utf-8"?>
<!-- Generator: Adobe Illustrator 22.1.0, SVG Export Plug-In . SVG Version: 6.00 Build 0)  -->
<svg version="1.1" id="图层_1" xmlns="http://www.w3.org/2000/svg" xmlns:xlink="http://www.w3.org/1999/xlink" x="0px" y="0px"
	 viewBox="0 0 16 16" style="enable-background:new 0 0 16 16;" xml:space="preserve">
<style type="text/css">
	.st0{fill:#164AB0;}
</style>
<path id="Combined-Shape" class="st0" d="M8,16c-4.4,0-8-3.6-8-8s3.6-8,8-8s8,3.6,8,8S12.4,16,8,16z M5.4,6.9c0-0.1-0.1-0.2-0.3-0.2
	h-1C4.1,6.7,4,6.8,3.9,6.8l0,0C3.8,6.9,3.8,7,3.8,7.1V12l0,0l0,0l0,0h1.4c0.1,0,0.2-0.1,0.2-0.2L5.4,6.9L5.4,6.9z M11.6,6.3H9.9
	c-0.1,0-0.2-0.1-0.2-0.2l0.1-0.5c0-0.4,0-0.8,0-1.1c0-0.1,0-0.2,0-0.2c0-0.6-0.5-1-1-1c-0.6,0-1,0.5-1,1c0,1-0.3,1.7-0.9,2.1
	C6.7,6.5,6.5,6.6,6.3,6.7C6.2,6.7,6.1,6.7,6.1,6.7H5.8v5.1C5.8,11.9,5.9,12,6,12h5c0.5,0,0.9-0.4,1-1c0.1-0.8,0.6-3.6,0.6-3.6
	C12.7,6.8,12.2,6.3,11.6,6.3z"/>
</svg>
