<svg id="图层_1" data-name="图层 1" xmlns="http://www.w3.org/2000/svg" viewBox="0 0 14 14.53"><defs><style>.cls-1{fill:#444;}</style></defs><title>租期</title><path class="cls-1" d="M30.9,40.07h6.32a.87.87,0,0,0,0-1.73H30.9a.87.87,0,0,0,0,1.73Zm6-6.18a1.13,1.13,0,0,0,1.15-1.1V31.11a1.1,1.1,0,0,0-.58-1,1.18,1.18,0,0,0-1.15,0,1.11,1.11,0,0,0-.57,1v1.68A1.13,1.13,0,0,0,36.9,33.89Zm-5.83,0a1.13,1.13,0,0,0,1.14-1.1V31.11a1.11,1.11,0,0,0-.57-1,1.18,1.18,0,0,0-1.15,0,1.11,1.11,0,0,0-.57,1v1.68A1.13,1.13,0,0,0,31.07,33.89Zm-2.9,9.52V35.62H39.82v7.79Zm11.66-11.2H38.67v.56a1.75,1.75,0,0,1-3.5,0v-.56H32.83v.56a1.75,1.75,0,0,1-3.5,0v-.56H28.17A1.14,1.14,0,0,0,27,33.33V43.41a1.14,1.14,0,0,0,1.17,1.12H39.83A1.14,1.14,0,0,0,41,43.41V33.33a1.12,1.12,0,0,0-.34-.79A1.21,1.21,0,0,0,39.83,32.21Z" transform="translate(-27 -30)"/></svg>