<svg id="图层_1" data-name="图层 1" xmlns="http://www.w3.org/2000/svg" viewBox="0 0 59.15 50.84"><defs><style>.cls-1{fill:#245aa5;}</style></defs><title>drop</title><path class="cls-1" d="M49,40.81a1.19,1.19,0,0,0-1.26,1.26v6.54a6.23,6.23,0,0,1-6.29,6.29H11.24a6.23,6.23,0,0,1-6.29-6.29V23.44H47.73v8.81a1.26,1.26,0,0,0,2.52,0V18.41A8.92,8.92,0,0,0,41.44,9.6H37.66a1.35,1.35,0,0,0-1.26,1.26,1.19,1.19,0,0,0,1.26,1.26h3.78a6.23,6.23,0,0,1,6.29,6.29v2.52H4.94V18.41a6.23,6.23,0,0,1,6.29-6.29H15a1.19,1.19,0,0,0,1.26-1.26A1.19,1.19,0,0,0,15,9.6H11.24a8.92,8.92,0,0,0-8.81,8.81v30.2a8.92,8.92,0,0,0,8.81,8.81h30.2a8.92,8.92,0,0,0,8.81-8.81V42.07A1.19,1.19,0,0,0,49,40.81Z" transform="translate(-2.43 -6.58)"/><path class="cls-1" d="M61.57,37.29L54,31v5H37.66a1.26,1.26,0,0,0,0,2.52H54v5Z" transform="translate(-2.43 -6.58)"/><path class="cls-1" d="M33.89,15.39a1.19,1.19,0,0,0,1.26-1.26V7.84a1.26,1.26,0,1,0-2.52,0v6.29A1.19,1.19,0,0,0,33.89,15.39Z" transform="translate(-2.43 -6.58)"/><path class="cls-1" d="M18.79,15.39A1.19,1.19,0,0,0,20,14.13V7.84a1.26,1.26,0,1,0-2.52,0v6.29A1.19,1.19,0,0,0,18.79,15.39Z" transform="translate(-2.43 -6.58)"/><path class="cls-1" d="M22.81,12.12h7.55a1.19,1.19,0,0,0,1.26-1.26A1.19,1.19,0,0,0,30.36,9.6H22.81a1.19,1.19,0,0,0-1.26,1.26A1.19,1.19,0,0,0,22.81,12.12Z" transform="translate(-2.43 -6.58)"/></svg>