<?xml version="1.0" encoding="utf-8"?>
<!-- Generator: Adobe Illustrator 25.0.0, SVG Export Plug-In . SVG Version: 6.00 Build 0)  -->
<svg version="1.1" id="图层_1" xmlns="http://www.w3.org/2000/svg" xmlns:xlink="http://www.w3.org/1999/xlink" x="0px" y="0px"
	 viewBox="0 0 15 14" style="enable-background:new 0 0 15 14;" xml:space="preserve">
<style type="text/css">
	.st0{fill:#3570E6;}
</style>
<path id="路径" class="st0" d="M10,3.2c2.8,0,5,2.4,5,5.4c0,3-2.3,5.4-5,5.4H1.9v-1.6H10c1.9,0,3.5-1.7,3.5-3.7
	c0-2.1-1.6-3.7-3.5-3.7H2.8l1.9,2L3.6,8.1L0.1,4.3C0,4.2,0,4.1,0,4c0-0.1,0-0.2,0.1-0.2L3.6,0l1.1,1.2l-2,2.1L10,3.2L10,3.2z"/>
</svg>
