<?xml version="1.0" encoding="utf-8"?>
<!-- Generator: Adobe Illustrator 23.0.2, SVG Export Plug-In . SVG Version: 6.00 Build 0)  -->
<svg version="1.1" id="图层_1" xmlns="http://www.w3.org/2000/svg" xmlns:xlink="http://www.w3.org/1999/xlink" x="0px" y="0px"
	 viewBox="0 0 16 16" style="enable-background:new 0 0 16 16;" xml:space="preserve">
<style type="text/css">
	.st0{fill:#616161;}
</style>
<path id="形状" class="st0" d="M12.4,3.5H3.7C2.8,3.5,2,4.2,2,5.1v5.3c0,0.9,0.7,1.7,1.6,1.7h0.5l0.2,2.4l2.1-2.4h5.9
	c0.9,0,1.6-0.7,1.6-1.7V5.1C14,4.2,13.3,3.5,12.4,3.5z M5,8.4C4.6,8.4,4.2,8,4.2,7.6c0-0.4,0.4-0.8,0.8-0.8c0.4,0,0.8,0.4,0.8,0.8
	C5.8,8,5.5,8.4,5,8.4z M8,8.4C7.6,8.4,7.2,8,7.2,7.6c0-0.4,0.4-0.8,0.8-0.8c0.4,0,0.8,0.4,0.8,0.8C8.8,8,8.5,8.4,8,8.4z M11,8.4
	c-0.4,0-0.8-0.4-0.8-0.8c0-0.4,0.4-0.8,0.8-0.8c0.4,0,0.8,0.4,0.8,0.8C11.8,8,11.5,8.4,11,8.4L11,8.4z"/>
</svg>
