<?xml version="1.0" encoding="utf-8"?>
<!-- Generator: Adobe Illustrator 23.0.2, SVG Export Plug-In . SVG Version: 6.00 Build 0)  -->
<svg version="1.1" id="图层_1" xmlns="http://www.w3.org/2000/svg" xmlns:xlink="http://www.w3.org/1999/xlink" x="0px" y="0px"
	 viewBox="0 0 12 13" style="enable-background:new 0 0 12 13;" xml:space="preserve">
<style type="text/css">
	.st0{fill:#FFFFFF;}
</style>
<path id="形状结合" class="st0" d="M11.1,4.4C11.1,4.4,11.1,4.5,11.1,4.4L6.3,8.7C6.2,8.8,6.1,8.8,6,8.8c-0.1,0-0.2,0-0.3-0.1
	l-2.5-2C3,6.6,2.9,6.2,3.1,6c0.2-0.2,0.5-0.3,0.7-0.1L6,7.7L10.2,4C9.2,2.6,7.7,1.8,6,1.8c-2.8,0-5,2.2-5,5c0,2.8,2.2,5,5,5
	c1,0,2-0.3,2.8-0.8c0.2-0.1,0.3-0.2,0.5-0.4c0.4-0.4,0.8-0.8,1.1-1.3c0.2-0.3,0.3-0.6,0.4-0.9c0.1-0.3,0.4-0.4,0.6-0.3
	c0.3,0.1,0.4,0.4,0.3,0.6c-0.1,0.4-0.3,0.7-0.5,1.1c-0.3,0.6-0.8,1.2-1.3,1.6c-0.2,0.2-0.4,0.3-0.6,0.4c-1,0.7-2.1,1-3.3,1
	c-3.3,0-6-2.7-6-6c0-3.3,2.7-6,6-6c2.2,0,4.1,1.2,5.2,3C11.3,4,11.3,4.3,11.1,4.4z"/>
</svg>
