<?xml version="1.0" encoding="utf-8"?>
<!-- Generator: Adobe Illustrator 24.0.1, SVG Export Plug-In . SVG Version: 6.00 Build 0)  -->
<svg version="1.1" id="图层_1" xmlns="http://www.w3.org/2000/svg" xmlns:xlink="http://www.w3.org/1999/xlink" x="0px" y="0px"
	 viewBox="0 0 22 21" style="enable-background:new 0 0 22 21;" xml:space="preserve">
<style type="text/css">
	.st0{fill:#FFFFFF;}
</style>
<path id="形状结合" class="st0" d="M10.8,0.5C16.5,0.5,21,5.1,21,10.7S16.5,21,10.8,21S0.6,16.4,0.6,10.7S5.2,0.5,10.8,0.5z
	 M10.8,2.2c-4.7,0-8.5,3.8-8.5,8.5s3.8,8.5,8.5,8.5s8.5-3.8,8.5-8.5S15.5,2.2,10.8,2.2z M12.4,6.8L12.4,6.8l3.3,3.3
	c0.3,0.3,0.3,0.8,0.1,1.1l-0.1,0.1l-3.2,3.2c-0.3,0.3-0.9,0.3-1.2,0c-0.3-0.3-0.3-0.8-0.1-1.1l0.1-0.1l1.8-1.8l-6.2,0
	c-0.5,0-0.9-0.4-0.9-0.9c0-0.4,0.3-0.8,0.7-0.8l0.1,0l6.2,0l-1.8-1.8c-0.3-0.3-0.3-0.8-0.1-1.1l0.1-0.1C11.6,6.6,12,6.6,12.4,6.8z"
	/>
</svg>
