<?xml version="1.0" encoding="utf-8"?>
<!-- Generator: Adobe Illustrator 24.0.1, SVG Export Plug-In . SVG Version: 6.00 Build 0)  -->
<svg version="1.1" id="图层_1" xmlns="http://www.w3.org/2000/svg" xmlns:xlink="http://www.w3.org/1999/xlink" x="0px" y="0px"
	 viewBox="0 0 22 13" style="enable-background:new 0 0 22 13;" xml:space="preserve">
<style type="text/css">
	.st0{fill-rule:evenodd;clip-rule:evenodd;fill:#222222;}
</style>
<path class="st0" d="M16.5,9.7c0.8,0,1.4,0.6,1.4,1.4s-0.6,1.4-1.4,1.4s-1.4-0.6-1.4-1.4S15.7,9.7,16.5,9.7z M4.5,9.5
	c0.8,0,1.4,0.6,1.4,1.4s-0.6,1.4-1.4,1.4s-1.4-0.6-1.4-1.4S3.7,9.5,4.5,9.5z M21,0c0.5,0,0.9,0.4,0.9,0.9v9.2c0,0.5-0.4,0.9-0.9,0.9
	l-2.8,0l0-0.1c-0.1-0.9-0.9-1.7-1.8-1.7c-1,0-1.8,0.8-1.8,1.8l-8.3,0l0-0.1C6.3,9.9,5.5,9.2,4.5,9.2c-1,0-1.8,0.8-1.8,1.8l-1.9,0
	C0.3,11,0.1,10,0,9.5l0-0.1c0-0.6-0.1-1.5,0-2c0.1-0.5,1.7-0.8,1.7-1.2S2,4.9,2.5,4.5c0.2-0.1,0.4-0.2,0.6-0.3
	C2.5,4.1,1.9,4,1.8,3.7l0-0.1c0-2,1.6-3.7,3.7-3.7H21z M6.2,6.9H5.2C5.1,6.9,5,7,5,7.1c0,0.1,0.1,0.2,0.2,0.2l0,0h0.9
	c0.1,0,0.2-0.1,0.2-0.2C6.4,7,6.3,6.9,6.2,6.9L6.2,6.9z M6.4,4.6H5.4c-1,0-1.8,0.8-1.8,1.8l0,0h2.8V4.6z M11.4,2.8H8.7
	C8.4,2.8,8.2,3,8.2,3.2l0,0v1.4C8.2,4.8,8.4,5,8.7,5l0,0h2.8c0.3,0,0.5-0.2,0.5-0.5l0,0V3.2C11.9,3,11.7,2.8,11.4,2.8L11.4,2.8z
	 M18.7,2.8h-3.7c-0.3,0-0.5,0.2-0.5,0.5l0,0v1.4c0,0.3,0.2,0.5,0.5,0.5l0,0h3.7c0.3,0,0.5-0.2,0.5-0.5l0,0V3.2
	C19.2,3,19,2.8,18.7,2.8L18.7,2.8z"/>
</svg>
