<svg id="图层_1" data-name="图层 1" xmlns="http://www.w3.org/2000/svg" viewBox="0 0 29.94 29.72"><defs><style>.cls-1{fill:#666;}</style></defs><title>好</title><ellipse class="cls-1" cx="9.98" cy="11.96" rx="1.98" ry="1.96"/><ellipse class="cls-1" cx="19.98" cy="11.96" rx="1.98" ry="1.96"/><path class="cls-1" d="M21.72,38.34A13.18,13.18,0,1,0,8.44,25.17,13.23,13.23,0,0,0,21.72,38.34Zm0,1.68a14.86,14.86,0,1,1,15-14.86A14.91,14.91,0,0,1,21.72,40Z" transform="translate(-6.75 -10.31)"/><path class="cls-1" d="M27.3,28.71a6.49,6.49,0,0,1-11,0,.85.85,0,0,0-1.17-.27.84.84,0,0,0-.27,1.16,8.19,8.19,0,0,0,13.87,0,.84.84,0,0,0-.27-1.16A.85.85,0,0,0,27.3,28.71Z" transform="translate(-6.75 -10.31)"/></svg>