<svg id="图层_1" data-name="图层 1" xmlns="http://www.w3.org/2000/svg" viewBox="0 0 29.94 29.72"><defs><style>.cls-1{fill:#666;}</style></defs><title>一般</title><ellipse class="cls-1" cx="9.98" cy="11.96" rx="1.98" ry="1.96"/><ellipse class="cls-1" cx="19.98" cy="11.96" rx="1.98" ry="1.96"/><path class="cls-1" d="M21.72,38.34A13.18,13.18,0,1,0,8.44,25.17,13.23,13.23,0,0,0,21.72,38.34Zm0,1.68a14.86,14.86,0,1,1,15-14.86A14.91,14.91,0,0,1,21.72,40Z" transform="translate(-6.75 -10.31)"/><path class="cls-1" d="M25.94,30.31H18.6a.84.84,0,1,0,0,1.68h7.34a.84.84,0,1,0,0-1.68Z" transform="translate(-6.75 -10.31)"/></svg>