<svg id="图层_1" data-name="图层 1" xmlns="http://www.w3.org/2000/svg" viewBox="0 0 29.84 29.72"><defs><style>.cls-1{fill:#666;}</style></defs><title>很差</title><path class="cls-1" d="M21.72,38.34A13.18,13.18,0,1,0,8.49,25.17,13.21,13.21,0,0,0,21.72,38.34Zm0,1.68A14.86,14.86,0,1,1,36.64,25.17,14.89,14.89,0,0,1,21.72,40Z" transform="translate(-6.8 -10.31)"/><path class="cls-1" d="M17.07,18.78l0,.09-.16.28a7,7,0,0,1-.6.84c-.11.13-.21.25-.32.36a5.77,5.77,0,0,1-.48.42,9,9,0,0,1-.85.59l-.28.17-.09.05a.84.84,0,1,0,.8,1.48l.47-.28a10.71,10.71,0,0,0,1-.71,7.44,7.44,0,0,0,.62-.55q.22-.22.43-.47a8.66,8.66,0,0,0,.74-1c.13-.22.22-.39.28-.49a.84.84,0,0,0-1.52-.74Z" transform="translate(-6.8 -10.31)"/><path class="cls-1" d="M23.88,19.52c.05.11.15.28.28.49a8.66,8.66,0,0,0,.74,1q.21.25.43.47a7.44,7.44,0,0,0,.62.55,10.71,10.71,0,0,0,1,.71l.47.28a.84.84,0,1,0,.8-1.48l-.09-.05-.28-.17a9,9,0,0,1-.85-.59,5.77,5.77,0,0,1-.48-.42c-.11-.11-.22-.23-.32-.36a7,7,0,0,1-.6-.84l-.16-.28,0-.09a.84.84,0,0,0-1.52.74Z" transform="translate(-6.8 -10.31)"/><path class="cls-1" d="M28.75,31.15a8.15,8.15,0,0,0-13.82,0,.84.84,0,0,0,1.43.89,6.46,6.46,0,0,1,11,0,.84.84,0,0,0,1.44-.89Z" transform="translate(-6.8 -10.31)"/></svg>