<svg id="图层_1" data-name="图层 1" xmlns="http://www.w3.org/2000/svg" viewBox="0 0 29.84 29.72"><defs><style>.cls-1,.cls-2{fill:#666;}.cls-1{fill-rule:evenodd;}</style></defs><title>非常好</title><polygon class="cls-1" points="9.53 13.19 7.97 14.05 8.27 12.22 7 10.93 8.75 10.66 9.53 9 10.32 10.66 12.07 10.93 10.8 12.22 11.1 14.05 9.53 13.19"/><polygon class="cls-1" points="19.53 13.19 17.97 14.05 18.27 12.22 17 10.93 18.75 10.66 19.53 9 20.32 10.66 22.07 10.93 20.8 12.22 21.1 14.05 19.53 13.19"/><path class="cls-2" d="M21.72,38.34A13.18,13.18,0,1,0,8.49,25.17,13.21,13.21,0,0,0,21.72,38.34Zm0,1.68A14.86,14.86,0,1,1,36.64,25.17,14.89,14.89,0,0,1,21.72,40Z" transform="translate(-6.8 -10.31)"/><path class="cls-2" d="M22.12,35.15c-3.79,0-7.32-3-7.32-6.73,0-.74,3.09-1.12,7.32-1.11s7.32.38,7.32,1.11C29.44,32.18,25.9,35.15,22.12,35.15Z" transform="translate(-6.8 -10.31)"/></svg>