<svg id="图层_1" data-name="图层 1" xmlns="http://www.w3.org/2000/svg" viewBox="0 0 29.94 29.72"><defs><style>.cls-1{fill:#666;}</style></defs><title>差</title><path class="cls-1" d="M21.72,38.37A13.18,13.18,0,1,0,8.44,25.19,13.23,13.23,0,0,0,21.72,38.37Zm0,1.68a14.86,14.86,0,1,1,15-14.86A14.91,14.91,0,0,1,21.72,40.05Z" transform="translate(-6.75 -10.33)"/><path class="cls-1" d="M24.94,30.33H17.6a.84.84,0,1,0,0,1.68h7.34a.84.84,0,1,0,0-1.68Z" transform="translate(-6.75 -10.33)"/><path class="cls-1" d="M16.18,22.71l0,0-.77.7-.25.23-.1.09A.84.84,0,0,0,15,24.95a.85.85,0,0,0,1.2.06l.1-.09.26-.23L17.3,24l0,0,.77-.71.27-.26.1-.11.07-.08a.85.85,0,0,0,0-1l-.07-.08-.1-.11-.27-.26-.77-.71,0,0-.78-.71-.26-.23-.1-.09a.85.85,0,0,0-1.2.06A.84.84,0,0,0,15,20.8l.1.09.25.23.77.7,0,0,.47.43Z" transform="translate(-6.75 -10.33)"/><path class="cls-1" d="M27.27,21.85l0,0,.77-.7.25-.23.1-.09a.84.84,0,0,0,.06-1.19.85.85,0,0,0-1.2-.06l-.1.09-.26.23-.78.71,0,0-.77.71-.27.26-.1.11-.07.08a.85.85,0,0,0,0,1l.07.08.1.11.27.26.77.71,0,0,.78.71.26.23.1.09a.85.85,0,0,0,1.2-.06.84.84,0,0,0-.06-1.19l-.1-.09-.25-.23-.77-.7,0,0-.47-.43Z" transform="translate(-6.75 -10.33)"/></svg>