<?xml version="1.0" encoding="UTF-8"?>
<svg width="20px" height="20px" viewBox="0 0 20 20" version="1.1" xmlns="http://www.w3.org/2000/svg" xmlns:xlink="http://www.w3.org/1999/xlink">
    <!-- Generator: Sketch 63.1 (92452) - https://sketch.com -->
    <title>icon_search</title>
    <desc>Created with Sketch.</desc>
    <defs>
        <path d="M9,1 C13.418278,1 17,4.581722 17,9 C17,10.8390407 16.3794619,12.5331469 15.3363484,13.8843559 L18.2737225,16.8211676 C18.6748345,17.2222795 18.6748345,17.8726106 18.2737225,18.2737225 C17.8726106,18.6748345 17.2222795,18.6748345 16.8211676,18.2737225 L16.8211676,18.2737225 L13.8843559,15.3363484 C12.5331469,16.3794619 10.8390407,17 9,17 C4.581722,17 1,13.418278 1,9 C1,4.581722 4.581722,1 9,1 Z M9,3 C5.6862915,3 3,5.6862915 3,9 C3,12.3137085 5.6862915,15 9,15 C12.3137085,15 15,12.3137085 15,9 C15,5.6862915 12.3137085,3 9,3 Z" id="path-1"></path>
        <filter x="-56.9%" y="-45.5%" width="213.8%" height="213.8%" filterUnits="objectBoundingBox" id="filter-2">
            <feOffset dx="0" dy="2" in="SourceAlpha" result="shadowOffsetOuter1"></feOffset>
            <feGaussianBlur stdDeviation="3" in="shadowOffsetOuter1" result="shadowBlurOuter1"></feGaussianBlur>
            <feColorMatrix values="0 0 0 0 0   0 0 0 0 0   0 0 0 0 0  0 0 0 0.22 0" type="matrix" in="shadowBlurOuter1"></feColorMatrix>
        </filter>
    </defs>
    <g id="页面-1" stroke="none" stroke-width="1" fill="none" fill-rule="evenodd">
        <g id="【ERC租车】PC---列表登陆后" transform="translate(-1188.000000, -77.000000)">
            <g id="编组-11">
                <g id="编组-7备份-2" transform="translate(1178.000000, 67.000000)">
                    <g id="图标/搜索" transform="translate(10.000000, 10.000000)">
                        <g id="编组">
                            <g id="形状结合">
                                <use fill="black" fill-opacity="1" filter="url(#filter-2)" xlink:href="#path-1"></use>
                                <use fill="#FFFFFF" fill-rule="evenodd" xlink:href="#path-1"></use>
                            </g>
                        </g>
                    </g>
                </g>
            </g>
        </g>
    </g>
</svg>