<?xml version="1.0" encoding="UTF-8"?>
<svg width="20px" height="20px" viewBox="0 0 20 20" version="1.1" xmlns="http://www.w3.org/2000/svg" xmlns:xlink="http://www.w3.org/1999/xlink">
    <!-- Generator: Sketch 63.1 (92452) - https://sketch.com -->
    <title>icon/seat</title>
    <desc>Created with Sketch.</desc>
    <g id="页面-1" stroke="none" stroke-width="1" fill="none" fill-rule="evenodd">
        <g id="显示信息多情况" transform="translate(-642.000000, -255.000000)" fill="#222222" fill-rule="nonzero">
            <g id="编组-14备份" transform="translate(398.000000, 144.000000)">
                <g id="分销">
                    <g id="Group-13" transform="translate(244.000000, 110.000000)">
                        <g id="Group-21-Copy" transform="translate(0.000000, 1.000000)">
                            <g id="icon/seat">
                                <g id="Combined-Shape">
                                    <path d="M4.90129308,7.7586388 C5.55559773,7.46080058 6.43365738,7.63568729 6.90080018,8.15003381 C6.97319108,8.22459608 7.09649813,8.35677313 7.25393295,8.5343365 C7.51560014,8.82945867 7.77727884,9.14507971 8.0223863,9.46949642 C8.27030213,9.7976302 8.48779467,10.1172872 8.66660861,10.4235605 C8.79497799,10.6434322 8.90214492,10.8543248 8.98594629,11.0557325 C9.06178314,11.2379983 9.15149984,11.4493235 9.2524274,11.6838799 C9.26670942,11.7170588 9.26670942,11.7170588 9.28100538,11.7502212 C9.40462131,12.0368723 9.53716861,12.3403466 9.66972927,12.6412595 C9.74926687,12.82181 9.81109347,12.961293 9.84696159,13.0418437 C9.97607429,13.3344857 10.3963128,13.6033069 10.7288908,13.6033069 L10.7288908,13.6033069 L15.3228035,13.6033069 C16.099929,13.6033069 16.7334747,14.2239593 16.7334747,14.9866328 L16.7334747,14.9866328 L16.7334747,15.4770591 C16.7334747,16.2455651 16.1029402,16.860385 15.3206692,16.860385 L15.3206692,16.860385 L8.22867684,16.860385 C7.50471496,16.860385 6.77004264,16.343166 6.53969742,15.6713221 C6.49482465,15.5391027 6.4155838,15.3072451 6.31271093,15.0090147 C6.14126634,14.5119935 5.96762568,14.0150181 5.80257388,13.5514815 C5.77330104,13.4693372 5.77330104,13.4693372 5.7439897,13.3873639 C5.39972317,12.4254335 5.14327888,11.7556823 5.02887282,11.5381623 C4.95211145,11.3688075 4.85019099,11.1649312 4.72815909,10.9347471 C4.69513941,10.8724633 4.67706622,10.8388222 4.62534119,10.7433213 C4.49690109,10.5070653 4.35891709,10.2629333 4.22089507,10.0251888 C4.13812512,9.8826166 4.07393667,9.77419541 4.03429198,9.70812793 C3.64086096,9.03097761 3.90733112,8.21108836 4.62517512,7.88432716 L4.62517512,7.88432716 Z M4.375,3.75 C5.41053391,3.75 6.25,4.57081129 6.25,5.58333333 C6.25,6.59585537 5.41053391,7.41666667 4.375,7.41666667 C3.33946609,7.41666667 2.5,6.59585537 2.5,5.58333333 C2.5,4.57081129 3.33946609,3.75 4.375,3.75 Z"></path>
                                </g>
                            </g>
                        </g>
                    </g>
                </g>
            </g>
        </g>
    </g>
</svg>