<?xml version="1.0" encoding="utf-8"?>
<!-- Generator: Adobe Illustrator 23.0.2, SVG Export Plug-In . SVG Version: 6.00 Build 0)  -->
<svg version="1.1" id="图层_1" xmlns="http://www.w3.org/2000/svg" xmlns:xlink="http://www.w3.org/1999/xlink" x="0px" y="0px"
	 viewBox="0 0 12 14" style="enable-background:new 0 0 12 14;" xml:space="preserve">
<style type="text/css">
	.st0{fill:#919191;}
</style>
<path class="st0" d="M11.3,8.4C11,11.6,6.1,14,6.1,14s-4.9-2.4-5.3-5.6c-0.4-3.2-0.1-7-0.1-7s1.8,0.4,2.8,0C5.2,0.9,6.1,0,6.1,0
	s0.9,0.8,2.5,1.4c1,0.4,2.8,0,2.8,0S11.7,5.2,11.3,8.4z M5.8,3.6C5.3,3.6,5,3.8,4.7,4C4.3,4.3,4.1,4.7,4.1,5.2
	c0,0.6,0.3,1.1,0.8,1.4L5.8,7v1.9c-0.2,0-0.4-0.1-0.6-0.2C5.1,8.5,5,8.2,4.9,7.7H4c0,0.7,0.2,1.2,0.6,1.5c0.3,0.3,0.7,0.4,1.2,0.5
	v0.7h0.5V9.7c0.5,0,0.8-0.2,1.2-0.4C7.9,9.1,8.1,8.6,8.1,8c0-0.6-0.3-1.1-0.8-1.4c0,0-0.4-0.2-1-0.4V4.4c0.2,0,0.3,0.1,0.5,0.2
	C6.9,4.7,7,5,7.1,5.3H8C7.9,4.7,7.7,4.3,7.4,4C7.1,3.8,6.7,3.6,6.3,3.6V2.9H5.8V3.6z M6.3,7.2C6.3,7.2,6.3,7.2,6.3,7.2
	c0.6,0.2,0.9,0.5,0.9,0.9c0,0.3-0.1,0.5-0.3,0.6C6.7,8.8,6.5,8.9,6.3,8.9V7.2z M5.8,6C5.3,5.8,5,5.6,5,5.2c0-0.3,0.1-0.5,0.3-0.7
	c0.1-0.1,0.3-0.1,0.5-0.2V6z"/>
</svg>
