<?xml version="1.0" encoding="utf-8"?>
<!-- Generator: Adobe Illustrator 23.0.1, SVG Export Plug-In . SVG Version: 6.00 Build 0)  -->
<svg version="1.1" id="图层_1" xmlns="http://www.w3.org/2000/svg" xmlns:xlink="http://www.w3.org/1999/xlink" x="0px" y="0px"
	 viewBox="0 0 40 40" style="enable-background:new 0 0 40 40;" xml:space="preserve">
<style type="text/css">
	.st0{fill-rule:evenodd;clip-rule:evenodd;fill:#5E636B;}
</style>
<g id="Page-1">
	<g id="地标页备份" transform="translate(-67.000000, -395.000000)">
		<g id="Shopping-Center" transform="translate(51.000000, 381.000000)">
			<g id="icon_Shopping-Center" transform="translate(16.000000, 14.000000)">
				<g id="编组" transform="translate(5.000000, 3.000000)">
					<path id="Fill-1" class="st0" d="M24.3,14.7h-5.7v-1c0-1.6,1.3-2.9,2.8-2.9s2.8,1.3,2.8,2.9V14.7z M29.1,14.7h-2.8v-1
						c0-2.6-2.1-4.8-4.7-4.8s-4.7,2.1-4.7,4.8v1h-2.8c-0.5,0-0.9,0.4-0.9,1v10.5c0,2.1,1.7,3.8,3.8,3.8h9.4c2.1,0,3.8-1.7,3.8-3.8
						V15.7C30,15.2,29.6,14.7,29.1,14.7L29.1,14.7z"/>
					<path id="Fill-3" class="st0" d="M5.7,5.6c0-2.1,1.7-3.8,3.8-3.8s3.8,1.7,3.8,3.8v1.9H5.7V5.6z M3.8,30h9.1
						c-0.9-1-1.5-2.3-1.5-3.8V15.9c0-1.6,1.3-2.8,2.9-2.8h1c0.3-2.2,1.7-4,3.7-4.9c-0.1-0.4-0.5-0.7-0.9-0.7h-2.9V5.6
						c0-3.1-2.6-5.6-5.7-5.6S3.8,2.5,3.8,5.6v1.9H1c-0.5,0-1,0.4-1,0.9v17.8C0,28.3,1.7,30,3.8,30L3.8,30z"/>
				</g>
			</g>
		</g>
	</g>
</g>
</svg>
