<?xml version="1.0" encoding="utf-8"?>
<!-- Generator: Adobe Illustrator 23.0.2, SVG Export Plug-In . SVG Version: 6.00 Build 0)  -->
<svg version="1.1" id="图层_1" xmlns="http://www.w3.org/2000/svg" xmlns:xlink="http://www.w3.org/1999/xlink" x="0px" y="0px"
	 viewBox="0 0 12 11" style="enable-background:new 0 0 12 11;" xml:space="preserve">
<style type="text/css">
	.st0{fill:#222222;}
</style>
<path class="st0" d="M3.8,8.7c0.1,0,0.3,0,0.4,0.1C4.4,8.8,4.5,8.9,4.6,9c0.1,0.1,0.2,0.2,0.2,0.3s0.1,0.3,0.1,0.4s0,0.3-0.1,0.4
	s-0.1,0.2-0.2,0.3c-0.1,0.1-0.2,0.2-0.3,0.2S4,10.8,3.8,10.8c-0.2,0-0.3,0-0.4-0.1c-0.1-0.1-0.2-0.1-0.3-0.2
	c-0.1-0.1-0.2-0.2-0.2-0.3S2.7,9.9,2.7,9.7s0-0.3,0.1-0.4S3,9.1,3,9c0.1-0.1,0.2-0.2,0.3-0.2C3.5,8.7,3.7,8.7,3.8,8.7z"/>
<path class="st0" d="M8.6,8.7c0.1,0,0.3,0,0.4,0.1C9.2,8.8,9.3,8.9,9.4,9c0.1,0.1,0.2,0.2,0.2,0.3s0.1,0.3,0.1,0.4
	c0,0.1,0,0.3-0.1,0.4s-0.1,0.2-0.2,0.3c-0.1,0.1-0.2,0.2-0.3,0.2s-0.3,0.1-0.4,0.1c-0.1,0-0.3,0-0.4-0.1s-0.2-0.1-0.3-0.2
	c-0.1-0.1-0.2-0.2-0.2-0.3c-0.1-0.1-0.1-0.3-0.1-0.4c0-0.1,0-0.3,0.1-0.4C7.7,9.2,7.8,9.1,7.9,9c0.1-0.1,0.2-0.2,0.3-0.2
	C8.3,8.7,8.5,8.7,8.6,8.7z"/>
<path class="st0" d="M10.5,2.2c0.2,0,0.4,0,0.5,0.1c0.1,0.1,0.2,0.1,0.3,0.2c0,0.1,0.1,0.2,0.1,0.3c0,0.1,0,0.2,0,0.2
	c0,0.1-0.1,0.2-0.1,0.4c-0.1,0.2-0.2,0.5-0.2,0.7s-0.2,0.5-0.3,0.8c-0.1,0.3-0.2,0.5-0.2,0.6c-0.1,0.3-0.2,0.5-0.4,0.6
	S9.7,6.3,9.5,6.3H9.1H8.4h-1H6.3H3.5l0.2,1h5.8c0.4,0,0.6,0.2,0.6,0.5c0,0.2,0,0.3-0.1,0.4C9.8,8.3,9.7,8.4,9.5,8.4H8.9H7.8H6.5H5.2
	H4H3.4c-0.2,0-0.3,0-0.4-0.1C2.9,8.2,2.8,8.1,2.8,8C2.7,7.9,2.7,7.8,2.6,7.6c0-0.1-0.1-0.3-0.1-0.4c0,0,0-0.2-0.1-0.3
	c0-0.2-0.1-0.4-0.1-0.7c0-0.3-0.1-0.6-0.2-0.9C2.1,5.1,2,4.7,2,4.4C1.8,3.6,1.7,2.8,1.5,1.8H0.6c-0.1,0-0.2,0-0.3-0.1
	S0.2,1.6,0.1,1.5S0,1.3,0,1.3S0,1.1,0,1c0-0.2,0.1-0.3,0.2-0.4s0.2-0.1,0.4-0.1h0.2h0.2h0.3h0.4c0.2,0,0.3,0,0.4,0.1
	s0.2,0.1,0.2,0.2c0.1,0.1,0.1,0.1,0.1,0.2s0,0.1,0.1,0.2c0,0.1,0,0.1,0,0.3c0,0.1,0,0.2,0,0.3c0,0.1,0,0.3,0.1,0.4H10.5L10.5,2.2z"
	/>
<path class="st0" d="M9.7,1.8H5.5L7,0.3C7.2,0.1,7.4,0,7.6,0C7.8,0,8,0.1,8.1,0.3L9.7,1.8z"/>
</svg>
