<svg id="图层_1" data-name="图层 1" xmlns="http://www.w3.org/2000/svg" viewBox="0 0 25 30"><defs><style>.cls-1{fill:#137fc4;}</style></defs><title>Simpler</title><path class="cls-1" d="M22.08,27.52h3.85a1.48,1.48,0,0,0,1.5-1.5V21.94c0-.56-.28-.7-.7-.28l-5,5.16C21.38,27.19,21.52,27.52,22.08,27.52Zm17.68,6h-8a.75.75,0,1,1,0-1.5h8a.74.74,0,0,1,.75.75A.77.77,0,0,1,39.76,33.47Zm0,5H27.24a.75.75,0,1,1,0-1.5H39.76a.74.74,0,0,1,.75.75A.81.81,0,0,1,39.76,38.48Zm0,5H27.24a.75.75,0,1,1,0-1.5H39.76a.74.74,0,0,1,.75.75A.81.81,0,0,1,39.76,43.5ZM43,21H30.47A1.51,1.51,0,0,0,29,22.5v5a1.48,1.48,0,0,1-1.5,1.5h-5a1.48,1.48,0,0,0-1.5,1.5V48a3,3,0,0,0,3,3H43a3,3,0,0,0,3-3V24A3,3,0,0,0,43,21Z" transform="translate(-21 -21)"/></svg>