<?xml version="1.0" encoding="utf-8"?>
<!-- Generator: Adobe Illustrator 23.0.1, SVG Export Plug-In . SVG Version: 6.00 Build 0)  -->
<svg version="1.1" id="图层_1" xmlns="http://www.w3.org/2000/svg" xmlns:xlink="http://www.w3.org/1999/xlink" x="0px" y="0px"
	 viewBox="0 0 40 40" style="enable-background:new 0 0 40 40;" xml:space="preserve">
<style type="text/css">
	.st0{fill-rule:evenodd;clip-rule:evenodd;fill:#5E636B;}
</style>
<g id="Page-1">
	<g id="地标页备份" transform="translate(-67.000000, -1319.000000)">
		<g id="Ski-Lift" transform="translate(51.000000, 1305.000000)">
			<g id="icon_Ski-Lift" transform="translate(16.000000, 14.000000)">
				<path id="形状结合" class="st0" d="M35.5,33.4l1.3,0.5c-0.7,1.6-1.8,2.5-3.5,2.6c-0.3,0-1.7,0-3.7,0l-3.5,0
					c-5,0-10.9,0-11.3,0l0-1.4c6,0,17.7,0,18.5,0C33.9,35.1,34.9,34.9,35.5,33.4z M24.9,1.1l0.7,1.9l-7,2.7v5.8l-6.1,0
					c-0.9,0-1.7,0.7-1.7,1.6l0,0.1v13.2c0,0.9,0.7,1.7,1.6,1.7l0.1,0h10v-0.7h-6.8c-1,0-1.8-0.8-1.9-1.8l0-0.1V19
					c0.1-0.3,0.5-0.6,0.9-0.6l0.1,0H18c0.5,0,0.9,0.4,1,0.9l0,0.1v1h5.2v2.4H19v1h5.4c1,0,1.8,0.8,1.9,1.8l0,0.1v8.3h-3.8v-3.3h-10
					c-2.2,0-4-1.8-4.2-4l0-0.2V13.3c0-2.2,1.8-4,4-4.2l0.2,0h4.4l0-2.7L6.5,10.3L5.7,8.4L24.9,1.1z M16.2,13.1c1.3,0,2.3,1,2.3,2.3
					s-1,2.3-2.3,2.3c-1.3,0-2.3-1-2.3-2.3S14.9,13.1,16.2,13.1z"/>
			</g>
		</g>
	</g>
</g>
</svg>
