<svg id="图层_1" data-name="图层 1" xmlns="http://www.w3.org/2000/svg" viewBox="0 0 11 14"><defs><style>.cls-1{fill:#444;}</style></defs><title>小行李</title><path class="cls-1" d="M37.91,38a.88.88,0,1,1,.8-.88A.84.84,0,0,1,37.91,38Zm-4.82,0a.88.88,0,1,1,.8-.88A.84.84,0,0,1,33.09,38Zm2.41-6.12c1.17,0,2.14,1.5,2.36,3.5H33.14C33.36,33.38,34.33,31.88,35.5,31.88Zm4.88,4.37a.91.91,0,0,0-.86-.87h-.85C38.41,32.89,37.09,31,35.5,31s-2.91,1.89-3.17,4.38h-.85a.91.91,0,0,0-.86.87L30,44.13a.83.83,0,0,0,.87.87h9.26a.84.84,0,0,0,.87-.87Z" transform="translate(-30 -31)"/></svg>