<?xml version="1.0" encoding="utf-8"?>
<!-- Generator: Adobe Illustrator 23.0.1, SVG Export Plug-In . SVG Version: 6.00 Build 0)  -->
<svg version="1.1" id="图层_1" xmlns="http://www.w3.org/2000/svg" xmlns:xlink="http://www.w3.org/1999/xlink" x="0px" y="0px"
	 viewBox="0 0 40 40" style="enable-background:new 0 0 40 40;" xml:space="preserve">
<style type="text/css">
	.st0{fill-rule:evenodd;clip-rule:evenodd;fill:#5E636B;}
</style>
<g id="Page-1">
	<g id="地标页备份" transform="translate(-67.000000, -563.000000)">
		<g id="Stadium" transform="translate(51.000000, 549.000000)">
			<g id="icon_Stadium" transform="translate(16.000000, 14.000000)">
				<path id="Fill-1" class="st0" d="M19.8,29.5c-0.8,0-1.4,0.6-1.4,1.4l0.2,2C10.8,33,7,29,6.7,27.9c2.5,1.6,6.3,2.9,10.5,3.2
					l-0.1-0.3c0-0.2,0-0.4,0.1-0.6C7.2,29.1,5.4,26,4.9,24.4c3,2.3,8.2,4,13.5,4.2c0.4-0.2,0.9-0.4,1.4-0.4c0.5,0,1,0.1,1.4,0.4
					c5.4-0.2,10.5-2,13.5-4.2c-0.6,1.6-2.3,4.6-12.4,5.7c0,0.2,0.1,0.4,0.1,0.6l-0.1,0.3c4.3-0.3,8-1.5,10.5-3.2
					C32.6,29,28.8,33,21,33l0.2-2C21.3,30.2,20.6,29.5,19.8,29.5L19.8,29.5z M32.9,17.8c0-0.8-0.5-1.5-1.3-2.1l-1.9,1.8
					c0.8,0.3,1.4,0.7,2,1c-0.1,0.2-0.4,0.5-0.6,0.7c-0.6-0.4-1.3-0.7-2.1-1l-2.3,2.2c0.5,0.1,1,0.3,1.4,0.4
					c-0.6,0.2-1.2,0.3-1.9,0.5c-1.7-0.4-3.6-0.6-5.5-0.6v0h-1v0c-1.9,0-3.8,0.3-5.4,0.6c-0.7-0.1-1.3-0.3-1.9-0.5
					c0.5-0.1,0.9-0.3,1.4-0.4l-2.2-2.2c-0.9,0.3-1.6,0.7-2.2,1.1C9,19,8.8,18.7,8.7,18.5c0.6-0.4,1.3-0.8,2.1-1.1l-1.9-1.8
					c-0.9,0.7-1.5,1.4-1.5,2.2c0,2.6,5.7,4.8,12.7,4.8C27.2,22.6,32.9,20.5,32.9,17.8L32.9,17.8z M9.7,15.1l2,2
					c1-0.3,2.2-0.6,3.4-0.8L14,13.6C12.3,14,10.8,14.5,9.7,15.1L9.7,15.1z M15.6,17.2c-1.1,0.2-2.1,0.4-3,0.6l2.3,2.3
					c0.6-0.1,1.2-0.2,1.9-0.3L15.6,17.2z M17.8,19.7c0.6,0,1.2-0.1,1.8-0.1v-2.8c-1.1,0-2.1,0.1-3,0.2L17.8,19.7z M15,13.4l1.2,2.7
					c1.1-0.1,2.2-0.2,3.4-0.2V13C18,13.1,16.4,13.2,15,13.4L15,13.4z M17.1,6.8H18c0.2,0,0.4-0.2,0.4-0.4c0-0.2-0.2-0.4-0.4-0.4
					h-0.9c-0.2,0-0.4,0.2-0.4,0.4C16.7,6.6,16.9,6.8,17.1,6.8L17.1,6.8z M22.1,6.4c0,0.2,0.2,0.4,0.4,0.4h0.9c0.2,0,0.4-0.2,0.4-0.4
					c0-0.2-0.2-0.4-0.4-0.4h-0.9C22.3,5.9,22.1,6.1,22.1,6.4L22.1,6.4z M20.6,13v2.9c1.2,0,2.4,0.1,3.5,0.2l1.3-2.7
					C23.9,13.2,22.3,13.1,20.6,13L20.6,13z M23.5,19.8c0.7,0.1,1.3,0.2,1.9,0.3l2.4-2.3c-0.9-0.3-2-0.5-3.1-0.7L23.5,19.8z
					 M22.4,11.1V9.8H18v1.3c0.6,0,1.2,0,1.8,0C20.7,11.1,21.6,11.1,22.4,11.1L22.4,11.1z M20.6,19.6c0.6,0,1.2,0,1.8,0.1l1.3-2.7
					c-1-0.1-2-0.2-3.1-0.2V19.6z M26.4,13.6l-1.2,2.6c1.3,0.2,2.4,0.5,3.5,0.8l2.1-1.9C29.6,14.5,28.1,14,26.4,13.6L26.4,13.6z
					 M36.7,18.1c0,0-0.4,2.4-1.2,4.6c-2.6,3-8.9,5.1-15.6,5.1c-6.7,0-13-2.1-15.6-5.1C3.4,20.4,3,18.1,3,18.1c0-1.1,0.6-2.1,1.6-3
					V9.3c0-0.3,0.2-0.5,0.5-0.5c0.3,0,0.5,0.2,0.5,0.5v0.1l3.7,1.2l-3.7,1.2v2.6c1.1-0.7,2.6-1.4,4.2-1.9V7.2c0-0.3,0.2-0.5,0.5-0.5
					c0.3,0,0.5,0.2,0.5,0.5v0.1l3.7,1.2l-3.7,1.2v2.5c1.9-0.5,4-0.9,6.3-1V9.8h-1.8V4h9.9v5.8h-1.8v1.4c1.4,0.1,2.7,0.3,3.9,0.6V7.2
					c0-0.3,0.2-0.5,0.5-0.5c0.3,0,0.5,0.2,0.5,0.5v0.1l3.7,1.2l-3.7,1.2V12c1.6,0.4,3,0.9,4.2,1.5V9.3c0-0.3,0.2-0.5,0.5-0.5
					c0.3,0,0.5,0.2,0.5,0.5v0.1l3.5,1.2l-3.5,1.2V14C35.5,15.2,36.7,16.6,36.7,18.1L36.7,18.1z"/>
			</g>
		</g>
	</g>
</g>
</svg>
