<?xml version="1.0" encoding="utf-8"?>
<!-- Generator: Adobe Illustrator 23.0.1, SVG Export Plug-In . SVG Version: 6.00 Build 0)  -->
<svg version="1.1" id="图层_1" xmlns="http://www.w3.org/2000/svg" xmlns:xlink="http://www.w3.org/1999/xlink" x="0px" y="0px"
	 viewBox="0 0 40 40" style="enable-background:new 0 0 40 40;" xml:space="preserve">
<style type="text/css">
	.st0{fill-rule:evenodd;clip-rule:evenodd;fill:#5E636B;}
	.st1{fill:#5E636B;}
</style>
<g id="Page-1">
	<g id="地标页备份" transform="translate(-67.000000, -227.000000)">
		<g id="Subway-Station" transform="translate(51.000000, 213.000000)">
			<g id="icon_Subway-Station" transform="translate(16.000000, 14.000000)">
				<g id="编组" transform="translate(5.000000, 5.000000)">
					<path id="形状结合" class="st0" d="M11.2,25.6l-1.1,1.5h9.6l-1.1-1.5H21l3,4.4h-2.2l-1.1-1.5H9.3L8.2,30H6l3-4.4H11.2z
						 M20.4,7c1.5,0,2.6,1.2,2.6,2.6l0,0v12.8c0,1.4-1.2,2.6-2.6,2.6l0,0H9.6c-1.5,0-2.6-1.2-2.6-2.6l0,0V9.6C6.9,8.2,8.1,7,9.6,7
						l0,0H20.4z M19.1,20.3c-0.8,0-1.5,0.7-1.5,1.5c0,0.8,0.7,1.5,1.5,1.5c0.8,0,1.5-0.7,1.5-1.5C20.5,20.9,19.9,20.3,19.1,20.3z
						 M10.9,20.3c-0.8,0-1.5,0.7-1.5,1.5c0,0.8,0.7,1.5,1.5,1.5c0.8,0,1.5-0.7,1.5-1.5C12.4,20.9,11.8,20.3,10.9,20.3z M19.9,9.6
						h-9.9c-1.1,0-2,0.9-2,1.9l0,0v5.3h13.8v-5.3C21.9,10.5,21,9.6,19.9,9.6L19.9,9.6z"/>
					<path id="路径" class="st1" d="M15-0.5c7.4,0,13.3,5.9,13.5,13.2l0,0.3v17h-3V13c0-5.8-4.7-10.5-10.5-10.5
						C9.3,2.5,4.7,7,4.5,12.7l0,0.3v17h-3V13C1.5,5.5,7.5-0.5,15-0.5z"/>
				</g>
			</g>
		</g>
	</g>
</g>
</svg>
