<?xml version="1.0" encoding="utf-8"?>
<!-- Generator: Adobe Illustrator 23.0.1, SVG Export Plug-In . SVG Version: 6.00 Build 0)  -->
<svg version="1.1" id="图层_1" xmlns="http://www.w3.org/2000/svg" xmlns:xlink="http://www.w3.org/1999/xlink" x="0px" y="0px"
	 viewBox="0 0 40 40" style="enable-background:new 0 0 40 40;" xml:space="preserve">
<style type="text/css">
	.st0{fill-rule:evenodd;clip-rule:evenodd;fill:#5E636B;}
</style>
<g id="Page-1">
	<g id="地标页备份" transform="translate(-67.000000, -731.000000)">
		<g id="Theater" transform="translate(51.000000, 717.000000)">
			<g id="icon_Theater" transform="translate(16.000000, 14.000000)">
				<g id="icon" transform="translate(1.000000, 4.000000)">
					<path id="形状结合" class="st0" d="M19.3,6.2l0.3,0.5c0.7,1.3,1.3,2.7,1.7,4.2l0,0l0.1,0.4c2.7,8.9,0.4,17.4-5.1,19.3l0,0
						l-0.2,0.1c-5.5,1.6-12.2-4.1-15-13l0,0l-0.2-0.6c-0.4-1.5-0.7-3-0.9-4.4l0,0l0.5,0.1c3.2,0.4,6.5,0.1,9.9-1
						C13.9,10.6,16.9,8.6,19.3,6.2L19.3,6.2z M18.3,22.2L18.3,22.2c0,0-0.1,0.1-0.1,0.1l0,0l0,0c0,0-0.1,0.1-0.1,0.1l0,0l0,0l0,0
						l0,0l0,0.1l0,0l0,0l-0.1,0.1l0,0l-0.1,0.1l-0.1,0.1l0,0l-0.1,0.1L17.6,23l0,0l-0.1,0.1l-0.1,0.1l0,0l-0.1,0.1l-0.1,0.1l0,0
						l-0.1,0.1l-0.1,0.1l0,0l-0.1,0.1l-0.1,0.1l0,0L17,23.5l-0.1,0.1l0,0l-0.1,0.1l-0.1,0.1l0,0l-0.1,0.1l0,0l0,0l0,0l0,0l0,0l0,0
						l-0.1,0l0,0l-0.1,0l-0.1,0l0,0l0,0l0,0l-0.1,0l0,0l-0.1,0l0,0l0,0l0,0l0,0l0,0l0,0l-0.1,0l0,0l-0.1,0l-0.2,0.1
						c-0.1,0.1-0.3,0.1-0.4,0.2l0,0L15,24.6c-0.1,0.1-0.3,0.1-0.4,0.1l0,0l-0.3,0.1l0,0l-0.3,0.1L13.5,25l0,0l-0.4,0.1l-0.2,0l0,0
						l-0.2,0l0,0l0,0l0,0l0,0l0,0l0,0l-0.1,0l0,0l-0.1,0l-0.1,0l0,0l-0.2,0l0,0l-0.1,0l-0.1,0l0,0l-0.1,0l-0.1,0l0,0l-0.1,0l-0.2,0
						c-0.2,0-0.3,0-0.5,0l0,0l-0.2,0l-0.1,0l0,0l-0.1,0l-0.1,0l0,0l-0.1,0l-0.1,0c-0.1,0-0.2,0-0.3,0l0,0l-0.1,0c-0.1,0-0.1,0-0.1,0
						l0,0l-0.2,0.1c0,0,0,0.1,0.1,0.1l0,0l0,0.1l0,0l0.1,0.1l0,0l0,0l0,0l0,0l0,0l0,0l0.1,0.1l0,0l0.1,0.1l0.1,0.1l0,0l0.1,0.1l0,0
						l0,0l0,0l0.1,0.1l0.1,0.1l0,0l0.1,0.1l0,0l0,0l0,0l0,0l0,0l0,0l0.1,0.1l0,0l0.1,0.1l0.1,0.1l0,0l0.1,0l0.1,0l0,0l0.1,0.1l0.1,0
						l0,0l0.1,0l0.1,0l0,0l0.1,0l0.1,0l0,0l0.1,0l0.1,0l0,0l0.1,0l0.1,0l0.1,0l0,0l0.1,0l0.1,0l0,0l0.1,0l0.3,0c0.3,0,0.5,0,0.8,0
						l0,0l0.3,0c0.3,0,0.6-0.1,0.8-0.2l0,0l0.3-0.1c0.3-0.1,0.5-0.2,0.8-0.4l0,0l0.1-0.1l0,0l0.1-0.1l0.2-0.2l0.1,0l0,0l0,0l0,0
						l0.1-0.1l0.1,0l0,0l0.1,0l0.1,0l0,0l0,0l0.1-0.1l0,0l0.1-0.1l0.1-0.1l0,0l0.1-0.1l0,0l0,0l0-0.1l0-0.1l0,0l0-0.1l0.1-0.1l0,0
						l0.1-0.1l0.1-0.1l0,0l0.1-0.1l0-0.1l0,0l0-0.1l0-0.1l0,0l0-0.1l0.1-0.1l0,0l0.1-0.1l0-0.1l0,0l0-0.1l0-0.1l0,0l0-0.1l0-0.1l0,0
						l0-0.1l0-0.1l0,0l0-0.1l0-0.1l0,0l0-0.1l0-0.1l0,0l0-0.1l0,0l0,0l0,0l0,0l0,0l0,0l0-0.1l0,0l0-0.1l0-0.1c0-0.1,0-0.1,0-0.1l0,0
						l0-0.1l0,0l0-0.1l0-0.1c0-0.1,0-0.1,0-0.1l0,0L18.3,22.2z M18.2,0c2.5,2.4,5.6,4.3,9.2,5.4l0,0l0.5,0.2c3.4,1,6.9,1.1,10.1,0.5
						l0,0l-0.1,0.6c-0.2,1.5-0.5,3-0.9,4.5l0,0l-0.1,0.4c-2.7,8.9-9.3,14.7-14.9,13.2l0,0l0.1-0.4c0.5-1.4,0.8-3.1,0.9-4.8l0,0
						l0.1,0l0,0l0.1,0l0.2,0.1c0.1,0,0.3,0.1,0.4,0.1l0,0l0.2,0.1c0.1,0.1,0.3,0.1,0.4,0.2l0,0l0.1,0l0,0l0.1,0l0,0l0,0l0,0l0.1,0
						l0.1,0l0,0l0.1,0l0,0l0,0l0.1,0l0,0l0,0l0.1,0l0,0l0.1,0l0,0l0,0l0,0l0,0l0,0l0,0l0.1,0.1l0,0l0.1,0.1l0.1,0.1l0,0l0.1,0.1
						l0.1,0.1l0,0l0.1,0.1l0.1,0.1l0,0l0.1,0.1l0,0l0.1,0.1l0.1,0.1l0,0l0.1,0.1l0.1,0.1l0,0l0.1,0.1l0.1,0.1l0,0l0.1,0.1l0.1,0.1
						l0,0l0.1,0.1l0,0l0,0l0,0.1l0,0l0,0l0,0l0,0.1c0,0,0.1,0.1,0.1,0.1l0,0l0,0c0.1,0.1,0.1,0.1,0.1,0.1l0,0l0.2,0c0,0,0-0.1,0-0.1
						l0,0l0-0.1l0,0l0-0.1l0-0.1c0,0,0-0.1,0-0.2l0,0l0-0.1l0,0l0-0.1l0,0l0,0l0,0l0,0l0,0l0,0l0-0.1l0,0l0-0.1l0-0.1l0,0l0-0.1
						l0-0.1l0,0l0-0.1l0-0.1l0,0l0-0.1l0-0.1l0,0l0-0.1l0-0.1l0,0l0-0.1l-0.1-0.1l0,0l-0.1-0.1l0-0.1l0,0l0-0.1l0-0.1l0,0l0-0.1
						l-0.1-0.1l0,0l-0.1-0.1l-0.1-0.1l0,0l-0.1-0.1l0-0.1l0,0l0-0.1l0-0.1l0,0l0,0l-0.1-0.1l0,0l-0.1-0.1L26,18.7l0,0l-0.1-0.1
						l-0.1,0l0,0l-0.1,0l-0.1,0l0,0l-0.1,0l-0.1,0l0,0l-0.1,0l0,0l0,0l0,0l-0.1,0l-0.1-0.1l0,0l-0.1-0.1L25.1,18l0,0L25,18l-0.3-0.1
						c-0.3-0.1-0.5-0.2-0.8-0.3l0,0l-0.3-0.1c-0.2,0-0.4-0.1-0.6-0.1l0,0l0-0.6C23,14.9,22.6,13,22,11l0,0l0.1,0l0,0l0.1,0l0.1,0
						l0,0l0.1,0l0.1,0l0,0l0.1,0l0.1,0l0,0l0.1,0l0.1,0l0,0l0.1,0l0.2-0.1l0,0l0.2-0.1l0.2-0.1l0,0l0.1-0.1l0.1-0.1l0,0l0.1-0.1
						l0.1-0.1l0,0l0.1-0.1l0.1-0.1c0.1-0.1,0.1-0.2,0.2-0.2l0,0l0,0l0,0l0,0l0,0l0,0l0,0l0-0.1l0,0l0-0.1l0,0l0,0l0,0l0,0l0,0l0,0
						l0-0.2c0,0,0,0-0.1,0l0,0l-0.1,0c0,0-0.1,0-0.2,0l0,0l-0.1,0l0,0l-0.1,0l-0.1,0l0,0l-0.1,0l-0.1,0l0,0l-0.1,0l-0.1,0l0,0
						l-0.1,0l-0.1,0l0,0l-0.1,0l0,0l-0.1,0l-0.1,0l0,0l-0.1,0l-0.1,0l0,0l-0.1,0l-0.1,0l0,0l-0.1,0l-0.1,0l0,0l-0.1,0l-0.2,0
						c-0.1,0-0.3-0.1-0.4-0.1l0,0l-0.2-0.1C21.7,9.1,21.6,9,21.4,9l0,0l-0.1,0l0,0l-0.1,0l-0.2-0.6c-0.5-1.1-1-2.2-1.6-3.2l0,0
						l-0.4,0.4c-1.1,1.1-2.3,2.1-3.6,3l0,0l0.1-0.6c0.2-1,0.4-2,0.7-3.1l0,0l0.2-0.7C17,2.7,17.5,1.3,18.2,0L18.2,0z M8.3,16.1
						l-0.2,0c-0.2,0-0.4,0-0.6,0.1l0,0l-0.2,0.1c-0.2,0.1-0.4,0.1-0.6,0.2l0,0l-0.2,0.1C6.3,16.7,6.1,16.9,6,17l0,0l-0.2,0.2
						c-0.2,0.2-0.3,0.3-0.4,0.5l0,0l-0.1,0.2C5.2,18,5.1,18.2,5,18.4l0,0L5,18.6l0,0l0,0.2l0,0.2l0,0l0,0.2l0,0.1l0,0l0,0.1l0,0.1
						l0,0l0,0.1l0,0.1l0,0l0,0.1l0,0.1l0,0l0,0.1l0,0.1l0,0l0,0.1l0,0.1l0,0L5,20l0,0.1l0,0.1l0,0l0,0.1l0,0l0,0l0,0l0,0l0,0l0,0
						l0,0.1l0,0l0,0.1l0,0l0,0l0,0l0,0l0,0l0,0l0.2,0c0,0,0,0,0-0.1l0-0.1c0,0,0-0.1,0-0.2l0,0l0-0.1l0,0l0-0.1l0-0.1l0,0l0-0.1
						l0-0.1l0,0l0-0.1l0.1-0.1l0,0l0.1-0.1l0.1-0.1l0,0L6,19.5l0.1-0.1l0,0l0.1-0.1l0.1-0.1c0.1-0.1,0.2-0.2,0.3-0.3l0,0l0.1-0.1
						c0.1-0.1,0.2-0.2,0.3-0.2l0,0l0.2-0.1c0.1-0.1,0.2-0.1,0.4-0.2l0,0L7.7,18C7.8,18,7.9,17.9,8,17.9l0,0l0.2-0.1
						c0.1,0,0.3-0.1,0.4-0.1l0,0l0.1,0l0,0l0.1,0l0.1,0l0,0l0.1,0l0.1,0l0,0l0.1,0l0.1,0l0.1,0l0,0l0.1,0l0.1,0l0,0l0.1,0l0.1,0l0,0
						l0.2,0l0,0l0.1,0l0.1,0l0,0l0.1,0l0.1,0l0,0l0.1,0l0.1,0c0.1,0,0.1,0,0.1,0l0,0l0,0c0,0,0,0,0,0l0,0l0-0.2l0,0l0,0l0,0l0,0l0,0
						l0-0.1l0,0l0-0.1l0,0l0,0l0,0l0,0l0,0l0,0L10.4,17c-0.1-0.1-0.1-0.1-0.2-0.2l0,0L10,16.7l0,0l-0.1-0.1l-0.1-0.1l0,0l-0.1-0.1
						l-0.1-0.1l0,0l-0.2-0.1l-0.2-0.1l0,0l-0.2,0l-0.1,0l0,0l-0.1,0l-0.1,0l0,0l-0.1,0l-0.1,0l0,0l-0.1,0
						C8.4,16.1,8.3,16.1,8.3,16.1L8.3,16.1z M17.2,13.4c-0.2,0-0.4,0-0.6,0l0,0l-0.2,0c-0.2,0-0.4,0.1-0.6,0.2l0,0l-0.2,0.1
						c-0.2,0.1-0.4,0.2-0.5,0.3l0,0l-0.1,0.1l0,0l-0.1,0.1l-0.1,0.1l0,0l-0.1,0.1l-0.1,0.1l0,0l-0.1,0.1l-0.1,0.1l0,0l-0.1,0.1
						l-0.1,0.1l0,0l-0.1,0.1L14.1,15l0,0l-0.1,0.1L14,15.3l0,0l-0.1,0.1l0,0.1l0,0l0,0.1l0,0.2c0,0.1,0,0.2,0,0.3l0,0l0,0l0,0l0,0
						l0,0l0,0l0,0l0,0.1l0,0l0,0.1l0,0.1l0,0l0,0l0,0l0,0l0,0l0.1,0.1c0,0,0,0,0.1-0.1l0,0l0,0c0,0,0.1-0.1,0.1-0.1l0,0l0.1,0l0,0
						l0.1-0.1l0.1-0.1l0,0l0.1-0.1l0.1-0.1l0,0l0.1-0.1l0,0l0,0l0,0l0,0l0,0l0,0l0,0l0,0l0,0l0.1-0.1l0.1-0.1l0,0l0.1-0.1l0.1-0.1
						l0,0l0.1-0.1l0.1-0.1l0,0l0.1-0.1l0.2-0.1c0.1,0,0.2-0.1,0.4-0.1l0,0l0.2-0.1c0.1,0,0.3-0.1,0.4-0.1l0,0l0.2,0
						c0.1,0,0.3,0,0.4,0l0,0l0.2,0c0.1,0,0.3,0,0.4,0l0,0l0.2,0c0.1,0,0.2,0.1,0.4,0.1l0,0l0.1,0l0,0l0.1,0l0.1,0l0,0l0.1,0l0.1,0
						l0,0l0.1,0l0.1,0l0,0l0.1,0l0.1,0l0,0l0.1,0l0.1,0l0,0l0.1,0l0.1,0c0,0,0.1,0.1,0.1,0.1l0,0l0,0c0,0,0,0,0,0l0,0l0.1-0.1l0-0.1
						l0,0l0-0.1l0-0.1l0,0l0-0.1l0,0l0,0l0,0l0,0l0,0l0,0l0-0.1l0,0l0-0.1l0-0.1l0,0l0-0.1l0-0.1l0,0l0-0.1l0-0.1l0,0l0-0.1l0-0.1
						l0,0l0-0.1l0-0.1l0,0l0-0.1l0-0.1l0,0l0-0.1l0-0.1l0,0l-0.1-0.1l-0.1-0.1l0,0l-0.1-0.1l-0.1-0.1l0,0l-0.2-0.1l-0.2-0.1
						c-0.2-0.1-0.4-0.2-0.5-0.3l0,0L18,13.5c-0.2-0.1-0.4-0.1-0.6-0.1l0,0L17.2,13.4z M27.9,10.5l-0.1,0.1l0,0l0,0l0,0l0,0l0,0.1
						l0,0.1l0,0l0,0.1l0,0l0,0l0,0l0,0l0,0l0,0l0,0.1c0,0.1,0,0.2,0.1,0.3l0,0l0,0.1l0,0l0.1,0.1L28,12l0,0l0.1,0.1l0.1,0.1l0,0
						l0.1,0.1l0.1,0.1l0,0l0.1,0.1l0.1,0.1l0,0l0.1,0.1l0.1,0.1l0,0l0.1,0.1l0.1,0.1l0,0l0.1,0.1l0.1,0.1l0,0l0.1,0.1l0.2,0.1
						c0.2,0.1,0.4,0.2,0.6,0.3l0,0l0.2,0.1c0.2,0.1,0.4,0.1,0.6,0.1c0.2,0,0.3,0,0.5,0l0,0l0.2,0l0,0l0.2,0l0.2,0
						c0.2,0,0.4-0.1,0.6-0.2l0,0l0.2-0.1c0.2-0.1,0.4-0.2,0.5-0.3l0,0l0.2-0.1l0,0l0.1-0.1l0.1-0.1l0,0l0.1-0.1l0.1-0.1l0,0l0-0.1
						l0-0.1l0,0l0-0.1l0-0.1l0,0l0-0.1l0-0.1l0,0l0-0.1l0-0.1l0,0l0-0.1l0-0.1l0,0l0-0.1l0-0.1l0,0l0-0.1l0-0.1l0,0l0-0.1l0-0.1l0,0
						l0,0l0,0l0,0l0,0l0-0.1l0,0l0-0.1l0-0.1l0,0l0,0l0,0l-0.1-0.1c0,0,0,0-0.1,0.1l0,0l0,0c0,0-0.1,0.1-0.1,0.1l0,0l-0.1,0l0,0
						l-0.1,0l-0.1,0l0,0l-0.1,0.1l-0.1,0l0,0l-0.1,0.1l-0.1,0.1l0,0l-0.1,0.1l-0.1,0l0,0l-0.1,0l-0.1,0l0,0l-0.1,0l-0.2,0
						c-0.1,0-0.2,0.1-0.4,0.1l0,0l-0.2,0c-0.1,0-0.3,0-0.4,0l0,0l-0.2,0c-0.1,0-0.3,0-0.4,0l0,0l-0.2,0c-0.1,0-0.3-0.1-0.4-0.1l0,0
						L30,11.8c-0.1,0-0.3-0.1-0.4-0.1l0,0l-0.1-0.1l0,0l-0.1-0.1l-0.1-0.1l0,0l-0.1-0.1L29,11.4l0,0l-0.1-0.1l-0.1,0l0,0l-0.1,0
						l-0.1,0l0,0l0,0l0,0l0,0l0,0L28.5,11L28.4,11l0,0l-0.1-0.1l-0.1-0.1l0,0l-0.1-0.1l-0.1-0.1l0,0l-0.1,0L28,10.6
						C28,10.6,28,10.6,27.9,10.5L27.9,10.5L27.9,10.5C27.9,10.5,27.9,10.5,27.9,10.5L27.9,10.5z"/>
				</g>
			</g>
		</g>
	</g>
</g>
</svg>
