<?xml version="1.0" encoding="utf-8"?>
<!-- Generator: Adobe Illustrator 23.0.2, SVG Export Plug-In . SVG Version: 6.00 Build 0)  -->
<svg version="1.1" id="图层_1" xmlns="http://www.w3.org/2000/svg" xmlns:xlink="http://www.w3.org/1999/xlink" x="0px" y="0px"
	 viewBox="0 0 19 19" style="enable-background:new 0 0 19 19;" xml:space="preserve">
<path id="路径" d="M6.7,10.7C5.7,9.7,4.6,7.6,5.2,5.2c3.3,1.5,3,5.7,3.3,12.2H7.8v-1.5H5.2c0,0-2.6,0.2-2.6,1.1
	c0,0.9,2,1.8,7.4,1.8c5.3,0,6.3-1.4,6.3-1.8c0-0.4-0.5-1.1-2.6-1.1h-1.5c0,0-0.3-4.2,2.6-8.5c0.4,0.5,0.9,1.6-0.7,3.7
	c1.9-0.2,2.3-1.3,2.2-3c0.5,0.3,0.9,0.8,0.7,3c1.1-0.7,1.7-2.7,0-4.1c0.8,0,1.2,0.1,1.5,1.5c1-0.9-0.3-3.5-2.6-3
	c-0.4-2.7-4.4-2.3-4.4-0.7c0.9-0.2,1.9-0.1,2.2,0.4c-1,0-2.2,0.2-2.2,3c0.9-1,1.3-1.6,3-1.5c-1.1,0.7-3.3,3.7-3.3,10.7
	c-0.6,0-1.1,0-1.1,0s0.5-9.9-3.7-12.9C8,4.3,9.3,4.3,10.7,7c0.2-1.5,0.2-4.8-3.3-4.4c0.4-0.8,0.3-1.3,3.3-1.1C8.8-1.3,4.5,0.3,4.4,3
	C4.4,3,0,2.1,0,6.7C1.2,5.5,1.7,5,2.2,4.8C1.6,5.7,0,8,2.2,10c0.1-2.7,0.7-3.1,1.1-3.7C3.4,7.6,3.4,10.6,6.7,10.7"/>
</svg>
