<?xml version="1.0" encoding="utf-8"?>
<!-- Generator: Adobe Illustrator 23.0.2, SVG Export Plug-In . SVG Version: 6.00 Build 0)  -->
<svg version="1.1" id="图层_1" xmlns="http://www.w3.org/2000/svg" xmlns:xlink="http://www.w3.org/1999/xlink" x="0px" y="0px"
	 viewBox="0 0 16 16" style="enable-background:new 0 0 16 16;" xml:space="preserve">
<style type="text/css">
	.st0{fill:#919191;}
</style>
<path class="st0" d="M8,6.9c-2,0-3.7,2.1-3.7,4.8c0,0.1,0,0.2,0,0.3h7.3c0-0.1,0-0.2,0-0.3C11.6,9.1,10,6.9,8,6.9L8,6.9z M8,6.4
	c1,0,1.9-0.8,1.9-1.7C9.9,3.8,9,3,8,3C7,3,6.2,3.8,6.2,4.7C6.2,5.7,7,6.4,8,6.4L8,6.4z"/>
<path class="st0" d="M12.5,8.6c-0.2,0-0.3,0-0.5,0.1c0.5,0.9,0.7,1.9,0.7,3c0,0.1,0,0.2,0,0.3h2.2c0-0.1,0-0.1,0-0.2
	C14.9,10,13.8,8.6,12.5,8.6L12.5,8.6z M13.7,7.1c0-0.6-0.6-1.1-1.2-1.1c-0.7,0-1.2,0.5-1.2,1.1c0,0.6,0.6,1.1,1.2,1.1
	C13.2,8.3,13.7,7.8,13.7,7.1L13.7,7.1z"/>
<path class="st0" d="M3.5,8.6C2.1,8.6,1,10,1,11.8c0,0.1,0,0.1,0,0.2h2.2c0-0.1,0-0.2,0-0.3c0-1.1,0.3-2.2,0.7-3
	C3.8,8.6,3.6,8.6,3.5,8.6L3.5,8.6z M2.2,7.1c0,0.6,0.6,1.1,1.2,1.1c0.7,0,1.2-0.5,1.2-1.1C4.7,6.5,4.1,6,3.4,6
	C2.8,6,2.2,6.5,2.2,7.1L2.2,7.1z"/>
</svg>
