<?xml version="1.0" encoding="utf-8"?>
<!-- Generator: Adobe Illustrator 23.0.2, SVG Export Plug-In . SVG Version: 6.00 Build 0)  -->
<svg version="1.1" id="图层_1" xmlns="http://www.w3.org/2000/svg" xmlns:xlink="http://www.w3.org/1999/xlink" x="0px" y="0px"
	 viewBox="0 0 16 16" style="enable-background:new 0 0 16 16;" xml:space="preserve">
<style type="text/css">
	.st0{fill:#3570E6;}
</style>
<path id="Line" class="st0" d="M5.2,7.9l2.5,2c0.2,0.2,0.5,0.1,0.7-0.1c0.2-0.2,0.1-0.5-0.1-0.7l-2.5-2C5.6,6.9,5.3,7,5.1,7.2
	C4.9,7.4,5,7.7,5.2,7.9z"/>
<path id="Line-Copy" class="st0" d="M12.2,5.1l-4.5,4c-0.2,0.2-0.2,0.5,0,0.7c0.2,0.2,0.5,0.2,0.7,0l4.5-4c0.2-0.2,0.2-0.5,0-0.7
	C12.7,5,12.4,4.9,12.2,5.1z"/>
<path id="路径" class="st0" d="M13.2,5c-1.1-1.8-3-3-5.2-3C4.7,2,2,4.6,2,8s2.7,6,6,6c1.2,0,2.4-0.4,3.3-1
	c0.2-0.1,0.4-0.3,0.6-0.4c0.5-0.5,1-1,1.3-1.6c0.2-0.3,0.3-0.7,0.5-1.1c0.1-0.3-0.1-0.5-0.3-0.6c-0.3-0.1-0.5,0.1-0.6,0.3
	c-0.1,0.3-0.2,0.6-0.4,0.9c-0.3,0.5-0.7,1-1.1,1.3c-0.2,0.1-0.3,0.3-0.5,0.4C10,12.7,9,13,8,13c-2.8,0-5-2.2-5-5s2.2-5,5-5
	c1.8,0,3.4,1,4.3,2.5c0.1,0.2,0.4,0.3,0.7,0.2C13.3,5.5,13.4,5.2,13.2,5z"/>
</svg>
