<?xml version="1.0" encoding="utf-8"?>
<!-- Generator: Adobe Illustrator 23.0.1, SVG Export Plug-In . SVG Version: 6.00 Build 0)  -->
<svg version="1.1" id="图层_1" xmlns="http://www.w3.org/2000/svg" xmlns:xlink="http://www.w3.org/1999/xlink" x="0px" y="0px"
	 viewBox="0 0 40 40" style="enable-background:new 0 0 40 40;" xml:space="preserve">
<style type="text/css">
	.st0{fill-rule:evenodd;clip-rule:evenodd;fill:#5E636B;}
</style>
<g id="Page-1">
	<g id="地标页备份" transform="translate(-67.000000, -983.000000)">
		<g id="Tourist-Spot" transform="translate(51.000000, 969.000000)">
			<g id="icon_Tourist-Spot" transform="translate(16.000000, 14.000000)">
				<g id="icon" transform="translate(6.000000, 5.000000)">
					<path id="形状结合" class="st0" d="M27.2,19.7c0.5,0,0.8,0.4,0.8,0.8l0,0v6.6c0,0.5-0.4,0.8-0.8,0.8l0,0H0.8
						C0.4,28,0,27.6,0,27.2l0,0v-6.6c0-0.5,0.4-0.8,0.8-0.8l0,0H27.2z M18.9,24.7h-3.3c-0.5,0-0.8,0.4-0.8,0.8s0.4,0.8,0.8,0.8l0,0
						h3.3c0.5,0,0.8-0.4,0.8-0.8S19.4,24.7,18.9,24.7L18.9,24.7z M5.7,24.7H4.1c-0.5,0-0.8,0.4-0.8,0.8s0.4,0.8,0.8,0.8l0,0h1.6
						c0.5,0,0.8-0.4,0.8-0.8S6.2,24.7,5.7,24.7L5.7,24.7z M23.9,23h-1.6c-0.5,0-0.8,0.4-0.8,0.8c0,0.5,0.4,0.8,0.8,0.8l0,0h1.6
						c0.5,0,0.8-0.4,0.8-0.8C24.7,23.4,24.4,23,23.9,23L23.9,23z M12.4,23H9.1c-0.5,0-0.8,0.4-0.8,0.8c0,0.5,0.4,0.8,0.8,0.8l0,0
						h3.3c0.5,0,0.8-0.4,0.8-0.8C13.2,23.4,12.8,23,12.4,23L12.4,23z M27.2,11.5c0.5,0,0.8,0.4,0.8,0.8l0,0v1.6
						c0,0.5-0.4,0.8-0.8,0.8l0,0h-0.8v3.3h-3.3v-3.3H4.9v3.3H1.6v-3.3H0.8c-0.5,0-0.8-0.4-0.8-0.8l0,0v-1.6c0-0.5,0.4-0.8,0.8-0.8
						l0,0H27.2z M22.2,0c0.3,0,0.6,0.2,0.8,0.5c2.7,8,3.1,9.3,3.1,9.3l0,0h-1.7l-2.1-6.4l-2.1,6.4h-2.5l-2.8-5.5v5.5h-1.6V4.3
						l-2.8,5.5H7.9L5.8,3.4L3.7,9.8H1.9L5,0.6C5.2,0.3,5.3,0,5.8,0l0,0H22.2z M21.1,1.6h-5.7l3.4,6.9L21.1,1.6z M12.7,1.6H6.9
						l2.3,6.9L12.7,1.6z"/>
				</g>
			</g>
		</g>
	</g>
</g>
</svg>
