<?xml version="1.0" encoding="utf-8"?>
<!-- Generator: Adobe Illustrator 23.0.1, SVG Export Plug-In . SVG Version: 6.00 Build 0)  -->
<svg version="1.1" id="图层_1" xmlns="http://www.w3.org/2000/svg" xmlns:xlink="http://www.w3.org/1999/xlink" x="0px" y="0px"
	 viewBox="0 0 240 60" style="enable-background:new 0 0 240 60;" xml:space="preserve">
<style type="text/css">
	.st0{fill:#222222;}
	.st1{fill:#00B67A;}
	.st2{filter:url(#Adobe_OpacityMaskFilter);}
	.st3{fill-rule:evenodd;clip-rule:evenodd;fill:#FFFFFF;}
	.st4{mask:url(#mask-2_1_);fill:#005128;}
</style>
<g id="页面1">
	<g id="首页_增加评论" transform="translate(-255.000000, -4272.000000)">
		<g id="trust" transform="translate(32.000000, 4248.000000)">
			<g id="TP-logo" transform="translate(223.000000, 24.000000)">
				<g id="logo-white">
					<path id="Shape" class="st0" d="M64.7,21.5h24.1v4.5h-9.5v25.1h-5.2V25.9h-9.4L64.7,21.5L64.7,21.5z M87.8,29.6h4.4v4.1h0.1
						c0.1-0.6,0.4-1.1,0.8-1.7c0.4-0.5,0.9-1.1,1.4-1.5c0.6-0.5,1.2-0.8,1.9-1.1c0.7-0.3,1.4-0.4,2.1-0.4c0.5,0,0.9,0,1.2,0
						c0.2,0,0.4,0.1,0.7,0.1v4.6c-0.3-0.1-0.7-0.1-1-0.1c-0.4,0-0.7-0.1-1-0.1c-0.8,0-1.6,0.2-2.3,0.5s-1.3,0.8-1.8,1.4
						c-0.5,0.6-0.9,1.4-1.3,2.3c-0.3,0.9-0.5,2-0.5,3.2v10.2h-4.7L87.8,29.6L87.8,29.6z M122.2,51.1h-4.7v-3h-0.1
						c-0.6,1.1-1.4,1.9-2.6,2.6s-2.3,1-3.5,1c-2.8,0-4.9-0.7-6.1-2.1s-1.9-3.5-1.9-6.3V29.6h4.7v13.1c0,1.9,0.4,3.2,1.1,4
						c0.7,0.8,1.7,1.2,3,1.2c1,0,1.8-0.1,2.5-0.5c0.7-0.3,1.2-0.7,1.6-1.2c0.4-0.5,0.7-1.1,0.9-1.8c0.2-0.7,0.3-1.5,0.3-2.3V29.6
						h4.7V51.1z M130.3,44.2c0.1,1.4,0.7,2.3,1.6,2.9c0.9,0.5,2,0.8,3.3,0.8c0.4,0,0.9,0,1.5-0.1c0.6-0.1,1.1-0.2,1.6-0.4
						c0.5-0.2,0.9-0.5,1.2-0.9c0.3-0.4,0.5-0.9,0.4-1.5s-0.3-1.1-0.7-1.5c-0.4-0.4-0.9-0.7-1.6-0.9c-0.7-0.2-1.4-0.4-2.2-0.6
						s-1.7-0.4-2.5-0.5c-0.9-0.2-1.7-0.4-2.6-0.7s-1.6-0.6-2.2-1.1c-0.7-0.5-1.2-1.1-1.6-1.8c-0.4-0.7-0.6-1.6-0.6-2.7
						c0-1.2,0.3-2.1,0.9-2.9s1.3-1.4,2.2-1.9c0.9-0.5,1.8-0.8,2.9-1C133,29.1,134,29,135,29c1.1,0,2.2,0.1,3.2,0.4
						c1,0.2,1.9,0.6,2.7,1.1c0.8,0.5,1.5,1.2,2,2c0.5,0.8,0.9,1.9,1,3.1h-5c-0.2-1.1-0.7-1.9-1.6-2.3c-0.8-0.4-1.8-0.6-2.8-0.6
						c-0.3,0-0.7,0-1.2,0.1s-0.9,0.2-1.3,0.3c-0.4,0.1-0.7,0.4-1,0.7c-0.3,0.3-0.4,0.7-0.4,1.1c0,0.6,0.2,1,0.6,1.4
						c0.4,0.4,0.9,0.6,1.6,0.9c0.7,0.2,1.4,0.4,2.2,0.6c0.8,0.2,1.7,0.4,2.6,0.5c0.9,0.2,1.7,0.4,2.5,0.7c0.8,0.3,1.6,0.6,2.2,1.1
						c0.7,0.5,1.2,1.1,1.6,1.8c0.4,0.7,0.6,1.6,0.6,2.7c0,1.3-0.3,2.3-0.9,3.2c-0.6,0.9-1.3,1.6-2.3,2.2c-0.9,0.5-2,1-3.1,1.2
						c-1.1,0.3-2.3,0.4-3.4,0.4c-1.4,0-2.6-0.1-3.8-0.5s-2.2-0.8-3-1.4c-0.8-0.6-1.5-1.4-2-2.3c-0.5-0.9-0.7-2-0.8-3.3L130.3,44.2
						L130.3,44.2z M145.9,29.6h3.6v-6.4h4.7v6.4h4.3v3.5h-4.3v11.5c0,0.5,0,0.9,0.1,1.3c0,0.4,0.1,0.7,0.3,0.9
						c0.1,0.3,0.4,0.4,0.7,0.6s0.7,0.2,1.3,0.2c0.3,0,0.7,0,1,0s0.7-0.1,1-0.1v3.7c-0.5,0.1-1,0.1-1.5,0.2c-0.5,0.1-1,0.1-1.5,0.1
						c-1.3,0-2.3-0.1-3-0.4c-0.8-0.2-1.4-0.6-1.8-1c-0.4-0.5-0.7-1-0.9-1.7c-0.1-0.7-0.3-1.5-0.3-2.4V33.2H146L145.9,29.6
						L145.9,29.6z M161.9,29.6h4.5v2.9h0.1c0.7-1.3,1.6-2.1,2.8-2.7s2.5-0.8,3.9-0.8c1.7,0,3.2,0.3,4.4,0.9c1.3,0.6,2.3,1.4,3.1,2.4
						c0.8,1,1.4,2.3,1.9,3.6c0.4,1.4,0.6,2.9,0.6,4.4c0,1.4-0.2,2.8-0.6,4.2c-0.4,1.4-0.9,2.6-1.7,3.6c-0.8,1-1.7,1.9-2.9,2.5
						s-2.5,0.9-4.1,0.9c-0.7,0-1.4-0.1-2.1-0.2c-0.7-0.1-1.4-0.3-2-0.6c-0.6-0.3-1.2-0.6-1.8-1.1c-0.5-0.4-1-0.9-1.4-1.5h-0.1V59
						h-4.7V29.6z M178.5,40.4c0-1-0.1-1.9-0.4-2.8c-0.3-0.9-0.6-1.7-1.1-2.4c-0.5-0.7-1.1-1.3-1.9-1.7c-0.8-0.4-1.6-0.6-2.6-0.6
						c-2,0-3.5,0.7-4.5,2.1c-1,1.4-1.5,3.2-1.5,5.5c0,1.1,0.1,2.1,0.4,3c0.3,0.9,0.7,1.7,1.2,2.4c0.5,0.7,1.2,1.2,1.9,1.6
						c0.7,0.4,1.6,0.6,2.6,0.6c1.1,0,2-0.2,2.7-0.7c0.8-0.4,1.4-1,1.8-1.7c0.5-0.7,0.8-1.5,1-2.4C178.4,42.2,178.5,41.3,178.5,40.4z
						 M186.8,21.5h4.7v4.5h-4.7V21.5z M186.8,29.6h4.7v21.4h-4.7V29.6z M195.8,21.5h4.7v29.6h-4.7V21.5z M215.1,51.7
						c-1.7,0-3.3-0.3-4.6-0.9c-1.3-0.6-2.5-1.4-3.4-2.3c-0.9-1-1.6-2.2-2.1-3.6c-0.5-1.4-0.7-2.9-0.7-4.6c0-1.6,0.3-3.1,0.7-4.5
						c0.5-1.4,1.2-2.6,2.1-3.6c0.9-1,2.1-1.8,3.4-2.3c1.3-0.6,2.9-0.9,4.6-0.9c1.7,0,3.3,0.3,4.6,0.9c1.3,0.6,2.5,1.4,3.4,2.3
						c0.9,1,1.6,2.2,2.1,3.6c0.5,1.4,0.7,2.9,0.7,4.5c0,1.7-0.3,3.2-0.7,4.6c-0.5,1.4-1.2,2.6-2.1,3.6c-0.9,1-2.1,1.8-3.4,2.3
						C218.3,51.4,216.8,51.7,215.1,51.7z M215.1,47.9c1,0,2-0.2,2.7-0.7c0.8-0.4,1.4-1,1.9-1.7c0.5-0.7,0.9-1.5,1.1-2.4
						c0.2-0.9,0.4-1.8,0.4-2.8c0-0.9-0.1-1.8-0.4-2.7c-0.2-0.9-0.6-1.7-1.1-2.4c-0.5-0.7-1.1-1.3-1.9-1.7c-0.8-0.4-1.7-0.7-2.7-0.7
						s-2,0.2-2.7,0.7c-0.8,0.4-1.4,1-1.9,1.7c-0.5,0.7-0.9,1.5-1.1,2.4c-0.2,0.9-0.4,1.8-0.4,2.7c0,0.9,0.1,1.9,0.4,2.8
						c0.2,0.9,0.6,1.7,1.1,2.4c0.5,0.7,1.1,1.3,1.9,1.7C213.1,47.7,214,47.9,215.1,47.9z M227.3,29.6h3.6v-6.4h4.7v6.4h4.3v3.5h-4.3
						v11.5c0,0.5,0,0.9,0.1,1.3c0,0.4,0.1,0.7,0.3,0.9c0.1,0.3,0.4,0.4,0.7,0.6c0.3,0.1,0.7,0.2,1.3,0.2c0.3,0,0.7,0,1,0
						s0.7-0.1,1-0.1v3.7c-0.5,0.1-1,0.1-1.5,0.2c-0.5,0.1-1,0.1-1.5,0.1c-1.3,0-2.3-0.1-3-0.4c-0.8-0.2-1.4-0.6-1.8-1
						c-0.4-0.5-0.7-1-0.9-1.7c-0.1-0.7-0.3-1.5-0.3-2.4V33.2h-3.6L227.3,29.6L227.3,29.6z"/>
					<g>
						<g id="Mask">
							<polygon class="st1" points="56.6,20.5 35,20.5 28.3,0 21.6,20.5 0,20.5 17.5,33.2 10.8,53.6 28.3,41 45.8,53.6 39.1,33.2 
															"/>
						</g>
						<defs>
							<filter id="Adobe_OpacityMaskFilter" filterUnits="userSpaceOnUse" x="30" y="31.3" width="13.5" height="8">
								<feColorMatrix  type="matrix" values="1 0 0 0 0  0 1 0 0 0  0 0 1 0 0  0 0 0 1 0"/>
							</filter>
						</defs>
						<mask maskUnits="userSpaceOnUse" x="30" y="31.3" width="13.5" height="8" id="mask-2_1_">
							<g class="st2">
								<polygon id="path-1_1_" class="st3" points="56.6,20.5 35,20.5 28.3,0 21.6,20.5 0,20.5 17.5,33.2 10.8,53.6 28.3,41 
									45.8,53.6 39.1,33.2 								"/>
							</g>
						</mask>
						<polygon class="st4" points="43.5,36.1 41.8,31.3 30,39.4 						"/>
					</g>
				</g>
			</g>
		</g>
	</g>
</g>
</svg>
