<svg id="图层_1" data-name="图层 1" xmlns="http://www.w3.org/2000/svg" viewBox="0 0 45.64 53.33"><defs><style>.cls-1{fill:#245aa5;fill-rule:evenodd;}</style></defs><title>火车</title><path class="cls-1" d="M35.72,30.6v-14H50v14Zm5.7,12.63a4.28,4.28,0,1,1,4.28,4.21A4.24,4.24,0,0,1,41.42,43.23ZM15.75,30.6v-14H30v14Zm0,12.63A4.28,4.28,0,1,1,20,47.44,4.24,4.24,0,0,1,15.75,43.23ZM10,16.56V43.23A9.92,9.92,0,0,0,20,53l-8.09,4.21v1.4H53.79v-1.4L45.7,53a9.92,9.92,0,0,0,10-9.82V16.56c0-9.82-10.21-11.23-22.82-11.23S10,6.74,10,16.56Z" transform="translate(-10.05 -5.34)"/></svg>