<svg id="图层_1" data-name="图层 1" xmlns="http://www.w3.org/2000/svg" viewBox="0 0 24 24"><defs><style>.cls-1{fill:#727272;}</style></defs><title>tw</title><path class="cls-1" d="M44.33,23H25.67A2.67,2.67,0,0,0,23,25.67V44.33A2.67,2.67,0,0,0,25.67,47H44.33A2.67,2.67,0,0,0,47,44.33V25.67A2.67,2.67,0,0,0,44.33,23Zm-3,9.24q0,.14,0,.43A9.31,9.31,0,0,1,41,35.3a9.55,9.55,0,0,1-1.17,2.52A9.9,9.9,0,0,1,37.93,40a8.33,8.33,0,0,1-2.62,1.48A9.56,9.56,0,0,1,32,42a9.08,9.08,0,0,1-5-1.47,7,7,0,0,0,.79,0,6.41,6.41,0,0,0,4.06-1.4,3.28,3.28,0,0,1-3.06-2.27,4.15,4.15,0,0,0,.62.05,3.38,3.38,0,0,0,.86-.11,3.22,3.22,0,0,1-1.88-1.13,3.17,3.17,0,0,1-.74-2.08v0a3.24,3.24,0,0,0,1.48.42,3.27,3.27,0,0,1-1.06-1.17,3.29,3.29,0,0,1,.05-3.22,9.27,9.27,0,0,0,3,2.42,9.12,9.12,0,0,0,3.77,1,3.67,3.67,0,0,1-.08-.75A3.28,3.28,0,0,1,40.46,30a6.42,6.42,0,0,0,2.08-.79,3.19,3.19,0,0,1-1.44,1.81A6.49,6.49,0,0,0,43,30.55h0A6.84,6.84,0,0,1,41.34,32.24Z" transform="translate(-23 -23)"/></svg>