<?xml version="1.0" encoding="UTF-8"?>
<svg width="16px" height="16px" viewBox="0 0 16 16" version="1.1" xmlns="http://www.w3.org/2000/svg" xmlns:xlink="http://www.w3.org/1999/xlink">
    <!-- Generator: Sketch 63.1 (92452) - https://sketch.com -->
    <title>icon/uncheck</title>
    <desc>Created with Sketch.</desc>
    <g id="页面-1" stroke="none" stroke-width="1" fill="none" fill-rule="evenodd">
        <g id="【ERC租车】PC---列表登陆后" transform="translate(-120.000000, -400.000000)" fill="#9E9E9E" fill-rule="nonzero">
            <g id="编组-21备份" transform="translate(120.000000, 358.000000)">
                <g id="icon/uncheck" transform="translate(0.000000, 42.000000)">
                    <g id="Rectangle-7">
                        <path d="M12.9905224,0 C14.652611,0 16,1.33663106 16,3.00947762 L16,12.9905224 C16,14.652611 14.6633689,16 12.9905224,16 L3.00947762,16 C1.34738902,16 0,14.6633689 0,12.9905224 L0,3.00947762 C0,1.34738902 1.33663106,0 3.00947762,0 L12.9905224,0 Z M12.9905224,1.5 L3.00947762,1.5 C2.21626455,1.5 1.57492607,2.09874952 1.50611443,2.87140742 L1.5,3.00947762 L1.5,12.9905224 C1.5,13.7837354 2.09874952,14.4250739 2.87140742,14.4938856 L3.00947762,14.5 L12.9905224,14.5 C13.7837354,14.5 14.4250739,13.9012505 14.4938856,13.1285926 L14.5,12.9905224 L14.5,3.00947762 C14.5,2.21626455 13.9012505,1.57492607 13.1285926,1.50611443 L12.9905224,1.5 Z"></path>
                    </g>
                </g>
            </g>
        </g>
    </g>
</svg>