<svg id="图层_1" data-name="图层 1" xmlns="http://www.w3.org/2000/svg" viewBox="0 0 64 61"><defs><style>.cls-1{fill:#969696;}</style></defs><title>上传照片</title><path class="cls-1" d="M88.88,74.17H86.67v2.17A2.08,2.08,0,0,1,86,77.87a2.19,2.19,0,0,1-3.1,0,2.07,2.07,0,0,1-.66-1.53V74.17H80.05a2.14,2.14,0,0,1-1.55-.65,2.11,2.11,0,0,1,0-3.06,2.14,2.14,0,0,1,1.55-.65h2.21V67.65a2.08,2.08,0,0,1,.66-1.53,2.19,2.19,0,0,1,3.1,0,2.08,2.08,0,0,1,.65,1.53v2.17h2.21a2.15,2.15,0,0,1,1.55.65,2.11,2.11,0,0,1,0,3.06A2.14,2.14,0,0,1,88.88,74.17ZM84.47,61.26a10.7,10.7,0,0,0-7.79,3.19,10.7,10.7,0,0,0,0,15.35,11.11,11.11,0,0,0,15.58,0,10.71,10.71,0,0,0,0-15.35A10.7,10.7,0,0,0,84.47,61.26ZM81.16,43.74a3.22,3.22,0,0,1-2.35-1,3.25,3.25,0,0,1,0-4.62,3.36,3.36,0,0,1,4.69,0,3.25,3.25,0,0,1,0,4.62A3.22,3.22,0,0,1,81.16,43.74Zm-21,21.74a12.84,12.84,0,0,1-9.34-3.84,12.81,12.81,0,0,1,0-18.41,13.29,13.29,0,0,1,18.69,0,12.82,12.82,0,0,1,0,18.41A12.84,12.84,0,0,1,60.19,65.47Zm24.27-37H62.4a6.24,6.24,0,0,0-1.93-4.62A6.44,6.44,0,0,0,55.78,22H51.36a6.44,6.44,0,0,0-4.69,1.9,6.24,6.24,0,0,0-1.93,4.62H38.12a6.44,6.44,0,0,0-4.69,1.9A6.24,6.24,0,0,0,31.5,35V69.82a6.24,6.24,0,0,0,1.93,4.62,6.44,6.44,0,0,0,4.69,1.9H66.95a2,2,0,0,0,.9-.2,2.93,2.93,0,0,0,.76-.54,2,2,0,0,0,.52-1.67A16.52,16.52,0,0,1,69,72.2,15.11,15.11,0,0,1,78.84,58a15.52,15.52,0,0,1,9.48-.51,2.27,2.27,0,0,0,1.93-.34,3.36,3.36,0,0,0,.59-.78,2,2,0,0,0,.24-1V35a6.24,6.24,0,0,0-1.93-4.62A6.44,6.44,0,0,0,84.47,28.52Z" transform="translate(-31.5 -22)"/></svg>