<svg id="图层_1" data-name="图层 1" xmlns="http://www.w3.org/2000/svg" viewBox="0 0 6.98 12"><defs><style>.cls-1,.cls-2{fill:#adadad;}.cls-2{fill-rule:evenodd;}</style></defs><title>Free Car Charger</title><path class="cls-1" d="M37.31,35.18a.51.51,0,0,1,.52.52v7.7a.51.51,0,0,1-.52.51H33.69a.51.51,0,0,1-.52-.51V35.7a.5.5,0,0,1,.52-.52ZM36.08,33H34.92c-.58,0-.58.82-.6.82v.27h-1S32,34.09,32,35.24v8.61C32,45,33.28,45,33.28,45h4.44S39,45,39,43.85V35.24c0-1.15-1.27-1.15-1.27-1.15H36.66v-.27S36.66,33,36.08,33Z" transform="translate(-32.01 -33)"/><polygon class="cls-1" points="3.46 9 4.99 5.36 3.46 5.5 3.46 3 1.99 6.54 3.46 6.2 3.46 9"/><path class="cls-2" d="M33.94,42.48H37a.65.65,0,1,1,0,1.3h-3.1a.65.65,0,1,1,0-1.3Z" transform="translate(-32.01 -33)"/></svg>