<?xml version="1.0" encoding="utf-8"?>
<!-- Generator: Adobe Illustrator 23.0.1, SVG Export Plug-In . SVG Version: 6.00 Build 0)  -->
<svg version="1.1" id="图层_1" xmlns="http://www.w3.org/2000/svg" xmlns:xlink="http://www.w3.org/1999/xlink" x="0px" y="0px"
	 viewBox="0 0 28 28" style="enable-background:new 0 0 28 28;" xml:space="preserve">
<style type="text/css">
	.st0{fill-rule:evenodd;clip-rule:evenodd;fill:#164AB0;}
	.st1{fill:#164AB0;}
</style>
<path class="st0" d="M10,20.9c-2.4-1.4-4-4-4-6.9c0-4.4,3.6-8,8-8s8,3.6,8,8c0,3-1.6,5.5-4,6.9v1.2c0,0.5-0.4,0.9-0.9,0.9h-6.2
	c-0.5,0-0.9-0.4-0.9-0.9V20.9z"/>
<path class="st1" d="M11,26c-0.6,0-1-0.4-1-1s0.4-1,1-1h6c0.6,0,1,0.4,1,1s-0.4,1-1,1H11z"/>
<path class="st1" d="M13,2c0-0.6,0.4-1,1-1s1,0.4,1,1v2c0,0.6-0.4,1-1,1s-1-0.4-1-1V2z"/>
<path class="st1" d="M21.3,4.3c0.4-0.4,1-0.5,1.4-0.1c0.4,0.4,0.5,1,0.1,1.4l-1.3,1.5c-0.4,0.4-1,0.5-1.4,0.1
	c-0.4-0.4-0.5-1-0.1-1.4L21.3,4.3z"/>
<path class="st1" d="M26.1,11.3c0.5-0.1,1.1,0.3,1.2,0.8c0.1,0.5-0.3,1.1-0.8,1.2l-2,0.3c-0.5,0.1-1.1-0.3-1.2-0.8
	c-0.1-0.5,0.3-1.1,0.8-1.2L26.1,11.3z"/>
<path class="st1" d="M1.5,13.3c-0.5-0.1-0.9-0.6-0.8-1.2c0.1-0.5,0.6-0.9,1.2-0.8l2,0.3c0.5,0.1,0.9,0.6,0.8,1.2
	c-0.1,0.5-0.6,0.9-1.2,0.8L1.5,13.3z"/>
<path class="st1" d="M5.2,5.6C4.8,5.1,4.9,4.5,5.3,4.2c0.4-0.4,1.1-0.3,1.4,0.1L8,5.8c0.4,0.4,0.3,1.1-0.1,1.4
	C7.5,7.6,6.8,7.5,6.5,7.1L5.2,5.6z"/>
</svg>
