<?xml version="1.0" encoding="utf-8"?>
<!-- Generator: Adobe Illustrator 23.0.2, SVG Export Plug-In . SVG Version: 6.00 Build 0)  -->
<svg version="1.1" id="图层_1" xmlns="http://www.w3.org/2000/svg" xmlns:xlink="http://www.w3.org/1999/xlink" x="0px" y="0px"
	 viewBox="0 0 4 12" style="enable-background:new 0 0 4 12;" xml:space="preserve">
<style type="text/css">
	.st0{fill-rule:evenodd;clip-rule:evenodd;fill:#FF9500;}
</style>
<path class="st0" d="M1.1,9.2h1.7c0.4,0,0.6,0.3,0.6,0.6v1.5c0,0.4-0.3,0.6-0.6,0.6H1.1c-0.4,0-0.6-0.3-0.6-0.6V9.9
	C0.5,9.5,0.8,9.2,1.1,9.2z"/>
<path class="st0" d="M1.1,0h1.7c0.4,0,0.6,0.3,0.6,0.6V7c0,0.4-0.3,0.6-0.6,0.6H1.1C0.8,7.6,0.5,7.3,0.5,7V0.6C0.5,0.3,0.8,0,1.1,0z
	"/>
</svg>
