<svg id="图层_1" data-name="图层 1" xmlns="http://www.w3.org/2000/svg" viewBox="0 0 13.64 10.64"><defs><style>.cls-1{fill:#efefef;}</style></defs><title>免费wifi</title><path class="cls-1" d="M8.62.68h0a9.1,9.1,0,0,0-6.51,2.8l-.31.32.3.33,1,1.06.28.31.29-.29a7,7,0,0,1,5-2.11,7,7,0,0,1,5,2.11l.29.29.28-.31,1-1.06.3-.33-.31-.32A9.08,9.08,0,0,0,8.62.68Z" transform="translate(-1.8 -0.68)"/><path class="cls-1" d="M12.92,6a6.1,6.1,0,0,0-4.3-1.81H8.35a6.13,6.13,0,0,0-4,1.8L4,6.33l.31.33,1,1.08.28.3.29-.28A4,4,0,0,1,8.62,6.61a4,4,0,0,1,2.76,1.15l.29.28.28-.3,1-1.08.31-.33Z" transform="translate(-1.8 -0.68)"/><path class="cls-1" d="M8.62,11.32,8.92,11l1.61-1.74.32-.35-.35-.32a2.72,2.72,0,0,0-1.87-.66,2.94,2.94,0,0,0-1.87.66l-.35.32.32.35L8.33,11Z" transform="translate(-1.8 -0.68)"/></svg>