<?xml version="1.0" encoding="utf-8"?>
<!-- Generator: Adobe Illustrator 24.0.1, SVG Export Plug-In . SVG Version: 6.00 Build 0)  -->
<svg version="1.1" id="图层_1" xmlns="http://www.w3.org/2000/svg" xmlns:xlink="http://www.w3.org/1999/xlink" x="0px" y="0px"
	 viewBox="0 0 16 16" style="enable-background:new 0 0 16 16;" xml:space="preserve">
<style type="text/css">
	.st0{fill-rule:evenodd;clip-rule:evenodd;fill:#DBC29D;}
</style>
<path id="路径" class="st0" d="M15.7,1.5c0.4,0.4,0.4,1.2,0,1.6L10.8,8l4.8,4.8c0.4,0.4,0.4,1.2,0,1.6l-1.2,1.2
	c-0.4,0.4-1.2,0.4-1.6,0L8,10.8l-4.8,4.8c-0.4,0.4-1.2,0.4-1.6,0l-1.2-1.2c-0.4-0.4-0.4-1.2,0-1.6L5.2,8L0.3,3.2
	c-0.4-0.4-0.4-1.2,0-1.6l1.2-1.2c0.4-0.4,1.2-0.4,1.6,0L8,5.2l4.8-4.8c0.4-0.4,1.2-0.4,1.6,0L15.7,1.5z"/>
</svg>
