<?xml version="1.0" encoding="UTF-8"?>
<svg width="21px" height="20px" viewBox="0 0 21 20" version="1.1" xmlns="http://www.w3.org/2000/svg" xmlns:xlink="http://www.w3.org/1999/xlink">
    <!-- Generator: Sketch 63.1 (92452) - https://sketch.com -->
    <title>icon/xingli</title>
    <desc>Created with Sketch.</desc>
    <g id="页面-1" stroke="none" stroke-width="1" fill="none" fill-rule="evenodd">
        <g id="显示信息多情况" transform="translate(-692.000000, -255.000000)" fill="#222222" fill-rule="nonzero">
            <g id="编组-14备份" transform="translate(398.000000, 144.000000)">
                <g id="分销">
                    <g id="Group-13" transform="translate(244.000000, 110.000000)">
                        <g id="Group-26-Copy" transform="translate(50.400000, 1.000000)">
                            <g id="icon/xingli">
                                <g id="Combined-Shape">
                                    <path d="M12.5845212,3.39714193 C13.2748772,3.39714193 13.8345212,3.956786 13.8345212,4.64714193 L13.834,6.24914193 L16.25,6.25 C16.9403559,6.25 17.5,6.80964406 17.5,7.5 L17.5,15 C17.5,15.6903559 16.9403559,16.25 16.25,16.25 L3.75,16.25 C3.05964406,16.25 2.5,15.6903559 2.5,15 L2.5,7.5 C2.5,6.80964406 3.05964406,6.25 3.75,6.25 L6.334,6.24914193 L6.33452124,4.64714193 C6.33452124,3.956786 6.89416531,3.39714193 7.58452124,3.39714193 L12.5845212,3.39714193 Z M6.875,8.75 C6.56120185,8.75 6.30141686,8.98125788 6.2567766,9.28264208 L6.25,9.375 L6.25,13.125 C6.25,13.470178 6.52982203,13.75 6.875,13.75 C7.18879815,13.75 7.44858314,13.5187421 7.4932234,13.2173579 L7.5,13.125 L7.5,9.375 C7.5,9.02982203 7.22017797,8.75 6.875,8.75 Z M13.125,8.75 C12.8112018,8.75 12.5514169,8.98125788 12.5067766,9.28264208 L12.5,9.375 L12.5,13.125 C12.5,13.470178 12.779822,13.75 13.125,13.75 C13.4387982,13.75 13.6985831,13.5187421 13.7432234,13.2173579 L13.75,13.125 L13.75,9.375 C13.75,9.02982203 13.470178,8.75 13.125,8.75 Z M12.5845212,4.64714193 L7.58452124,4.64714193 L7.58452124,6.25 L12.5845212,6.25 L12.5845212,4.64714193 Z"></path>
                                </g>
                            </g>
                        </g>
                    </g>
                </g>
            </g>
        </g>
    </g>
</svg>