<?xml version="1.0" encoding="utf-8"?>
<!-- Generator: Adobe Illustrator 22.1.0, SVG Export Plug-In . SVG Version: 6.00 Build 0)  -->
<svg version="1.1" id="图层_1" xmlns="http://www.w3.org/2000/svg" xmlns:xlink="http://www.w3.org/1999/xlink" x="0px" y="0px"
	 viewBox="0 0 16 16" style="enable-background:new 0 0 16 16;" xml:space="preserve">
<style type="text/css">
	.st0{fill:#9E9E9E;}
</style>
<path class="st0" d="M6.1,5h4V3.7h-4V5z M11.1,5H13c0.6,0,1,0.4,1,1v6c0,0.6-0.4,1-1,1H3c-0.6,0-1-0.4-1-1V6c0-0.6,0.4-1,1-1h2.1
	V3.7c0-0.6,0.4-1,1-1h4c0.6,0,1,0.4,1,1V5z M5.5,7C5.2,7,5,7.2,5,7.5v3C5,10.8,5.2,11,5.5,11S6,10.8,6,10.5v-3C6,7.2,5.8,7,5.5,7z
	 M10.5,7C10.2,7,10,7.2,10,7.5v3c0,0.3,0.2,0.5,0.5,0.5s0.5-0.2,0.5-0.5v-3C11,7.2,10.8,7,10.5,7z"/>
</svg>
