<svg id="图层_1" data-name="图层 1" xmlns="http://www.w3.org/2000/svg" viewBox="0 0 24 24"><defs><style>.cls-1{fill:#a5a0a0;}</style></defs><title>youtube</title><path class="cls-1" d="M34.33,29.5a.38.38,0,0,0-.38,0,.37.37,0,0,0-.2.33v6.45a.37.37,0,0,0,.38.37.38.38,0,0,0,.2-.06l5.08-3.23a.37.37,0,0,0,0-.63Z" transform="translate(-24 -21)"/><path class="cls-1" d="M45.33,21H26.67A2.67,2.67,0,0,0,24,23.67V42.33A2.67,2.67,0,0,0,26.67,45H45.33A2.67,2.67,0,0,0,48,42.33V23.67A2.67,2.67,0,0,0,45.33,21ZM45,36.73a3,3,0,0,1-3,2.93H30a3,3,0,0,1-3-2.93V29.93A3,3,0,0,1,30,27H42a3,3,0,0,1,3,2.93Z" transform="translate(-24 -21)"/></svg>